<?xml version="1.0" standalone="no"?>
<!DOCTYPE svg PUBLIC "-//W3C//DTD SVG 20010904//EN""http://www.w3.org/TR/2001/REC-SVG-20010904/DTD/svg10.dtd">
<svg version="1.0" xmlns="http://www.w3.org/2000/svg" width="160" height="37" viewBox="0 0 160 37" fill="none" xmlns="http://www.w3.org/2000/svg">

<g transform="translate(0.000000,52.000000) scale(0.100000,-0.100000)"
fill="#000000" stroke="none">
<path d="M0 260 l0 -260 815 0 815 0 0 260 0 260 -815 0 -815 0 0 -260z m276
109 c11 -9 19 -8 34 6 10 9 35 17 55 17 72 0 107 -70 70 -141 -19 -38 -124
-131 -147 -131 -9 0 -47 27 -82 61 -73 68 -92 109 -74 161 18 52 96 67 144 27z
m1064 -29 c0 -5 -7 -10 -15 -10 -8 0 -15 5 -15 10 0 6 7 10 15 10 8 0 15 -4
15 -10z m-633 -13 c-10 -7 -25 -39 -33 -71 -13 -48 -13 -60 -2 -67 8 -6 -4 -9
-32 -9 -37 1 -42 3 -29 13 23 18 52 129 36 139 -7 4 7 8 32 8 39 0 42 -2 28
-13z m289 -24 c-4 -9 -1 -20 6 -25 10 -6 9 -8 -3 -8 -10 0 -19 -11 -22 -27 -6
-34 -6 -34 18 -27 11 3 29 20 40 37 15 24 29 33 54 35 33 3 33 3 27 -31 -5
-24 -3 -36 6 -39 11 -4 10 -8 0 -21 -15 -18 -89 -21 -110 -4 -9 7 -16 7 -24
-1 -7 -7 -21 -12 -31 -12 -17 0 -19 5 -14 44 6 43 6 43 -23 42 -35 -1 -34 0
-14 -31 13 -20 14 -28 4 -40 -14 -17 -66 -20 -76 -4 -4 8 -9 8 -17 0 -12 -12
-47 -15 -47 -3 0 4 4 22 10 40 8 28 7 32 -5 22 -7 -6 -17 -25 -20 -41 -4 -17
-13 -29 -22 -29 -12 0 -14 7 -9 34 5 23 3 36 -6 39 -10 4 -8 10 5 20 20 17
103 18 101 2 -1 -6 -4 -23 -8 -38 -4 -16 -3 -26 2 -23 5 3 20 -1 35 -9 33 -17
40 -9 20 25 -26 44 -11 64 41 57 38 -6 45 -4 49 13 3 11 13 20 22 20 12 0 15
-5 11 -17z m254 -28 c0 -8 -4 -25 -10 -39 -7 -20 -6 -24 5 -19 22 8 18 -15 -4
-27 -37 -19 -44 -13 -37 33 5 39 5 40 -9 23 -8 -11 -15 -30 -15 -43 0 -17 -6
-23 -21 -23 -16 0 -19 5 -15 20 3 11 9 30 12 41 4 14 2 19 -5 15 -14 -9 -14 7
0 21 17 17 99 15 99 -2z m66 -19 c-5 -24 -3 -35 6 -38 19 -7 -9 -38 -34 -38
-18 0 -19 5 -14 34 4 22 2 37 -5 42 -9 5 -7 11 6 21 34 24 48 17 41 -21z m171
-1 c-4 -21 -1 -35 6 -38 18 -6 -11 -37 -34 -37 -21 0 -24 16 -9 56 9 23 8 25
-3 15 -8 -6 -17 -25 -21 -41 -3 -18 -12 -30 -21 -30 -18 0 -18 4 -5 48 7 28 7
32 -4 23 -8 -6 -16 -25 -20 -41 -3 -19 -12 -30 -22 -30 -13 0 -15 7 -10 34 5
23 3 36 -6 39 -10 4 -8 9 5 20 11 9 41 15 83 15 l66 0 -5 -33z"/>
<path d="M237 343 c-12 -11 -7 -40 8 -53 22 -18 39 1 31 34 -6 25 -25 34 -39
19z"/>
<path d="M304 336 c-8 -21 -1 -49 13 -53 15 -5 35 31 27 51 -8 20 -33 21 -40
2z"/>
<path d="M190 282 c0 -27 21 -44 37 -31 9 8 10 16 2 30 -12 24 -39 25 -39 1z"/>
<path d="M350 285 c-13 -15 -7 -45 8 -45 16 0 34 29 28 45 -7 19 -20 19 -36 0z"/>
<path d="M240 243 c-26 -33 -23 -69 5 -65 38 5 60 4 83 -3 20 -7 22 -4 22 28
0 64 -71 90 -110 40z"/>
<path d="M1060 259 c-6 -11 -9 -30 -7 -42 3 -19 6 -17 20 15 20 43 20 48 7 48
-5 0 -14 -9 -20 -21z"/>
</g>

<defs>
<linearGradient id="paint0_linear_2280_4" x1="0" y1="18.5013" x2="42.1053" y2="18.5013" gradientUnits="userSpaceOnUse">
<stop stop-color="#F86CA7"/>
<stop offset="1" stop-color="#FF7F18"/>
</linearGradient>
<clipPath id="clip0_2280_4">
<rect width="42.1053" height="37" fill="white"/>
</clipPath>
</defs>
</svg>

