<svg width="62" height="54" viewBox="0 0 62 54" fill="none" xmlns="http://www.w3.org/2000/svg">
<g clip-path="url(#clip0_2466_644)">
<path d="M39.5761 37.8532C40.7559 39.3048 40.6663 39.5292 38.3365 41.4672C38.7397 41.6318 39.0907 41.759 39.4342 41.9236C40.3377 42.3576 40.5991 43.1058 40.0764 43.9812C39.8374 44.3778 39.464 44.6995 39.1056 45.0063C38.8443 45.2308 38.5082 45.3804 38.0527 45.6498C38.7547 45.792 39.3072 45.8743 39.8523 46.0239C40.9276 46.3157 41.2039 46.7946 40.9127 47.872C40.5468 49.2114 39.6657 50.0569 38.3514 50.446C37.5151 50.6854 36.6713 50.8874 35.9619 51.067C35.5886 51.7853 35.3496 52.4363 34.9464 52.9525C34.3341 53.7307 33.55 54.232 32.4598 53.9103C31.2053 53.5511 30.7498 52.9825 30.72 51.5608C30.369 51.5908 30.0181 51.6805 29.682 51.6282C28.9503 51.5234 28.1662 51.4785 27.5091 51.1792C26.3666 50.648 26.2247 49.6379 27.0237 48.6427C27.1432 48.4931 27.2701 48.3584 27.4718 48.1264C26.9491 47.9319 26.516 47.7822 26.0903 47.6027C24.694 47.0116 24.4326 45.979 25.3735 44.7669C25.5378 44.5574 25.7319 44.3703 25.9036 44.1833C25.8439 44.0785 25.8215 43.9887 25.7618 43.9513C24.3505 42.9262 24.231 42.3501 25.0823 40.891C25.2316 40.6366 25.3063 40.3298 25.3959 40.038C25.5079 39.6714 25.605 39.2973 25.7244 38.8633C23.9547 36.6111 22.1327 34.2692 20.2883 31.9422C17.07 27.8792 14.8896 23.3599 14.225 18.1747C14.113 17.2768 14.0383 16.334 14.1876 15.4511C14.5162 13.5356 14.9045 11.6201 15.4496 9.76452C15.9798 7.96876 17.2417 6.5546 18.653 5.4098C21.6175 3.03042 24.8657 1.2571 28.7038 0.561247C33.3186 -0.276774 37.8287 -0.216916 42.3464 1.08501C44.6388 1.74346 46.4757 2.92566 47.9468 4.84862C50.6723 8.40273 51.3593 12.3235 50.5901 16.6483C49.6194 22.073 47.4166 26.9365 44.2281 31.3735C43.0931 32.9523 41.9133 34.5011 40.7708 36.0724C40.3676 36.6336 39.9942 37.2322 39.5761 37.8532ZM28.9129 37.9131C28.7486 37.3145 28.6366 36.9029 28.5246 36.4839C28.211 35.3391 27.8526 34.2018 27.5838 33.0421C26.8072 29.6376 26.053 26.2257 24.7612 22.9634C24.6193 22.5967 24.5222 22.2002 24.47 21.8111C24.4251 21.5043 24.4251 21.1676 24.5073 20.8758C24.7014 20.1425 25.3212 19.8657 25.9858 20.2473C26.3517 20.4568 26.6728 20.7785 26.9715 21.0928C27.3523 21.4968 29.5103 23.1803 30.2495 23.5545C30.7424 22.7239 31.2203 21.8635 31.7505 21.0329C32.191 20.3371 32.639 19.6262 33.1767 19.0052C33.6023 18.5114 34.1922 18.2196 34.8867 18.4889C35.5886 18.7583 35.7379 19.3718 35.7827 20.0303C35.835 20.7261 35.8947 21.4145 35.9545 22.1777C36.2084 22.0804 36.3428 22.0655 36.41 21.9906C37.1716 21.0928 38.3514 20.6064 38.8293 19.4242C39.0011 18.9977 39.4491 18.8032 39.9345 18.9828C40.4198 19.1623 40.5841 19.5589 40.5244 20.0303C40.4796 20.4194 40.375 20.8084 40.2556 21.1826C39.9569 22.1702 39.6209 23.1504 39.3222 24.1306C38.0154 28.3806 36.7161 32.6305 35.4168 36.8805C35.387 36.9852 35.4094 37.105 35.4094 37.2696C36.2084 37.2771 36.9999 37.6287 37.5973 36.7757C39.1728 34.5385 40.7708 32.3163 42.3613 30.0865C45.2586 26.0311 47.3718 21.6315 48.2753 16.6932C48.701 14.3662 48.9474 12.0242 48.0886 9.75703C46.8267 6.40495 44.8329 3.90585 41.0546 3.01545C37.1119 2.08764 33.2439 2.02778 29.2713 2.70119C25.8215 3.28482 22.9093 4.87855 20.2361 6.96612C18.9965 7.93135 17.9138 9.15845 17.4508 10.7447C17.0998 11.9643 16.7489 13.1989 16.5697 14.4485C16.4054 15.6157 16.3158 16.8278 16.4427 17.9951C16.9206 22.3648 18.7576 26.2182 21.2068 29.8022C22.3941 31.5381 23.6411 33.2291 24.8284 34.965C25.4108 35.818 25.926 36.7159 26.4488 37.5988C26.7474 38.1076 27.1357 38.3321 27.7256 38.1675C28.0617 38.0702 28.4126 38.0178 28.9129 37.9131ZM27.3 23.6293C28.4574 28.3806 29.5775 32.9373 30.705 37.5764C31.5936 37.4791 32.4449 37.3893 33.3932 37.292C34.5506 33.3039 35.6931 29.3533 36.8356 25.3951C36.9551 24.9761 37.0447 24.5496 37.1418 24.1306C37.1492 24.1007 37.1194 24.0483 37.0895 24.0258C37.0671 24.0034 37.0223 24.0109 36.7535 23.9735C36.6863 24.0782 36.5742 24.3625 36.3726 24.5346C35.5512 25.2305 34.5432 24.9462 34.237 23.8986C34.1101 23.4572 34.1399 22.9634 34.1101 22.4845C34.0802 22.043 34.0653 21.6016 34.0429 21.1601C33.6396 21.4444 33.4978 21.7587 33.3111 22.0505C32.8108 22.8586 32.3553 23.7041 31.7729 24.4374C30.6453 25.859 29.6895 25.8815 28.3977 24.6394C28.0691 24.3401 27.7331 24.0333 27.3 23.6293ZM26.6578 42.2004C27.0013 42.582 27.4867 42.7017 28.0841 42.6194C30.7573 42.2603 33.3634 41.6318 35.9097 40.7414C36.283 40.6142 36.5742 40.27 36.9103 40.0156C36.3353 39.3571 36.3353 39.3048 35.6633 39.3347C32.8257 39.4619 29.9882 39.619 27.3075 39.7537C27.0685 40.6366 26.8893 41.3325 26.6578 42.2004ZM28.5694 44.1982C28.0617 44.7594 27.5464 45.3206 26.9864 45.9341C27.9646 46.2858 28.9279 46.7422 30.0255 46.5402C31.4667 46.2783 32.9004 46.0164 34.3341 45.7321C34.588 45.6797 34.924 45.5675 35.036 45.3729C35.5214 44.5424 36.3428 44.2656 37.1492 43.9288C37.3583 43.8465 37.5375 43.6894 37.9034 43.4649C36.2084 43.5323 36.2084 43.5323 35.4915 42.6269C33.1095 43.1731 30.8096 43.6894 28.5694 44.1982ZM39.0683 47.6326C38.9189 47.5653 38.8219 47.4979 38.7173 47.483C37.1044 47.3258 35.5064 47.3034 33.9159 47.7523C32.9303 48.0292 31.9073 48.2387 30.8917 48.2836C29.8613 48.3285 29.4431 48.9719 28.7785 49.8474C30.4586 49.8474 31.9073 49.8474 33.3559 49.8474C33.3932 49.8474 33.438 49.8399 33.4754 49.8324C35.0061 49.4433 36.5369 49.0767 38.0602 48.6577C38.5307 48.523 38.9787 48.2536 39.0683 47.6326ZM32.2209 51.6207C32.9676 52.5335 33.0348 52.5335 33.7218 51.7554C33.1841 51.7105 32.7063 51.6656 32.2209 51.6207Z" fill="url(#paint0_linear_2466_644)"/>
<path d="M61.5296 1.30945C61.6864 1.69105 61.7461 1.84069 61.8059 1.98286C62.2016 2.8957 61.9925 3.60652 61.1263 4.04798C59.7524 4.73636 58.356 5.3948 56.9522 6.03828C55.8396 6.54708 54.7046 7.01099 53.5696 7.48237C53.1439 7.66195 52.6959 7.72181 52.4121 7.25042C52.1284 6.77903 52.4047 6.4124 52.7706 6.13555C53.2186 5.80633 53.6741 5.48459 54.152 5.21523C55.9068 4.22008 57.6616 3.23241 59.4388 2.26719C60.0884 1.91552 60.7829 1.65364 61.5296 1.30945Z" fill="url(#paint1_linear_2466_644)"/>
<path d="M9.91642 11.1711C9.55053 11.1262 9.25184 11.1337 8.99049 11.0439C7.22824 10.4603 5.47345 9.85424 3.71866 9.25565C3.53198 9.18831 3.33783 9.13593 3.15862 9.06111C2.68072 8.85909 2.32977 8.52986 2.50151 7.96869C2.67326 7.40751 3.14369 7.33269 3.65892 7.39255C3.81573 7.41499 3.98001 7.43744 4.12189 7.4973C5.65266 8.1333 7.19837 8.74685 8.69927 9.44271C9.31905 9.72704 9.90895 10.161 9.91642 11.1711Z" fill="url(#paint2_linear_2466_644)"/>
<path d="M2.58378 20.4941C2.08348 20.539 1.57571 20.5764 1.06048 20.6288C0.590047 20.6737 0.156951 20.6063 0.0225413 20.0826C-0.104401 19.5887 0.186819 19.2446 0.612449 19.0425C0.858865 18.9228 1.12768 18.8255 1.3965 18.8031C2.74806 18.6834 4.08469 18.7881 5.36158 19.2895C5.57812 19.3718 5.83948 19.4541 5.98135 19.6187C6.14563 19.8057 6.31738 20.12 6.2651 20.322C6.21283 20.5091 5.89175 20.7111 5.66773 20.7485C5.32424 20.8084 4.95835 20.7335 4.60739 20.7036C3.93534 20.6363 3.27077 20.5614 2.58378 20.4941Z" fill="url(#paint3_linear_2466_644)"/>
<path d="M51.1651 29.4655C52.0164 29.6001 53.0468 29.7124 54.0474 29.9443C54.3685 30.0191 54.8166 30.3708 54.8614 30.6477C54.9435 31.119 54.5029 31.4258 54.0474 31.5081C53.6218 31.583 53.1738 31.6428 52.7556 31.568C51.8596 31.4183 50.9635 31.2238 50.0973 30.9619C49.8136 30.8796 49.4551 30.5579 49.4103 30.3035C49.3431 29.8545 49.7464 29.6226 50.1645 29.5478C50.4408 29.5029 50.7171 29.5029 51.1651 29.4655Z" fill="url(#paint4_linear_2466_644)"/>
<path d="M53.6816 15.1367C55.4065 14.5831 56.997 14.0219 58.6174 13.5655C59.4238 13.341 59.9241 13.5804 60.0287 14.0294C60.1407 14.4783 59.842 14.9272 59.0131 15.1293C57.6392 15.466 56.2353 15.683 54.839 15.9149C54.4059 15.9823 53.9877 15.8625 53.6816 15.1367Z" fill="url(#paint5_linear_2466_644)"/>
<path d="M10.9319 30.2661C11.1336 30.3783 11.4696 30.513 11.7235 30.7375C12.0446 31.0218 11.9624 31.4109 11.5891 31.6204C10.7005 32.1292 9.81934 32.638 8.92328 33.1393C8.75153 33.2366 8.57232 33.3339 8.38564 33.3937C7.97495 33.5209 7.57919 33.4686 7.3253 33.087C7.03408 32.653 7.11622 32.1741 7.51945 31.9272C8.46031 31.351 9.45345 30.8572 10.4242 30.3409C10.5287 30.2811 10.6631 30.3035 10.9319 30.2661Z" fill="url(#paint6_linear_2466_644)"/>
<path d="M28.9129 37.913C28.4126 38.0178 28.0691 38.0627 27.7331 38.1599C27.1432 38.3245 26.7549 38.1001 26.4562 37.5913C25.9335 36.7009 25.4183 35.803 24.8358 34.9575C23.6486 33.2216 22.4015 31.5306 21.2143 29.7947C18.765 26.2106 16.9281 22.3647 16.4502 17.9876C16.3233 16.8203 16.4054 15.6082 16.5771 14.4409C16.7564 13.1914 17.1073 11.9568 17.4583 10.7372C17.9212 9.15092 19.004 7.92381 20.2435 6.95859C22.9242 4.87102 25.8364 3.28477 29.2788 2.69366C33.2514 2.02025 37.1194 2.07263 41.062 3.00044C44.8404 3.89084 46.8342 6.38994 48.0961 9.74202C48.9548 12.0166 48.7084 14.3511 48.2828 16.6781C47.3793 21.6165 45.2661 26.0161 42.3688 30.0715C40.7783 32.3013 39.1803 34.5235 37.6047 36.7607C37.0074 37.6137 36.2158 37.262 35.4168 37.2546C35.4168 37.0899 35.387 36.9702 35.4243 36.8655C36.7236 32.6155 38.0229 28.3655 39.3296 24.1156C39.6358 23.1279 39.9644 22.1552 40.263 21.1675C40.375 20.7934 40.4796 20.4043 40.5319 20.0153C40.5916 19.5439 40.4273 19.1398 39.942 18.9677C39.4566 18.7882 39.0086 18.9827 38.8368 19.4092C38.3589 20.5989 37.1791 21.0852 36.4174 21.9756C36.3502 22.0505 36.2158 22.0654 35.9619 22.1627C35.9022 21.3995 35.8425 20.7036 35.7902 20.0153C35.7454 19.3493 35.5961 18.7433 34.8941 18.4739C34.1997 18.2045 33.6098 18.5038 33.1842 18.9902C32.6465 19.6112 32.1985 20.322 31.7579 21.0179C31.2352 21.8484 30.7499 22.7089 30.257 23.5394C29.5178 23.1728 27.3598 21.4893 26.9789 21.0778C26.6802 20.7635 26.3666 20.4418 25.9933 20.2323C25.3287 19.8581 24.7164 20.135 24.5148 20.8608C24.4326 21.1601 24.4326 21.4893 24.4774 21.7961C24.5297 22.1851 24.6268 22.5817 24.7686 22.9483C26.0605 26.2106 26.8147 29.6226 27.5912 33.027C27.8526 34.1868 28.211 35.3241 28.5321 36.4689C28.6366 36.9029 28.7487 37.3219 28.9129 37.913Z" fill="white"/>
<path d="M27.3 23.6293C27.7331 24.0333 28.0617 24.3326 28.3902 24.6469C29.682 25.889 30.6453 25.859 31.7654 24.4449C32.3478 23.7041 32.8033 22.8586 33.3036 22.058C33.4828 21.7662 33.6247 21.4519 34.0354 21.1676C34.0578 21.6091 34.0727 22.0505 34.1026 22.492C34.1325 22.9634 34.1026 23.4572 34.2296 23.9061C34.5282 24.9462 35.5438 25.238 36.3652 24.5421C36.5668 24.37 36.6788 24.0932 36.746 23.981C37.0223 24.0184 37.0671 24.0184 37.082 24.0333C37.1119 24.0558 37.1418 24.1082 37.1343 24.1381C37.0372 24.5571 36.9476 24.9836 36.8281 25.4026C35.6857 29.3533 34.5432 33.3114 33.3858 37.2995C32.4374 37.3968 31.5862 37.4866 30.6976 37.5838C29.5775 32.9373 28.4649 28.3806 27.3 23.6293Z" fill="white"/>
<path d="M26.6578 42.2004C26.8893 41.34 27.076 40.6366 27.3075 39.7537C29.9957 39.619 32.8257 39.4619 35.6633 39.3347C36.3353 39.3048 36.3353 39.3497 36.9103 40.0156C36.5743 40.2625 36.2756 40.6142 35.9097 40.7414C33.3634 41.6243 30.7573 42.2603 28.0841 42.6194C27.4792 42.6943 26.9939 42.5745 26.6578 42.2004Z" fill="white"/>
<path d="M28.5694 44.1982C30.8096 43.6894 33.1095 43.1731 35.484 42.6344C36.2009 43.5398 36.2009 43.5398 37.8959 43.4724C37.5375 43.6969 37.3508 43.8465 37.1418 43.9363C36.3353 44.2655 35.5214 44.5499 35.0285 45.3804C34.9165 45.575 34.5805 45.6872 34.3266 45.7396C32.8929 46.0239 31.4592 46.2858 30.0181 46.5477C28.9204 46.7497 27.9646 46.2933 26.9789 45.9416C27.5464 45.3206 28.0617 44.7594 28.5694 44.1982Z" fill="white"/>
<path d="M39.0683 47.6326C38.9787 48.2536 38.5307 48.523 38.0528 48.6576C36.5294 49.0766 34.9987 49.4433 33.4679 49.8324C33.4306 49.8398 33.3932 49.8473 33.3484 49.8473C31.8998 49.8473 30.4512 49.8473 28.771 49.8473C29.4431 48.9794 29.8538 48.3284 30.8843 48.2835C31.8998 48.2386 32.9303 48.0291 33.9085 47.7523C35.499 47.3033 37.097 47.3258 38.7099 47.4829C38.8219 47.4979 38.9189 47.5727 39.0683 47.6326Z" fill="white"/>
<path d="M32.2209 51.6206C32.7063 51.6655 33.1916 51.7104 33.7218 51.7553C33.0273 52.5335 32.9676 52.5335 32.2209 51.6206Z" fill="white"/>
</g>
<defs>
<linearGradient id="paint0_linear_2466_644" x1="14.104" y1="27.0074" x2="50.8849" y2="27.0074" gradientUnits="userSpaceOnUse">
<stop stop-color="#F86CA7"/>
<stop offset="1" stop-color="#FF7F18"/>
</linearGradient>
<linearGradient id="paint1_linear_2466_644" x1="52.2951" y1="4.46217" x2="61.9983" y2="4.46217" gradientUnits="userSpaceOnUse">
<stop stop-color="#F86CA7"/>
<stop offset="1" stop-color="#FF7F18"/>
</linearGradient>
<linearGradient id="paint2_linear_2466_644" x1="2.45724" y1="9.27325" x2="9.91642" y2="9.27325" gradientUnits="userSpaceOnUse">
<stop stop-color="#F86CA7"/>
<stop offset="1" stop-color="#FF7F18"/>
</linearGradient>
<linearGradient id="paint3_linear_2466_644" x1="-0.00743866" y1="19.7646" x2="6.27466" y2="19.7646" gradientUnits="userSpaceOnUse">
<stop stop-color="#F86CA7"/>
<stop offset="1" stop-color="#FF7F18"/>
</linearGradient>
<linearGradient id="paint4_linear_2466_644" x1="49.403" y1="30.5339" x2="54.8713" y2="30.5339" gradientUnits="userSpaceOnUse">
<stop stop-color="#F86CA7"/>
<stop offset="1" stop-color="#FF7F18"/>
</linearGradient>
<linearGradient id="paint5_linear_2466_644" x1="53.6816" y1="14.7056" x2="60.0513" y2="14.7056" gradientUnits="userSpaceOnUse">
<stop stop-color="#F86CA7"/>
<stop offset="1" stop-color="#FF7F18"/>
</linearGradient>
<linearGradient id="paint6_linear_2466_644" x1="7.1517" y1="31.861" x2="11.923" y2="31.861" gradientUnits="userSpaceOnUse">
<stop stop-color="#F86CA7"/>
<stop offset="1" stop-color="#FF7F18"/>
</linearGradient>
<clipPath id="clip0_2466_644">
<rect width="62" height="54" fill="white"/>
</clipPath>
</defs>
</svg>
