<svg width="64" height="51" viewBox="0 0 64 51" fill="none" xmlns="http://www.w3.org/2000/svg">
<g clip-path="url(#clip0_2573_357)">
<path d="M27.8405 16.0556H32.825C34.2867 16.0556 35.3195 16.3819 35.9721 16.8989C36.5982 17.395 36.9627 18.1361 36.9629 19.1966L27.8405 16.0556ZM27.8405 16.0556V22.6181H31.9204C33.7039 22.6181 34.9735 22.258 35.7778 21.6773C36.5462 21.1226 36.9628 20.316 36.9629 19.1967L27.8405 16.0556ZM7.80967 6.6114L7.80966 6.61138C7.70205 3.54292 10.1071 0.756365 13.2925 0.756073C13.2927 0.756073 13.2928 0.756073 13.293 0.756073H50.7119C53.8975 0.756073 56.3023 3.54314 56.1947 6.61137C56.0777 9.95134 56.2247 14.346 57.3484 17.9685L57.3485 17.9686C58.4 21.3569 60.211 23.8322 63.25 24.4171V26.3414C60.2108 26.9256 58.3999 29.402 57.3484 32.7901L57.3484 32.7902C56.2248 36.4131 56.0777 40.8072 56.1947 44.1472C56.3023 47.2159 53.8975 50.0025 50.7119 50.0025H13.2935C10.1072 50.0025 7.70192 47.2153 7.80954 44.1472L7.80954 44.1472C7.92655 40.8073 7.77955 36.4131 6.65583 32.7902L6.65581 32.7901C5.60422 29.401 3.78907 26.9263 0.75 26.3415V24.4172C3.7892 23.8328 5.60429 21.3569 6.65592 17.9686L6.65597 17.9684C7.77954 14.3455 7.92668 9.95138 7.80967 6.6114ZM33.9216 39.6258C36.9879 39.6258 39.5406 38.8788 41.3423 37.425C43.1639 35.9551 44.1399 33.8238 44.1399 31.2439C44.1399 28.0088 42.278 25.5115 39.4118 24.4258C41.4115 23.2472 42.7739 21.0284 42.7739 18.6171C42.7739 16.3628 41.8721 14.4637 40.2685 13.142C38.6789 11.8318 36.4563 11.133 33.8644 11.133H23.8644C23.3789 11.133 22.9126 11.3249 22.5682 11.6676C22.2238 12.0105 22.0296 12.4763 22.0296 12.9627V37.7961C22.0296 38.2825 22.2238 38.7482 22.5682 39.0911C22.9126 39.4338 23.3789 39.6258 23.8644 39.6258H33.9216ZM33.036 34.702H27.8405V27.3165H32.786C34.7551 27.3165 36.1224 27.6815 36.9796 28.291C37.7925 28.8691 38.2326 29.7282 38.2326 30.9814C38.2326 32.2447 37.7988 33.1228 37.0162 33.7116C36.198 34.3272 34.8981 34.702 33.036 34.702Z" stroke="url(#paint0_linear_2573_357)" stroke-width="1.5"/>
</g>
<defs>
<linearGradient id="paint0_linear_2573_357" x1="0" y1="25.3793" x2="64" y2="25.3793" gradientUnits="userSpaceOnUse">
<stop stop-color="#F86CA7"/>
<stop offset="1" stop-color="#FF7F18"/>
</linearGradient>
<clipPath id="clip0_2573_357">
<rect width="64" height="50.7586" fill="white"/>
</clipPath>
</defs>
</svg>
