<svg width="64" height="64" viewBox="0 0 64 64" fill="none" xmlns="http://www.w3.org/2000/svg">
<g clip-path="url(#clip0_2573_520)">
<path d="M53.3332 0.627567C56 0.627567 58.5201 1.67388 60.4237 3.57596C62.3269 5.4795 63.3721 8 63.3721 10.6668V53.3332C63.3721 56 62.3265 58.5205 60.4237 60.4233C58.5201 62.3268 55.9996 63.3724 53.3332 63.3724H10.6668C8 63.3724 5.47986 62.3268 3.57669 60.4233C1.67314 58.5205 0.627566 56 0.627566 53.3332V10.6668C0.627566 8 1.67314 5.4795 3.57669 3.57596C5.48023 1.67388 8.00037 0.627567 10.6668 0.627567H53.3332ZM53.3332 0H10.6668C4.8 0 0 4.8 0 10.6668V53.3332C0 59.2 4.8 64 10.6668 64H53.3332C59.2 64 64 59.2 64 53.3332V10.6668C64 4.8 59.2 0 53.3332 0Z" fill="url(#paint0_linear_2573_520)"/>
<path d="M17.3908 13.9092H35.5346C38.8805 13.9092 41.5685 14.6718 43.5873 16.2092C45.606 17.7463 46.6202 20.0569 46.6202 23.1633C46.6202 25.0456 46.1601 26.6566 45.2403 27.9951C44.3194 29.3332 43.0025 30.3799 41.2866 31.1113V31.2148C43.588 31.7071 45.3336 32.794 46.5152 34.4781C47.6968 36.1725 48.2929 38.2845 48.2929 40.8368C48.2929 42.3007 48.0315 43.6711 47.5085 44.9361C46.9855 46.2113 46.1696 47.3106 45.0505 48.2297C43.9314 49.1502 42.5099 49.8831 40.7629 50.4262C39.017 50.9703 36.9455 51.2421 34.541 51.2421H17.3908V13.9092ZM23.9269 29.5428H34.5936C36.1626 29.5428 37.4693 29.1036 38.5152 28.2043C39.5611 27.305 40.0837 26.029 40.0837 24.3551C40.0837 22.4732 39.6131 21.146 38.6728 20.3827C37.7318 19.6188 36.3721 19.2322 34.5944 19.2322H23.9269V29.5428ZM23.9269 45.9092H35.4823C37.47 45.9092 39.0173 45.3958 40.1057 44.3608C41.2032 43.3361 41.7584 41.8718 41.7584 39.9894C41.7584 38.1385 41.2142 36.7269 40.1057 35.7226C38.9972 34.7191 37.47 34.2378 35.4823 34.2378H23.9269V45.9092Z" fill="url(#paint1_linear_2573_520)"/>
</g>
<defs>
<linearGradient id="paint0_linear_2573_520" x1="0" y1="32" x2="64" y2="32" gradientUnits="userSpaceOnUse">
<stop stop-color="#F86CA7"/>
<stop offset="1" stop-color="#FF7F18"/>
</linearGradient>
<linearGradient id="paint1_linear_2573_520" x1="17.3908" y1="32.5757" x2="48.2929" y2="32.5757" gradientUnits="userSpaceOnUse">
<stop stop-color="#F86CA7"/>
<stop offset="1" stop-color="#FF7F18"/>
</linearGradient>
<clipPath id="clip0_2573_520">
<rect width="64" height="64" fill="white"/>
</clipPath>
</defs>
</svg>
