<svg width="64" height="64" viewBox="0 0 64 64" fill="none" xmlns="http://www.w3.org/2000/svg">
<g clip-path="url(#clip0_2573_415)">
<path d="M64 32C64 25.671 62.1232 19.4841 58.607 14.2218C55.0908 8.95939 50.0931 4.85787 44.2459 2.43587C38.3986 0.013865 31.9645 -0.619842 25.7571 0.614885C19.5497 1.84961 13.8479 4.89732 9.3726 9.3726C4.89732 13.8479 1.84961 19.5497 0.614885 25.7571C-0.619842 31.9645 0.013865 38.3986 2.43587 44.2459C4.85787 50.0931 8.95939 55.0908 14.2218 58.607C19.4841 62.1232 25.671 64 32 64C40.4835 63.9889 48.6164 60.6139 54.6152 54.6152C60.6139 48.6164 63.9889 40.4835 64 32ZM47.5327 50.3949C49.7617 44.8594 50.9328 38.955 50.9851 32.9878H61.9751C61.7356 40.4068 58.7439 47.4711 53.5825 52.8057C51.6258 51.8594 49.604 51.0538 47.5327 50.3949ZM10.4177 52.8057C5.25628 47.4711 2.26462 40.4068 2.02511 32.9878H13.0151C13.0675 38.955 14.2385 44.8594 16.4675 50.3949C14.3962 51.0538 12.3745 51.8594 10.4177 52.8057ZM10.4177 11.1943C12.3745 12.1406 14.3963 12.9463 16.4677 13.6051C14.2416 19.1329 13.0707 25.0288 13.0157 30.9878H2.02571C2.27106 23.5775 5.26206 16.5228 10.4177 11.1943ZM53.5823 11.1943C58.738 16.5228 61.729 23.5775 61.9743 30.9878H50.9843C50.9293 25.0288 49.7585 19.1329 47.5323 13.6051C49.6037 12.9463 51.6255 12.1406 53.5823 11.1943ZM48.9855 30.9878H33V15.9721C37.2788 15.9 41.5318 15.2933 45.66 14.166C47.8093 19.5164 48.9373 25.2221 48.9855 30.9878ZM33 13.9722V2.05621C37.706 2.54051 41.9012 6.41941 44.8151 12.321C40.9579 13.3468 36.9906 13.9013 33 13.9722ZM31 2.05621V13.9722C27.0094 13.9013 23.0421 13.3468 19.1849 12.321C22.0988 6.41941 26.294 2.54051 31 2.05621ZM31 15.9721V30.9878H15.0145C15.0627 25.2221 16.1907 19.5164 18.34 14.166C22.4683 15.2933 26.7212 15.9 31 15.9721ZM15.0142 32.9878H31V48.0278C26.7212 48.1 22.4683 48.7067 18.34 49.834C16.1878 44.476 15.0597 38.7618 15.0142 32.9878ZM31 50.0278V61.9438C26.294 61.4595 22.0988 57.5806 19.1849 51.679C23.0421 50.6532 27.0094 50.0988 31 50.0278ZM33 61.9438V50.0278C36.9906 50.0988 40.9579 50.6532 44.8151 51.679C41.9012 57.5806 37.706 61.46 33 61.9438ZM33 48.0279V32.9879H48.9858C48.9403 38.7618 47.8122 44.476 45.66 49.834C41.5318 48.7068 37.2788 48.1 33 48.0279ZM52.0481 9.70511C50.3152 10.5088 48.5318 11.1989 46.7092 11.7709C45.195 8.46419 42.9821 5.52485 40.2231 3.15521C44.612 4.40982 48.6565 6.65006 52.0481 9.70511ZM17.2908 11.7709C15.4683 11.1989 13.6848 10.5088 11.9519 9.70511C15.3435 6.65002 19.388 4.40975 23.7769 3.15511C21.0179 5.52478 18.8051 8.46415 17.2908 11.7709ZM11.9519 54.2949C13.6848 53.4912 15.4683 52.8012 17.2908 52.2291C18.8051 55.5358 21.0179 58.4752 23.7769 60.8448C19.388 59.5902 15.3435 57.35 11.9519 54.2949ZM46.7092 52.2291C48.5318 52.8012 50.3152 53.4912 52.0481 54.2949C48.6565 57.35 44.612 59.5903 40.2231 60.8449C42.9822 58.4753 45.195 55.5359 46.7092 52.2291Z" fill="url(#paint0_linear_2573_415)"/>
</g>
<defs>
<linearGradient id="paint0_linear_2573_415" x1="0" y1="32" x2="64" y2="32" gradientUnits="userSpaceOnUse">
<stop stop-color="#F86CA7"/>
<stop offset="1" stop-color="#FF7F18"/>
</linearGradient>
<clipPath id="clip0_2573_415">
<rect width="64" height="64" fill="white"/>
</clipPath>
</defs>
</svg>
