<svg width="64" height="64" viewBox="0 0 64 64" fill="none" xmlns="http://www.w3.org/2000/svg">
<g clip-path="url(#clip0_2573_395)">
<path d="M7.01322 28.5667L7.01332 28.5678C7.59754 35.1974 8.14846 41.3869 8.58199 46.2575C9.11281 52.2212 9.46764 56.2077 9.49213 56.6039L9.5371 57.1136L20.6379 60.1835L20.6383 60.1836L31.9733 63.326L34.1076 62.7463C34.8213 62.5516 36.802 62.0056 39.3126 61.3134C41.2071 60.7911 43.4034 60.1856 45.5845 59.5851M7.01322 28.5667L45.757 60.2118M7.01322 28.5667C6.34393 21.1191 5.73874 14.2626 5.30089 9.21486C5.08196 6.6909 4.90491 4.61962 4.78261 3.15293C4.72145 2.41945 4.67405 1.83801 4.64197 1.42706C4.62592 1.22141 4.61381 1.05975 4.60575 0.943593C4.59808 0.833186 4.59554 0.783007 4.59496 0.77159C4.59487 0.76964 4.59482 0.768821 4.59482 0.769025V0.65H3.94482V0H4.59482L7.01322 28.5667ZM45.5845 59.5851L45.757 60.2118M45.5845 59.5851C45.5845 59.5851 45.5845 59.5852 45.5845 59.5852L45.757 60.2118M45.5845 59.5851C49.5204 58.5013 51.8016 57.8512 53.1131 57.4129C53.7744 57.1919 54.1509 57.0369 54.3609 56.922C54.397 56.9022 54.4247 56.8855 54.4454 56.8721M45.757 60.2118C53.6182 58.0472 54.9568 57.5915 55.0708 57.1073M54.4454 56.8721C54.4386 56.9337 54.4347 56.9648 54.4335 56.9753C54.4329 56.9814 54.4332 56.9806 54.4344 56.9747L55.0708 57.1073M54.4454 56.8721C54.4864 56.8456 54.5006 56.8316 54.5005 56.8315C54.5005 56.8312 54.4585 56.8715 54.438 56.9584L55.0708 57.1073M54.4454 56.8721L55.0708 57.1073M50.3597 12.966L50.3572 12.9809C50.2489 13.6309 49.5114 21.6772 48.7117 30.9592L48.7115 30.9614C48.2985 35.5753 47.9211 39.7915 47.6397 42.8613C47.4991 44.396 47.3823 45.6456 47.2971 46.5155C47.2545 46.9501 47.2196 47.2923 47.1934 47.5288C47.1804 47.6463 47.169 47.7421 47.1595 47.8116C47.155 47.8451 47.1498 47.8802 47.1442 47.9112C47.143 47.9179 47.1412 47.9272 47.1389 47.9381C47.1365 47.9499 47.1334 47.9637 47.1295 47.9782C47.1261 47.9912 47.1187 48.0183 47.1063 48.0509C47.1056 48.0529 47.0773 48.1373 47.005 48.228L47.0051 48.228C46.9964 48.2389 46.9876 48.2491 46.9788 48.2588C46.9719 48.2664 46.9647 48.2741 46.9572 48.2816L46.9571 48.2816C46.8986 48.3401 46.8444 48.3727 46.8319 48.3803L46.8303 48.3812C46.8126 48.392 46.7962 48.4009 46.7828 48.4078C46.7743 48.4121 46.767 48.4157 46.7613 48.4184C46.7312 48.4327 46.702 48.4444 46.6811 48.4524C46.6369 48.4695 46.583 48.4882 46.5256 48.5073C46.4084 48.5463 46.2455 48.5972 46.047 48.6574C45.6483 48.7784 45.0874 48.9424 44.4199 49.1343C43.0838 49.5182 41.3104 50.0164 39.5291 50.5098C37.7478 51.0032 35.9566 51.4925 34.5851 51.8585C33.8997 52.0415 33.3169 52.1942 32.8918 52.3015C32.6798 52.355 32.5035 52.3981 32.372 52.4282C32.3068 52.4431 32.2479 52.4558 32.199 52.4652L32.1949 52.466C32.1656 52.4717 32.0815 52.488 32 52.488C31.9303 52.488 31.8646 52.4766 31.8433 52.4728L31.8411 52.4724C31.8062 52.4664 31.7671 52.4585 31.7268 52.4499C31.6455 52.4325 31.5397 52.4078 31.4145 52.3774C31.1631 52.3164 30.8171 52.2283 30.3973 52.119C29.5571 51.9001 28.4109 51.5933 27.1122 51.2405C24.5146 50.535 21.3008 49.6443 18.6919 48.903L18.6862 48.9013L17.2336 48.4741L16.8097 48.3494L16.7697 47.9093L16.4279 44.1496L16.4274 44.144C16.2565 42.0648 16.0294 39.5676 15.9167 38.582L15.9155 38.5709L15.9156 38.5708L15.7447 36.8049L15.6757 36.0923H16.3916H19.9519C20.0442 36.0923 20.1346 36.0923 20.223 36.0923C21.0857 36.0919 21.7698 36.0917 22.2954 36.1233C22.8523 36.1568 23.3645 36.2293 23.7548 36.471C24.2137 36.7552 24.39 37.1905 24.4626 37.6348C24.5211 37.993 24.5255 38.4477 24.5304 38.9535C24.531 39.0201 24.5317 39.0876 24.5325 39.1559L24.5326 39.1633C24.5325 39.7499 24.6141 40.6815 24.6955 41.2265L24.7963 41.8316L28.2916 42.7501L28.2927 42.7504L31.9994 43.7315L35.6755 42.7512C35.6757 42.7512 35.6759 42.7511 35.6761 42.7511C36.7291 42.4665 37.6968 42.2032 38.4013 42.0111C38.6957 41.9308 38.9441 41.8629 39.1336 41.8111C39.1533 41.6354 39.177 41.4093 39.2037 41.1423C39.2709 40.4699 39.3561 39.5478 39.4413 38.5397C39.4413 38.5395 39.4413 38.5392 39.4413 38.5389L40.089 38.5937C40.2599 36.5429 40.4593 34.5492 40.5447 34.0935L50.3597 12.966ZM50.3597 12.966L50.3615 12.9509M50.3597 12.966L50.3615 12.9509M50.3615 12.9509L50.5039 11.7546L50.5905 11.0278H49.8585H14.1415H13.4122L13.4958 11.7523L13.6663 13.2296C13.7066 13.6195 13.7597 14.1825 13.817 14.7887L13.8255 14.8791C13.8858 15.5172 13.9499 16.1938 14.007 16.7512L14.1774 18.7677L14.2271 19.3553L14.8167 19.3629L28.0593 19.5338C28.0595 19.5338 28.0598 19.5338 28.06 19.5338C31.7079 19.5908 35.0504 19.6193 37.5033 19.6229C38.7294 19.6246 39.7356 19.6202 40.4473 19.6099C40.7264 19.6058 40.9628 19.6009 41.1507 19.5949C41.1423 19.7806 41.1241 20.0226 41.0941 20.3303L41.0938 20.3327C41.0089 21.2391 40.8384 22.8586 40.7245 23.9123L40.7244 23.9123L40.7232 23.9251L40.6047 25.269H15.5372H14.8433L14.8886 25.9614L15.0879 29.0091L15.088 29.0099C15.1454 29.8713 15.2172 30.7189 15.2857 31.396C15.3504 32.0365 15.4172 32.5818 15.4734 32.8155L15.6141 33.4625L15.7254 33.9744M50.3615 12.9509L15.7254 33.9744M15.7254 33.9744H16.2492M15.7254 33.9744H16.2492M16.2492 33.9744H39.9057H16.2492ZM59.404 0.65H60.0546C60.055 0.640114 60.0552 0.632309 60.0552 0.626613V0H59.4052V0.626613L59.4052 0.626712C59.4051 0.627625 59.4048 0.634913 59.404 0.65Z" stroke="url(#paint0_linear_2573_395)" stroke-width="1.3"/>
</g>
<defs>
<linearGradient id="paint0_linear_2573_395" x1="3.94482" y1="32" x2="60.0552" y2="32" gradientUnits="userSpaceOnUse">
<stop stop-color="#F86CA7"/>
<stop offset="1" stop-color="#FF7F18"/>
</linearGradient>
<clipPath id="clip0_2573_395">
<rect width="64" height="64" fill="white"/>
</clipPath>
</defs>
</svg>
