<svg width="64" height="64" viewBox="0 0 64 64" fill="none" xmlns="http://www.w3.org/2000/svg">
<path d="M3.425 2.25C2.125 2.5125 1.0125 3.41251 0.4125 4.6875L0.0625 5.4375V27.75V50.0625L0.4125 50.8125C0.875 51.7875 1.6 52.525 2.55 52.95C3.2125 53.25 3.5125 53.3 4.8375 53.35L6.375 53.4125V52.325V51.25H5.225C3.4875 51.2375 2.8125 50.925 2.3625 49.9375C2.1375 49.4625 2.125 48.525 2.125 27.75C2.125 6.97501 2.1375 6.03751 2.3625 5.5625C2.6375 4.95 2.9625 4.65001 3.5875 4.42501C4.3 4.17501 51.2 4.17501 51.9125 4.42501C52.975 4.8125 53.275 5.375 53.35 7.15001L53.4125 8.5H54.45H55.5V7.46251C55.5 5.45 55.1625 4.40001 54.1875 3.4375C53.525 2.7625 52.9 2.4375 51.9375 2.2625C51.0625 2.10001 4.2375 2.08751 3.425 2.25Z" fill="url(#paint0_linear_2558_105)"/>
<path d="M4.25 7.4375V8.5H5.3125H6.375V7.4375V6.375H5.3125H4.25V7.4375Z" fill="url(#paint1_linear_2558_105)"/>
<path d="M8.5875 6.4625C8.5375 6.5 8.5 6.9875 8.5 7.525V8.5H9.5625H10.625V7.4375V6.375H9.65C9.1125 6.375 8.625 6.4125 8.5875 6.4625Z" fill="url(#paint2_linear_2558_105)"/>
<path d="M12.8375 6.4625C12.7875 6.5 12.75 6.9875 12.75 7.525V8.5H13.8125H14.875V7.4375V6.375H13.9C13.3625 6.375 12.875 6.4125 12.8375 6.4625Z" fill="url(#paint3_linear_2558_105)"/>
<path d="M12.175 10.75C10.3875 11.0125 8.9625 12.425 8.625 14.2625C8.5375 14.725 8.5125 22.3375 8.525 36.7625L8.5625 58.5625L8.9125 59.3125C9.4875 60.55 10.375 61.3125 11.65 61.675C12.25 61.8625 14.825 61.875 36.5625 61.85L60.8125 61.8125L61.4 61.5375C62.125 61.2125 63.05 60.3625 63.4375 59.7C63.6 59.4125 63.7875 58.875 63.875 58.5C63.975 57.9875 64 52.075 63.975 35.875L63.9375 13.9375L63.6 13.225C62.9625 11.8625 61.7375 10.9625 60.225 10.7375C59.275 10.6125 13.1 10.6125 12.175 10.75ZM60.9875 13.2375C61.2125 13.4 61.5125 13.7625 61.6375 14.05C61.8625 14.5375 61.875 15.375 61.875 36.2875C61.875 54.25 61.85 58.075 61.7 58.4125C61.4875 58.95 60.725 59.6 60.225 59.6875C60 59.725 49.0625 59.7375 35.925 59.725L12.0375 59.6875L11.5875 59.3375C11.3375 59.15 11.025 58.8125 10.9 58.5875C10.7 58.2125 10.6875 56.875 10.65 36.6875C10.625 21.3875 10.65 15.0125 10.75 14.5625C10.9 13.85 11.15 13.5125 11.7625 13.1375L12.1875 12.875L36.375 12.9L60.5625 12.9375L60.9875 13.2375Z" fill="url(#paint4_linear_2558_105)"/>
<path d="M12.775 16.025L12.8125 17.0625L13.85 17.1L14.875 17.1375V16.0625V15H13.8125H12.7375L12.775 16.025Z" fill="url(#paint5_linear_2558_105)"/>
<path d="M17.125 16.0625V17.1375L18.1625 17.1L19.1875 17.0625L19.225 16.025L19.2625 15H18.1875H17.125V16.0625Z" fill="url(#paint6_linear_2558_105)"/>
<path d="M21.375 16.0625V17.1375L22.4125 17.1L23.4375 17.0625L23.475 16.025L23.5125 15H22.4375H21.375V16.0625Z" fill="url(#paint7_linear_2558_105)"/>
<path d="M12.775 20.275L12.8125 21.3125L36.2875 21.35L59.75 21.375V20.3125V19.25H36.25H12.7375L12.775 20.275Z" fill="url(#paint8_linear_2558_105)"/>
<path d="M32.4 23.75C32.05 24.0875 32 24.2875 31.9625 25.975L31.9375 27.4L30.9625 27.775L29.9875 28.15L28.8875 27.1C27.7125 25.9625 27.325 25.7625 26.775 26.05C26.5875 26.15 25.35 27.325 24.0375 28.65C21.0625 31.65 21.125 31.4 22.7625 33.0625L23.9 34.225L23.5 35.225L23.1 36.225L21.5 36.275C20 36.3125 19.875 36.3375 19.575 36.6125L19.25 36.9125V40.5625V44.2125L19.575 44.5125C19.875 44.7875 20 44.8125 21.5 44.85L23.1125 44.9L23.5125 45.9L23.9125 46.8875L22.7625 48.05C21.575 49.2625 21.475 49.475 21.8 50.1C21.9 50.2875 23.0375 51.4875 24.3375 52.775C26.6 55.025 26.725 55.125 27.1875 55.125C27.6375 55.125 27.775 55.0375 28.8125 54L29.9375 52.875L30.9375 53.3125L31.9375 53.7375L32 55.3875C32.0625 56.9875 32.075 57.025 32.4125 57.325L32.7625 57.625H36.1875C39.7625 57.625 40.1 57.575 40.3625 57.075C40.4375 56.9375 40.5125 56.125 40.525 55.275L40.5625 53.7375L41.5625 53.325L42.5625 52.9125L43.7 54.0125C45.4125 55.675 45.1875 55.7375 48.3375 52.5875C51.4875 49.45 51.4125 49.7 49.7375 47.95L48.6125 46.7625L48.85 46.2875C48.9875 46.025 49.1625 45.6125 49.2375 45.35L49.3875 44.9L50.975 44.85C52.725 44.8 53.0375 44.7 53.25 44.075C53.425 43.5625 53.4125 37.525 53.2375 37C53.025 36.4125 52.5375 36.25 50.85 36.25H49.4375L49.025 35.225L48.6125 34.2125L49.75 33.0625C51.375 31.4 51.4625 31.6625 48.325 28.5125C45.15 25.3375 45.4125 25.4125 43.7125 27.1C42.825 27.9875 42.525 28.2125 42.375 28.125C42.275 28.0625 41.8125 27.8625 41.35 27.675L40.5 27.35V25.7375C40.5 24.1375 40.5 24.1125 40.175 23.8125L39.8375 23.5H36.25C32.825 23.5 32.6625 23.5125 32.4 23.75ZM38.4 27.1125C38.45 28.8375 38.525 28.9875 39.55 29.325C39.9 29.4375 40.7375 29.775 41.4125 30.0875C42.325 30.5125 42.7125 30.625 42.9625 30.5625C43.15 30.525 43.75 30.0375 44.3125 29.5L45.325 28.5125L46.8125 30L48.3 31.4875L47.275 32.5375C46.0625 33.7875 46.025 33.9375 46.675 35.225C46.9 35.6875 47.2125 36.4375 47.3625 36.9C47.825 38.2875 47.8375 38.3 49.65 38.375L51.1875 38.4375L51.225 40.5125L51.25 42.6L49.7375 42.6375C48.275 42.6875 48.2125 42.7 47.9375 43.025C47.775 43.2125 47.525 43.7375 47.375 44.2125C47.2125 44.675 46.9 45.4375 46.675 45.9C46.0375 47.175 46.075 47.3125 47.275 48.575L48.3 49.6375L46.8125 51.125L45.325 52.625L44.2375 51.5625C43.4875 50.8125 43.0625 50.5 42.85 50.5C42.6875 50.5 42.1 50.7125 41.55 50.975C41.0125 51.25 40.1875 51.5875 39.7375 51.7375C38.5 52.1375 38.45 52.2375 38.4 54.0125L38.35 55.5H36.2375H34.125V54.125C34.125 53.375 34.0625 52.625 33.9875 52.45C33.85 52.1625 33.175 51.7875 32.375 51.5625C32.2 51.525 31.575 51.25 30.975 50.975C30.15 50.5875 29.8125 50.4875 29.55 50.55C29.3625 50.6 28.75 51.0875 28.1875 51.625L27.175 52.6125L25.6875 51.125L24.2 49.6375L25.225 48.5875C26.45 47.325 26.5 47.1125 25.825 45.775C25.6 45.3125 25.2875 44.575 25.1375 44.125C24.9875 43.675 24.7875 43.2125 24.7 43.0875C24.45 42.7625 23.825 42.625 22.5375 42.625H21.375V40.5V38.375H22.85C24.6125 38.375 24.65 38.35 25.1875 36.8125C25.375 36.2625 25.6875 35.4875 25.8875 35.1C26.4625 33.95 26.4125 33.7625 25.225 32.5375L24.2 31.4875L25.6875 30L27.175 28.5125L28.2 29.5C28.775 30.05 29.375 30.525 29.55 30.575C29.775 30.625 30.2125 30.4875 31.0875 30.0875C31.7625 29.775 32.6125 29.425 32.9625 29.3125C34 28.9875 34.125 28.7375 34.125 27.05V25.625H36.2375H38.35L38.4 27.1125Z" fill="url(#paint9_linear_2558_105)"/>
<path d="M34.475 33.3125C32.7625 33.7375 30.9625 35.025 29.975 36.55C28.8875 38.25 28.5375 40.7625 29.125 42.6875C30.05 45.6875 32.675 47.7625 35.775 47.9625C37.125 48.05 38.1375 47.8625 39.375 47.3C41.875 46.15 43.5 43.775 43.7 41C43.9 38.3625 42.4125 35.55 40.0625 34.1375C38.55 33.225 36.2625 32.8875 34.475 33.3125ZM38.5 35.775C40.675 36.8125 41.8625 39.0125 41.5 41.3375C40.825 45.625 35.6625 47.3375 32.55 44.3125C30.525 42.325 30.45 39.0375 32.3875 36.9375C33.4625 35.7625 34.775 35.2375 36.4375 35.2875C37.4375 35.3125 37.675 35.375 38.5 35.775Z" fill="url(#paint10_linear_2558_105)"/>
<path d="M12.8375 24.5875C12.7875 24.625 12.75 25.1125 12.75 25.65V26.625H17.0625H21.3875L21.35 25.5875L21.3125 24.5625L17.1125 24.525C14.8125 24.5125 12.8875 24.5375 12.8375 24.5875Z" fill="url(#paint11_linear_2558_105)"/>
<path d="M12.775 29.9L12.8125 30.9375H16H19.1875L19.225 29.9L19.2625 28.875H16H12.7375L12.775 29.9Z" fill="url(#paint12_linear_2558_105)"/>
<path d="M53.375 56.5625V57.625H56.5625H59.75V56.5625V55.5H56.5625H53.375V56.5625Z" fill="url(#paint13_linear_2558_105)"/>
<defs>
<linearGradient id="paint0_linear_2558_105" x1="0.0625" y1="27.7734" x2="55.5" y2="27.7734" gradientUnits="userSpaceOnUse">
<stop stop-color="#F86CA7"/>
<stop offset="1" stop-color="#FF7F18"/>
</linearGradient>
<linearGradient id="paint1_linear_2558_105" x1="4.25" y1="7.4375" x2="6.375" y2="7.4375" gradientUnits="userSpaceOnUse">
<stop stop-color="#F86CA7"/>
<stop offset="1" stop-color="#FF7F18"/>
</linearGradient>
<linearGradient id="paint2_linear_2558_105" x1="8.5" y1="7.4375" x2="10.625" y2="7.4375" gradientUnits="userSpaceOnUse">
<stop stop-color="#F86CA7"/>
<stop offset="1" stop-color="#FF7F18"/>
</linearGradient>
<linearGradient id="paint3_linear_2558_105" x1="12.75" y1="7.4375" x2="14.875" y2="7.4375" gradientUnits="userSpaceOnUse">
<stop stop-color="#F86CA7"/>
<stop offset="1" stop-color="#FF7F18"/>
</linearGradient>
<linearGradient id="paint4_linear_2558_105" x1="8.52198" y1="36.2524" x2="63.984" y2="36.2524" gradientUnits="userSpaceOnUse">
<stop stop-color="#F86CA7"/>
<stop offset="1" stop-color="#FF7F18"/>
</linearGradient>
<linearGradient id="paint5_linear_2558_105" x1="12.7375" y1="16.0687" x2="14.875" y2="16.0687" gradientUnits="userSpaceOnUse">
<stop stop-color="#F86CA7"/>
<stop offset="1" stop-color="#FF7F18"/>
</linearGradient>
<linearGradient id="paint6_linear_2558_105" x1="17.125" y1="16.0687" x2="19.2625" y2="16.0687" gradientUnits="userSpaceOnUse">
<stop stop-color="#F86CA7"/>
<stop offset="1" stop-color="#FF7F18"/>
</linearGradient>
<linearGradient id="paint7_linear_2558_105" x1="21.375" y1="16.0687" x2="23.5125" y2="16.0687" gradientUnits="userSpaceOnUse">
<stop stop-color="#F86CA7"/>
<stop offset="1" stop-color="#FF7F18"/>
</linearGradient>
<linearGradient id="paint8_linear_2558_105" x1="12.7375" y1="20.3125" x2="59.75" y2="20.3125" gradientUnits="userSpaceOnUse">
<stop stop-color="#F86CA7"/>
<stop offset="1" stop-color="#FF7F18"/>
</linearGradient>
<linearGradient id="paint9_linear_2558_105" x1="19.25" y1="40.5625" x2="53.3752" y2="40.5625" gradientUnits="userSpaceOnUse">
<stop stop-color="#F86CA7"/>
<stop offset="1" stop-color="#FF7F18"/>
</linearGradient>
<linearGradient id="paint10_linear_2558_105" x1="28.8424" y1="40.5568" x2="43.718" y2="40.5568" gradientUnits="userSpaceOnUse">
<stop stop-color="#F86CA7"/>
<stop offset="1" stop-color="#FF7F18"/>
</linearGradient>
<linearGradient id="paint11_linear_2558_105" x1="12.75" y1="25.5734" x2="21.3875" y2="25.5734" gradientUnits="userSpaceOnUse">
<stop stop-color="#F86CA7"/>
<stop offset="1" stop-color="#FF7F18"/>
</linearGradient>
<linearGradient id="paint12_linear_2558_105" x1="12.7375" y1="29.9063" x2="19.2625" y2="29.9062" gradientUnits="userSpaceOnUse">
<stop stop-color="#F86CA7"/>
<stop offset="1" stop-color="#FF7F18"/>
</linearGradient>
<linearGradient id="paint13_linear_2558_105" x1="53.375" y1="56.5625" x2="59.75" y2="56.5625" gradientUnits="userSpaceOnUse">
<stop stop-color="#F86CA7"/>
<stop offset="1" stop-color="#FF7F18"/>
</linearGradient>
</defs>
</svg>
