<svg width="64" height="64" viewBox="0 0 64 64" fill="none" xmlns="http://www.w3.org/2000/svg">
<path d="M25.2512 44.5361C25.0094 44.5361 24.7659 44.453 24.5672 44.2837L17.73 38.4618C17.4941 38.2607 17.3585 37.9671 17.3585 37.657C17.3585 37.3474 17.4947 37.0538 17.73 36.8527L24.5672 31.0308C25.0112 30.6523 25.6781 30.7059 26.0566 31.1499C26.4346 31.5945 26.3815 32.2613 25.9369 32.6393L20.0448 37.657L25.9369 42.6747C26.3815 43.0532 26.4346 43.7201 26.0566 44.164C25.8473 44.4099 25.5501 44.5361 25.2512 44.5361Z" fill="url(#paint0_linear_2573_429)"/>
<path d="M38.7488 44.5361C38.4499 44.5361 38.1527 44.4099 37.944 44.164C37.5654 43.7201 37.6191 43.0532 38.0631 42.6747L43.9552 37.657L38.0631 32.6393C37.6191 32.2613 37.5654 31.5945 37.944 31.1499C38.3219 30.7059 38.9894 30.6523 39.4328 31.0308L46.27 36.8527C46.5059 37.0538 46.6415 37.3474 46.6415 37.657C46.6415 37.9671 46.5059 38.2607 46.27 38.4618L39.4328 44.2837C39.2341 44.453 38.9906 44.5361 38.7488 44.5361Z" fill="url(#paint1_linear_2573_429)"/>
<path d="M29.5796 48.9029C29.5071 48.9029 29.434 48.8952 29.3603 48.8799C28.7895 48.7596 28.4239 48.1988 28.5442 47.6281L32.8054 27.3964C32.9257 26.8256 33.4858 26.46 34.0572 26.5803C34.6279 26.7006 34.9935 27.2608 34.8732 27.8321L30.612 48.0638C30.5071 48.5615 30.0684 48.9029 29.5796 48.9029Z" fill="url(#paint2_linear_2573_429)"/>
<path d="M56.9057 59.9253H7.09434C3.18278 59.9253 0 56.7431 0 52.8309V10.5538C0 6.64226 3.18278 3.45947 7.09434 3.45947H56.9057C60.8172 3.45947 64 6.64226 64 10.5538V52.8309C64 56.7431 60.8172 59.9253 56.9057 59.9253ZM7.09434 5.57268C4.34788 5.57268 2.11321 7.80735 2.11321 10.5538V52.8309C2.11321 55.5774 4.34788 57.8121 7.09434 57.8121H56.9057C59.6521 57.8121 61.8868 55.5774 61.8868 52.8309V10.5538C61.8868 7.80735 59.6521 5.57268 56.9057 5.57268H7.09434Z" fill="url(#paint3_linear_2573_429)"/>
<path d="M62.9434 20.3787H1.0566C0.472877 20.3787 0 19.9058 0 19.3221C0 18.739 0.472877 18.2655 1.0566 18.2655H62.9434C63.5271 18.2655 64 18.739 64 19.3221C64 19.9058 63.5271 20.3787 62.9434 20.3787Z" fill="url(#paint4_linear_2573_429)"/>
<path d="M18.0531 15.3227C16.2099 15.3227 14.7093 13.8221 14.7093 11.9789C14.7093 10.1352 16.2099 8.63519 18.0531 8.63519C19.8968 8.63519 21.3968 10.1352 21.3968 11.9789C21.3968 13.8221 19.8968 15.3227 18.0531 15.3227ZM18.0531 10.7484C17.375 10.7484 16.8225 11.3003 16.8225 11.9789C16.8225 12.6576 17.375 13.2095 18.0531 13.2095C18.7317 13.2095 19.2836 12.6576 19.2836 11.9789C19.2836 11.3003 18.7317 10.7484 18.0531 10.7484Z" fill="url(#paint5_linear_2573_429)"/>
<path d="M7.77948 15.2902C5.93573 15.2902 4.43573 13.7902 4.43573 11.9465C4.43573 10.1027 5.93573 8.60272 7.77948 8.60272C9.62323 8.60272 11.1232 10.1027 11.1232 11.9465C11.1232 13.7902 9.62323 15.2902 7.77948 15.2902ZM7.77948 10.7159C7.10141 10.7159 6.54894 11.2684 6.54894 11.9465C6.54894 12.6251 7.10141 13.177 7.77948 13.177C8.45814 13.177 9.01002 12.6251 9.01002 11.9465C9.01002 11.2684 8.45814 10.7159 7.77948 10.7159Z" fill="url(#paint6_linear_2573_429)"/>
<path d="M28.3267 15.3545C26.4835 15.3545 24.9835 13.8545 24.9835 12.0108C24.9835 10.1676 26.4835 8.6676 28.3267 8.6676C30.1704 8.6676 31.6704 10.1676 31.6704 12.0108C31.6704 13.8545 30.1704 15.3545 28.3267 15.3545ZM28.3267 10.7802C27.6486 10.7802 27.0967 11.3321 27.0967 12.0108C27.0967 12.6894 27.6486 13.2413 28.3267 13.2413C29.0053 13.2413 29.5572 12.6894 29.5572 12.0108C29.5572 11.3321 29.0053 10.7802 28.3267 10.7802Z" fill="url(#paint7_linear_2573_429)"/>
<defs>
<linearGradient id="paint0_linear_2573_429" x1="17.3585" y1="37.6573" x2="26.3086" y2="37.6573" gradientUnits="userSpaceOnUse">
<stop stop-color="#F86CA7"/>
<stop offset="1" stop-color="#FF7F18"/>
</linearGradient>
<linearGradient id="paint1_linear_2573_429" x1="37.6917" y1="37.6573" x2="46.6415" y2="37.6573" gradientUnits="userSpaceOnUse">
<stop stop-color="#F86CA7"/>
<stop offset="1" stop-color="#FF7F18"/>
</linearGradient>
<linearGradient id="paint2_linear_2573_429" x1="28.5213" y1="37.7301" x2="34.8961" y2="37.7301" gradientUnits="userSpaceOnUse">
<stop stop-color="#F86CA7"/>
<stop offset="1" stop-color="#FF7F18"/>
</linearGradient>
<linearGradient id="paint3_linear_2573_429" x1="0" y1="31.6924" x2="64" y2="31.6924" gradientUnits="userSpaceOnUse">
<stop stop-color="#F86CA7"/>
<stop offset="1" stop-color="#FF7F18"/>
</linearGradient>
<linearGradient id="paint4_linear_2573_429" x1="0" y1="19.3221" x2="64" y2="19.3221" gradientUnits="userSpaceOnUse">
<stop stop-color="#F86CA7"/>
<stop offset="1" stop-color="#FF7F18"/>
</linearGradient>
<linearGradient id="paint5_linear_2573_429" x1="14.7093" y1="11.9789" x2="21.3968" y2="11.9789" gradientUnits="userSpaceOnUse">
<stop stop-color="#F86CA7"/>
<stop offset="1" stop-color="#FF7F18"/>
</linearGradient>
<linearGradient id="paint6_linear_2573_429" x1="4.43573" y1="11.9465" x2="11.1232" y2="11.9465" gradientUnits="userSpaceOnUse">
<stop stop-color="#F86CA7"/>
<stop offset="1" stop-color="#FF7F18"/>
</linearGradient>
<linearGradient id="paint7_linear_2573_429" x1="24.9835" y1="12.0111" x2="31.6704" y2="12.0111" gradientUnits="userSpaceOnUse">
<stop stop-color="#F86CA7"/>
<stop offset="1" stop-color="#FF7F18"/>
</linearGradient>
</defs>
</svg>
