<svg width="80" height="80" viewBox="0 0 80 80" fill="none" xmlns="http://www.w3.org/2000/svg">
<path d="M60.1556 36.3734C60.3207 35.9797 60.5112 35.5479 60.5747 34.9255C60.6001 34.608 60.5493 34.227 60.4223 33.9095C60.2953 33.5793 60.1302 33.3507 59.9778 33.1474C59.673 32.7664 59.4063 32.487 59.1523 32.1949C58.6189 31.598 58.0981 31.0391 57.7933 30.5057C57.6409 30.239 57.552 29.9977 57.552 29.8199C57.5393 29.6421 57.5774 29.5151 57.679 29.35L57.7806 29.223L57.9711 28.9944L58.3521 28.5371C58.6697 28.1434 58.7078 28.1434 58.8221 28.0799C58.9999 27.9529 59.6984 28.1307 60.7017 28.2577C61.1971 28.3085 61.8829 28.245 62.4671 27.9021C63.0514 27.5846 63.4324 27.102 63.6991 26.6193C64.2071 25.6541 64.3341 24.7142 64.3468 23.7998C64.3468 22.8727 64.2198 21.9582 63.8134 21.0311C63.4324 20.0785 62.5052 19.1514 61.3749 18.872C60.2572 18.6179 59.4317 18.7958 58.8729 18.7196C58.5934 18.6942 58.3775 18.6307 58.1743 18.529C58.1489 18.529 58.0092 18.402 57.8314 18.1099C57.4504 17.5003 57.1202 16.8907 56.8916 16.281C56.663 15.6841 56.5741 15.0872 56.6503 14.6808C56.6884 14.4776 56.7646 14.3251 56.8789 14.1727C57.0059 14.0076 57.3107 13.7028 57.5647 13.4488C58.0727 12.8773 58.7967 12.2295 59.0761 10.9976C59.2031 10.388 59.0761 9.70212 58.8475 9.2068C58.6315 8.69877 58.3267 8.31776 58.0219 7.98754C57.7171 7.65732 57.3996 7.39061 57.1202 7.1493L56.32 6.46347C55.7612 6.01895 55.2151 5.37121 54.0339 5.041C53.4497 4.88859 52.7893 4.9775 52.3066 5.1553C51.824 5.33311 51.443 5.57442 51.1128 5.81574C50.4016 6.32376 49.9316 6.84448 49.4998 7.1874C49.0426 7.55572 48.7886 7.63192 48.6235 7.59382C48.4965 7.56842 48.433 7.55572 48.1535 7.40331C47.8995 7.26361 47.6582 7.1112 47.4296 6.95879C46.5152 6.34916 45.7912 5.48552 45.7277 4.91399C45.6642 4.58378 45.7531 4.01225 45.715 3.22481C45.6896 2.83109 45.6007 2.34847 45.3467 1.87855C45.08 1.38322 44.7117 0.989504 44.318 0.760893C43.5813 0.316371 42.9336 0.176665 42.3113 0.0877606C41.6889 -0.0011437 41.1047 -0.0138444 40.5205 0.0115568C39.352 0.0877605 38.2344 0.265569 37.104 0.786294C36.5452 1.04031 35.961 1.40862 35.4656 1.99285C35.3513 2.15796 35.237 2.33577 35.1227 2.50088C35.0211 2.69139 34.9576 2.9073 34.8941 3.11051C34.7671 3.52963 34.7798 4.08845 34.9068 4.48217C35.1608 5.28231 35.5545 5.72683 35.7959 6.08245C36.0753 6.46347 36.1007 6.65398 36.088 6.57777C36.0753 6.60317 36.088 6.59047 36.0372 6.66668C35.9737 6.73018 35.8086 6.85719 35.5799 6.98419L34.7544 7.42871C34.602 7.51762 34.4369 7.60652 34.2718 7.72083L33.84 8.03834C33.3827 8.38126 32.9763 8.63527 32.6207 8.74958C32.2524 8.86388 32.0619 8.83848 31.7571 8.72418C31.122 8.47016 30.3981 7.54302 29.3058 6.73018C28.7597 6.32376 27.9469 5.94274 27.0832 5.94274C26.2196 5.93004 25.483 6.26026 24.9495 6.56507C23.8573 7.2001 22.9936 7.96214 22.257 8.91468C21.9014 9.39731 21.5585 9.93073 21.3553 10.6166C21.2537 10.9595 21.2028 11.3532 21.2283 11.7596C21.2664 12.1152 21.3299 12.4709 21.4823 12.8265C21.7744 13.5377 22.3332 14.0838 22.8412 14.4013C23.3493 14.7443 23.8446 14.9475 24.2764 15.1253C24.7082 15.3031 25.1146 15.4555 25.4449 15.6079C25.61 15.6841 25.7497 15.773 25.8894 15.8492L26.0799 15.9889C26.1434 15.6714 26.0291 17.0685 25.9402 17.7416C25.8513 18.5163 25.6354 19.2276 25.3814 19.5451C25.2416 19.6975 25.2162 19.7229 25.0257 19.7737C24.8098 19.8245 24.5939 19.8245 24.3145 19.7737C23.7684 19.7229 22.9682 19.2657 21.7617 19.4435C21.1774 19.5451 20.6948 19.8499 20.3392 20.1547C19.9836 20.4468 19.6788 20.8406 19.4756 21.2216C19.0437 21.9963 18.904 22.771 18.8405 23.4823C18.777 24.9175 18.8913 26.0859 19.4756 27.3687C19.755 27.991 20.4027 28.6133 21.0631 28.8419C21.7236 29.0833 22.2824 29.0833 22.7523 29.096C23.6922 29.096 24.3526 29.096 24.8225 29.3119C25.7497 29.7183 26.3085 30.8486 26.626 31.6361C26.9562 32.4616 27.0832 33.1474 27.1213 33.6174C27.1594 34.0873 27.0832 34.3286 26.9943 34.5318C26.7911 34.9382 26.7657 35.0779 26.8673 35.1795C26.9435 35.2684 27.0705 35.3955 27.5786 35.0144C27.8326 34.8239 28.1501 34.3286 28.2263 33.6682C28.3025 33.0077 28.2517 32.2076 27.9723 31.1916C27.8199 30.6835 27.6294 30.1247 27.2864 29.5151C26.9435 28.9308 26.4609 28.2323 25.5592 27.7751C24.6828 27.3052 23.6541 27.3179 22.8285 27.2671C22.4094 27.2417 22.0284 27.1909 21.7744 27.0893C21.5331 26.975 21.3807 26.8479 21.2283 26.505C20.9488 25.8573 20.7964 24.7015 20.898 23.6855C20.9615 23.1775 21.0885 22.6694 21.3172 22.2884C21.5204 21.9201 21.9395 21.6026 22.1554 21.5899C22.384 21.5137 22.9936 21.755 23.9208 21.9709C24.378 22.0598 24.9495 22.0979 25.5084 21.9836C26.0926 21.8947 26.7911 21.4629 27.1467 20.9803C27.8961 20.0023 28.0612 19.0117 28.2136 18.0845C28.2771 17.6146 28.3279 17.1574 28.366 16.7129C28.3787 16.4842 28.4295 16.3572 28.4168 15.8238C28.4041 15.392 28.2517 14.9602 27.9723 14.63C27.8326 14.4903 27.6802 14.3124 27.5405 14.2108L27.1721 13.9314C26.9308 13.779 26.6895 13.6393 26.4609 13.5377C26.0037 13.3218 25.5719 13.144 25.1654 12.9789C24.3653 12.6614 23.7811 12.2803 23.6795 11.9501C23.6414 11.8612 23.6287 11.7469 23.616 11.6199C23.616 11.531 23.6287 11.4548 23.6668 11.3151C23.743 11.0611 23.9335 10.7182 24.1748 10.4007C24.6701 9.76562 25.3941 9.1306 26.1434 8.71147C26.5244 8.49556 26.8292 8.40666 27.0578 8.40666C27.2864 8.40666 27.5278 8.49556 27.8707 8.74958C28.2136 8.99089 28.5819 9.35921 29.0264 9.77833C29.4709 10.1847 29.979 10.6674 30.7664 11.023C31.5284 11.3913 32.608 11.4294 33.37 11.15C34.1702 10.896 34.7925 10.4642 35.3132 10.0704L35.6307 9.84183C35.7196 9.77833 35.834 9.71482 35.9483 9.65132L36.7865 9.2068C37.104 9.02899 37.4723 8.81308 37.8533 8.40666C38.2344 8.01294 38.5392 7.39061 38.5773 6.76828C38.6154 6.31106 38.4757 5.80304 38.3233 5.48552C38.1709 5.1553 37.9931 4.90129 37.8533 4.69808C37.5612 4.27896 37.3453 3.94875 37.3199 3.82174C37.3072 3.75824 37.3072 3.79634 37.3326 3.75824C37.358 3.73284 37.3453 3.72014 37.358 3.68203C37.3834 3.65663 37.4088 3.61853 37.4215 3.58043C37.5612 3.42802 37.8152 3.22481 38.1709 3.0724C38.8567 2.75489 39.7711 2.57708 40.6602 2.52628C41.1047 2.50088 41.5619 2.51358 41.9811 2.57708C42.4002 2.61518 42.7939 2.76759 42.9717 2.86919C43.1622 2.9962 43.1495 2.9708 43.213 3.35182C43.2511 3.73284 43.1368 4.35517 43.2511 5.24421C43.4035 6.19675 43.848 6.89529 44.3434 7.49222C44.8387 8.08914 45.4229 8.55907 46.0198 8.97819C46.3247 9.1814 46.6295 9.37191 46.947 9.54972C47.2264 9.71482 47.7725 9.98154 48.306 10.0323C48.8521 10.1085 49.4617 10.0069 49.9189 9.80373C50.3889 9.60052 50.7445 9.33381 51.062 9.09249C51.6843 8.58447 52.1288 8.08914 52.548 7.80973C52.7766 7.64462 52.9925 7.53032 53.1576 7.45411C53.3227 7.40331 53.3862 7.40331 53.4878 7.41601C53.691 7.44141 54.2117 7.82243 54.7325 8.27965L55.5707 8.99089C55.8374 9.2068 56.066 9.42271 56.2565 9.61322C56.447 9.81643 56.5868 10.0196 56.663 10.1847C56.7392 10.3499 56.7392 10.4261 56.7265 10.5404C56.7138 10.769 56.3581 11.2643 55.8628 11.7723C55.6088 12.0517 55.3675 12.2676 55.0246 12.6995C54.6817 13.144 54.4276 13.6901 54.3387 14.2362C54.1609 15.3285 54.4022 16.281 54.7198 17.0939C55.0373 17.9194 55.4564 18.6434 55.9009 19.3419C56.1422 19.6975 56.4724 20.2182 57.1456 20.5738C57.6409 20.8279 58.187 20.9549 58.6824 20.993C59.673 21.0692 60.4223 20.9422 60.8415 21.0692C61.2352 21.1708 61.5654 21.4375 61.7813 21.9328C62.2512 22.9616 62.2766 24.6126 61.794 25.5398C61.6797 25.7557 61.54 25.9081 61.4257 25.9716C61.3114 26.0351 61.1717 26.0732 60.8923 26.0605C60.6128 26.0478 60.2445 25.9716 59.7746 25.9081C59.3301 25.8573 58.7078 25.8065 58.06 26.0732C57.425 26.3145 56.9297 26.9368 56.7519 27.1655L56.3708 27.6227L56.1803 27.8513L55.9263 28.2069C55.6088 28.7022 55.4183 29.3754 55.4945 29.9977C55.558 30.62 55.7866 31.1281 56.0406 31.5472C56.5486 32.3854 57.1583 32.9696 57.679 33.5539C57.9584 33.8587 58.2378 34.1381 58.4283 34.3794C58.6315 34.6461 58.6061 34.6461 58.6188 34.7731C58.5934 35.1287 58.2251 35.967 57.9076 36.5258C57.5647 37.1354 57.1329 37.7197 56.6757 38.1769C56.193 38.6468 55.7104 38.9516 55.2405 38.977C54.796 39.0278 54.3514 38.8373 53.8434 38.3928C53.3354 37.961 52.8528 37.3895 52.2558 36.8179L52.0272 36.602C51.9129 36.5004 51.7859 36.3861 51.6462 36.2972C51.3795 36.1194 51.0747 35.9924 50.7572 35.9797C50.1475 35.9035 49.3982 36.3734 49.2077 36.475C48.6108 36.7925 47.8868 37.0973 47.1883 37.5165C46.8327 37.7197 46.4771 37.961 46.1342 38.2785C45.8039 38.5833 45.4483 39.0532 45.2959 39.5613C45.0038 40.59 45.2578 41.4409 45.3975 42.1395C45.5499 42.838 45.6769 43.4476 45.5118 43.8414C45.2705 44.7177 44.0385 45.2892 42.8574 45.34C41.6762 45.4289 40.3808 45.1368 39.6822 44.4637C39.3647 44.1589 39.1869 43.689 39.1361 43.1555C39.0853 42.6221 39.1615 42.0506 39.225 41.4155C39.2758 40.7932 39.352 40.0058 38.9329 39.2691C38.5138 38.5452 37.8279 38.1896 37.2437 37.9483C36.6595 37.7451 35.9991 37.5546 35.3259 37.6181C34.6274 37.6181 34.0178 37.9864 33.5224 38.342C32.5699 39.1294 32.0492 40.0566 31.4522 40.7805C30.868 41.5172 30.233 42.0506 29.5218 41.9109C28.7978 41.8347 28.1247 41.2885 27.5405 40.8567C26.3212 39.9042 25.4449 38.9135 25.3687 37.8721C25.2289 36.8433 25.9148 36.2083 26.2831 35.8019C26.6895 35.4082 26.9181 35.1922 26.8927 35.1541C26.8673 35.1287 26.6006 35.2684 26.118 35.6114C25.8767 35.7892 25.5973 36.0432 25.3178 36.3861C25.0257 36.7544 24.8352 37.3005 24.8606 37.9102C24.8733 38.5071 25.1019 39.1802 25.5084 39.7645C25.9148 40.3614 26.4609 40.8948 27.0451 41.4155C27.6802 41.9109 28.3279 42.5586 29.3947 42.7618C29.6488 42.8253 29.9409 42.7745 30.2203 42.7745C30.487 42.6983 30.7791 42.6094 31.0077 42.4697C31.4776 42.1776 31.8714 41.8093 32.2016 41.4155C32.8747 40.6408 33.4335 39.7645 34.1829 39.2056C34.9322 38.6341 35.7959 38.6468 36.7992 39.0532C37.2691 39.2564 37.6755 39.5232 37.8406 39.8661C38.0312 40.1836 38.0185 40.6916 37.9423 41.2758C37.8025 42.3935 37.4596 44.1081 38.6916 45.4543C39.8981 46.6228 41.4476 46.9022 42.959 46.8514C43.721 46.826 44.4958 46.6609 45.2578 46.2926C45.9944 45.937 46.7565 45.2638 47.0486 44.3367C47.3915 43.3841 47.1502 42.4951 47.0232 41.8093C46.8835 41.1107 46.7819 40.463 46.9216 40.082C47.0105 39.7391 47.4677 39.358 48.0646 39.0405C48.6489 38.7103 49.322 38.4436 50.0586 38.0626C50.5159 37.8213 50.4524 37.8467 50.6048 37.834C50.6556 37.834 50.7064 37.8594 50.7445 37.8975L50.808 37.9483L50.9985 38.1261C51.4938 38.6214 51.9891 39.2183 52.6369 39.8026C53.2465 40.3741 54.2752 40.9964 55.4056 40.8821C56.4978 40.8059 57.3996 40.1836 58.0219 39.5867C58.6696 38.9643 59.1904 38.2658 59.6222 37.5292C59.7873 37.1608 59.9905 36.7671 60.1556 36.3734Z" fill="url(#paint0_linear_2533_128)"/>
<path d="M34.9449 31.1153C37.0659 32.9823 39.5806 33.6808 41.7524 33.6173C43.9623 33.5284 45.7658 32.614 46.9597 31.5852C48.1789 30.5565 48.9156 29.4388 49.3855 28.4609C49.8681 27.4829 50.0967 26.6447 50.211 25.9461C50.4397 24.5618 50.2999 23.8378 50.1602 23.4695C50.0205 23.1012 49.8554 23.0885 49.6776 23.0885C49.4998 23.0885 49.3347 23.1266 49.1823 23.4568C49.0299 23.7743 48.8902 24.3967 48.4965 25.5016C48.2932 26.0477 48.0138 26.7209 47.5566 27.4575C47.0994 28.2068 46.4517 29.0451 45.4991 29.7817C44.5466 30.5184 43.2765 31.1153 41.6762 31.1534C40.1014 31.1788 38.1836 30.6327 36.6087 29.2356C34.9068 27.7623 33.2938 24.6761 34.1067 21.5644C34.5004 20.0404 35.4402 18.6179 36.7738 17.6526C38.0947 16.6366 39.7711 16.0905 41.346 16.0016C42.9463 15.8873 44.4831 16.3572 45.6896 17.0557C46.9089 17.7669 47.7852 18.7576 48.3314 19.6974C49.4617 21.6025 49.4236 23.1393 49.6649 23.1012C49.7538 23.1012 49.8046 22.7329 49.83 22.0598C49.8173 21.3866 49.703 20.396 49.2077 19.2529C48.7251 18.1226 47.836 16.8525 46.4644 15.8746C45.1054 14.9093 43.2892 14.2108 41.3206 14.2235C39.3647 14.2108 37.3072 14.7696 35.5799 15.9508C34.6909 16.5096 33.9416 17.2843 33.2811 18.1226C32.6461 18.9862 32.1889 19.9642 31.8714 20.9675C31.5792 21.9836 31.4903 23.025 31.5157 24.0283C31.6047 25.0317 31.7571 26.0096 32.1 26.886C32.7731 28.6641 33.7892 30.0611 34.9449 31.1153Z" fill="url(#paint1_linear_2533_128)"/>
<path d="M71.6116 22.7328C71.8275 23.3933 71.8275 24.1807 71.7513 25.1078C71.6751 26.0604 71.6116 27.0256 71.5354 27.9655C71.4084 29.8325 71.3195 31.5978 71.2686 32.9695C70.9384 42.9649 71.4846 43.1935 72.1831 43.2189C72.8816 43.2443 73.4405 43.0538 73.7834 33.0457C73.8342 31.6741 73.8469 29.9087 73.8469 28.029C73.8342 27.0891 73.8342 26.1239 73.8215 25.1713C73.8088 24.1934 73.7326 23.0376 73.2245 22.0216C72.7165 20.9801 71.7005 20.2562 70.8241 20.053C69.9351 19.8117 69.173 19.8371 68.5507 19.8752C67.3061 20.0022 66.5948 20.2689 66.6075 20.434C66.6202 20.6118 67.3823 20.688 68.5126 20.8531C69.6303 21.0309 71.2305 21.4374 71.6116 22.7328Z" fill="url(#paint2_linear_2533_128)"/>
<path d="M11.2964 43.2319C11.9949 43.2065 12.541 42.9779 12.2108 32.9825C12.16 31.6108 12.0711 29.8454 11.9441 27.9784C11.8806 27.0386 11.8044 26.086 11.7282 25.1208C11.652 24.1937 11.652 23.4062 11.8679 22.7458C12.2489 21.4503 13.8365 21.0312 14.9542 20.8661C16.0972 20.701 16.8465 20.6375 16.8592 20.447C16.8719 20.2819 16.1607 20.0152 14.9161 19.8882C14.2937 19.8373 13.5317 19.8246 12.6426 20.066C11.7663 20.2692 10.7376 20.9931 10.2422 22.0346C9.7469 23.0506 9.658 24.2064 9.6453 25.1843C9.658 26.1369 9.6453 27.1021 9.6326 28.0419C9.6326 29.9216 9.658 31.687 9.6961 33.0587C10.039 43.0668 10.6105 43.2573 11.2964 43.2319Z" fill="url(#paint3_linear_2533_128)"/>
<path d="M8.17203 54.2686C8.73086 54.7639 9.6072 55.1831 10.3057 55.2974C11.0297 55.4371 11.6774 55.4371 12.2743 55.3609C13.5063 55.2212 14.5223 54.7258 15.2463 54.1162C16.6814 52.8716 16.9355 51.5253 17.0117 50.7633C17.0498 49.9631 16.8847 49.5694 16.7322 49.3662C16.5798 49.1757 16.4147 49.1757 16.2369 49.1757C15.8559 49.1757 15.6527 49.3281 15.2717 50.3822C15.0304 50.8776 14.7001 51.6523 13.8111 52.2746C13.3666 52.5794 12.7824 52.8334 12.0203 52.8969C11.6266 52.9351 11.1948 52.9224 10.8011 52.8334C10.3819 52.7318 10.1152 52.6302 9.69611 52.2746C8.80706 51.6523 8.14663 50.4457 8.50225 49.0106C8.84517 47.5754 10.2168 46.2926 11.7536 46.1021C13.3539 45.8227 14.662 46.572 15.2717 47.4992C15.9067 48.4136 16.021 49.2011 16.2242 49.1757C16.3639 49.1757 16.6179 48.3501 16.1353 47.042C15.894 46.4069 15.3987 45.6576 14.5858 45.1242C14.1794 44.8575 13.7095 44.6416 13.2015 44.5145C12.6934 44.3748 12.1727 44.3494 11.6139 44.3367C9.36589 44.324 7.00358 46.0259 6.27964 48.3501C5.89862 49.4932 5.92403 50.7759 6.33045 51.8555C6.74957 52.9351 7.4735 53.7606 8.17203 54.2686Z" fill="url(#paint4_linear_2533_128)"/>
<path d="M20.4154 59.4504C20.1741 59.1075 19.9328 58.79 19.6788 58.4852C19.4375 58.1931 19.1073 57.8374 18.7897 57.5961C18.142 57.0881 17.4816 56.7325 16.8211 56.4531C15.5003 55.8943 14.2175 55.7037 13.1634 55.691C11.0297 55.691 9.84851 56.3515 9.91202 56.4785C9.96282 56.6817 11.1948 56.3769 13.0872 56.669C14.027 56.8214 15.132 57.1262 16.2115 57.7231C16.7449 58.0153 17.2911 58.3836 17.7483 58.8154C17.9896 59.044 18.142 59.2345 18.3452 59.5393C18.5484 59.8314 18.7389 60.1236 18.9167 60.4157C19.6534 61.6095 19.8312 62.8669 19.5772 64.3656C19.5391 64.5561 19.5391 64.5307 19.4756 64.5815C19.4502 64.5942 19.4121 64.5815 19.3867 64.5815C19.3613 64.5815 19.3994 64.5688 19.2978 64.5688H18.993C18.1801 64.5561 17.38 64.5561 16.5798 64.5434C13.4174 64.5561 10.4454 64.5815 8.14663 64.5942C7.30839 64.5942 6.50825 64.5942 5.78432 64.5434C5.4287 64.5307 5.07309 64.4926 4.79367 64.4545C4.61586 64.4291 4.61586 64.4291 4.62856 64.4291C4.64126 64.4291 4.62856 64.4291 4.61586 64.4037L4.51426 64.2259C4.45076 64.1115 4.42535 63.9845 4.37455 63.8702C4.27295 63.6416 4.26025 63.3876 4.22214 63.159C4.18404 62.6764 4.28565 62.2065 4.42535 61.7746C4.73017 60.8983 5.289 60.1744 5.82242 59.6409C6.91467 58.5487 7.90532 58.0534 8.55305 57.6977C9.21348 57.3421 9.5818 57.1897 9.75961 56.9865C9.97552 56.7833 9.95012 56.6309 9.91202 56.4912C9.87392 56.3388 9.81041 56.1991 9.6072 56.1229C9.36589 56.0594 8.88327 55.9705 8.01963 56.161C7.16869 56.3642 5.87322 56.7706 4.33645 58.0407C3.58711 58.6884 2.76157 59.5774 2.21545 60.9237C1.94874 61.5968 1.75823 62.397 1.79633 63.2733C1.83443 63.7051 1.87253 64.1751 2.03764 64.6196C2.11384 64.8355 2.19005 65.0768 2.29165 65.2927C2.43136 65.5467 2.58377 65.8134 2.73617 66.0801L2.90128 66.2579C3.01559 66.2579 3.04099 66.3469 3.11719 66.3977C3.2315 66.5247 3.39661 66.5882 3.54901 66.6517C3.85383 66.8295 4.22214 66.893 4.39995 66.9184C4.84447 66.9946 5.23819 67.02 5.64461 67.0454C6.45745 67.0962 7.28299 67.1089 8.15933 67.1089C10.5089 67.1089 13.4809 66.9819 16.6306 66.8676C17.4181 66.8422 18.2182 66.8168 19.0184 66.7914L19.8312 66.7787C20.1995 66.766 20.5424 66.6644 20.8345 66.4612C21.1267 66.2579 21.3426 65.9658 21.4696 65.6356C21.5966 65.3308 21.6347 64.8609 21.6601 64.6196C21.7363 63.7559 21.7363 62.8288 21.5331 61.9143C21.3172 60.9618 20.8853 60.1363 20.4154 59.4504Z" fill="url(#paint5_linear_2533_128)"/>
<path d="M47.8487 52.0079C47.4804 51.1061 46.7438 50.0901 45.6007 49.3535C45.0292 48.9978 44.3688 48.7057 43.6575 48.5279C42.9463 48.3501 42.197 48.3247 41.4222 48.312C39.8727 48.3374 38.2344 48.9343 36.9135 49.9377C35.5799 50.941 34.5512 52.3762 34.0432 53.9638C33.5224 55.5514 33.5732 57.304 34.1321 58.7646C34.6782 60.2252 35.6561 61.3555 36.6214 62.0668C37.4215 62.7653 38.5646 63.2987 39.5298 63.4638C40.5205 63.6543 41.4222 63.6543 42.2605 63.5654C43.9623 63.3876 45.3721 62.7018 46.3628 61.8763C48.3567 60.1744 48.7505 58.3328 48.8902 57.2786C48.9918 56.161 48.814 55.6022 48.6616 55.3227C48.5092 55.0433 48.3441 55.0306 48.1662 55.0433C47.9884 55.056 47.8233 55.0814 47.6836 55.3481C47.5312 55.6022 47.4296 56.0848 47.1502 56.923C46.8454 57.7232 46.3755 58.9932 44.9276 60.0728C44.2037 60.5935 43.2384 61.0253 42.0064 61.1269C41.3841 61.1904 40.6856 61.165 40.0379 61.0253C39.352 60.8729 38.8186 60.6443 38.1709 60.0982C36.723 59.1075 35.6053 56.9992 36.2531 54.6496C36.8373 52.3127 39.1107 50.3314 41.5492 50.1028C42.1462 50.0647 42.7685 50.0266 43.3273 50.1028C43.8988 50.1917 44.4196 50.3568 44.8895 50.5854C45.8293 51.0426 46.5279 51.7666 46.9724 52.4778C47.8741 53.913 47.9503 55.0941 48.1662 55.056C48.3059 55.056 48.5981 53.8368 47.8487 52.0079Z" fill="url(#paint6_linear_2533_128)"/>
<path d="M53.4243 69.4966C53.0814 69.0012 52.7385 68.5313 52.3702 68.0995C52.0272 67.655 51.57 67.185 51.1255 66.8294C50.211 66.0928 49.2712 65.5721 48.3187 65.1529C46.4263 64.3147 44.5847 64.0099 43.0606 63.9718C39.9744 63.9083 38.2217 64.7846 38.2725 64.8989C38.3106 65.1148 40.1268 64.5814 42.9844 64.9497C44.4069 65.1402 46.0707 65.5594 47.7217 66.423C48.5346 66.8548 49.3728 67.3883 50.084 68.0487C50.4524 68.3916 50.7318 68.7091 51.0366 69.1536C51.3541 69.5855 51.6462 70.0173 51.9256 70.4745C52.4718 71.3762 52.8909 72.3415 53.056 73.3575C53.2465 74.3736 53.1957 75.4658 53.0433 76.5835C53.0052 76.8248 52.9544 77.2312 52.929 77.2693C52.9163 77.3074 52.8909 77.3582 52.8401 77.3709C52.8147 77.3836 52.802 77.3836 52.7766 77.3836H52.5988L51.6843 77.3709C50.4905 77.3709 49.2966 77.3582 48.1281 77.3582C43.467 77.409 39.0726 77.4471 35.6688 77.4725C34.4496 77.4725 33.2811 77.4598 32.2016 77.409C31.6682 77.3836 31.1474 77.3455 30.6902 77.282C30.4743 77.2566 30.233 77.2058 30.106 77.1677C30.0806 77.1677 30.0933 77.1677 30.0806 77.1677L29.9663 76.9645L29.7885 76.6724C29.6488 76.4819 29.6234 76.266 29.5345 76.0628C29.3439 75.6691 29.3439 75.2499 29.255 74.8562C29.2169 74.0561 29.3312 73.2813 29.598 72.5701C30.0933 71.1476 30.9823 70.0427 31.8206 69.2171C33.5478 67.5534 35.0846 66.8294 36.088 66.3468C37.1167 65.8515 37.6882 65.6864 37.9677 65.4578C38.2852 65.2292 38.2725 65.0767 38.2344 64.9243C38.1963 64.7719 38.1201 64.6449 37.8153 64.5814C37.4723 64.5433 36.7865 64.4671 35.5418 64.7973C34.3353 65.1276 32.4683 65.7499 30.3092 67.6169C29.255 68.5567 28.0993 69.8395 27.3626 71.7446C26.9943 72.6844 26.7784 73.8021 26.8165 75.0213C26.9054 75.6183 26.9435 76.266 27.1848 76.8629C27.2991 77.155 27.3754 77.4979 27.5532 77.7774C27.731 78.0949 27.9215 78.4251 28.112 78.7553C28.4168 79.1363 28.8613 79.4157 29.3312 79.5554C29.6996 79.6698 29.979 79.7078 30.2838 79.7586C30.8807 79.8476 31.4395 79.8857 32.0238 79.9238C33.1795 79.9873 34.3734 80 35.6307 80C39.0726 80 43.467 79.8222 48.1281 79.6824C49.2966 79.657 50.4778 79.6189 51.6589 79.5935L52.5226 79.5808C52.6496 79.5808 52.9671 79.5808 53.2338 79.53C53.5005 79.4792 53.7672 79.3903 53.9958 79.2379C54.4658 78.9585 54.7706 78.4632 54.8976 77.9298C55.0246 77.3836 55.0119 77.1931 55.0627 76.8502C55.1897 75.6055 55.2024 74.2847 54.9103 73.0019C54.6817 71.6684 54.0974 70.4999 53.4243 69.4966Z" fill="url(#paint7_linear_2533_128)"/>
<path d="M62.9879 52.5159C63.3816 53.5827 64.0928 54.4083 64.7786 54.9163C65.3375 55.4116 66.2011 55.818 66.8997 55.9323C67.6236 56.072 68.2586 56.072 68.8555 55.9958C70.0748 55.8561 71.0909 55.3608 71.8021 54.7639C73.2246 53.5192 73.4786 52.1984 73.5548 51.4363C73.5929 50.6362 73.4278 50.2425 73.2754 50.0519C73.1229 49.8614 72.9578 49.8614 72.78 49.8741C72.399 49.8741 72.1958 50.0265 71.8148 51.068C71.5862 51.5633 71.256 52.3254 70.3796 52.9477C69.9351 53.2525 69.3636 53.4938 68.6142 53.5573C68.2205 53.5954 67.8014 53.5827 67.4077 53.4938C66.9886 53.3922 66.7345 53.2906 66.3281 52.9477C65.4518 52.3381 64.7913 51.1442 65.147 49.7217C65.4772 48.2993 66.8361 47.0292 68.3602 46.8514C69.9351 46.572 71.2433 47.3086 71.8402 48.2231C72.4625 49.1248 72.5895 49.8995 72.78 49.8868C72.9197 49.8868 73.1738 49.074 72.7038 47.7785C72.4625 47.1435 71.9672 46.4069 71.1671 45.8734C70.7606 45.6067 70.3034 45.4035 69.7954 45.2638C69.2874 45.1241 68.7666 45.0987 68.2205 45.086C65.9852 45.0733 63.6483 46.7498 62.9244 49.0613C62.556 50.179 62.5814 51.449 62.9879 52.5159Z" fill="url(#paint8_linear_2533_128)"/>
<path d="M78.0381 62.4351C77.8349 61.5206 77.4157 60.7078 76.9458 60.0219C76.7045 59.679 76.4632 59.3615 76.2092 59.0694C75.9679 58.7773 75.6377 58.4217 75.3201 58.1804C74.6724 57.6723 74.0247 57.3294 73.3642 57.05C72.0561 56.4912 70.786 56.3134 69.7446 56.3007C67.6363 56.3007 66.4678 56.9484 66.5186 57.0754C66.5694 57.2786 67.7887 56.9738 69.6684 57.2659C70.5955 57.4183 71.6878 57.7231 72.7546 58.3074C73.288 58.5995 73.8215 58.9678 74.266 59.3869C74.4946 59.6155 74.6597 59.806 74.8629 60.0981C75.0661 60.3776 75.2566 60.6697 75.4344 60.9745C76.1584 62.1556 76.3362 63.4003 76.0949 64.8736C76.0568 65.0514 76.0568 65.0387 75.9933 65.0895C75.9679 65.1022 75.9298 65.0895 75.9044 65.0895C75.8663 65.0895 75.9171 65.0768 75.8282 65.0768H75.5233C74.7232 65.0641 73.9231 65.0641 73.1356 65.0514C70.0113 65.0641 67.0647 65.0895 64.7786 65.1022C63.9404 65.1022 63.153 65.1022 62.4417 65.0514C62.0861 65.0387 61.7432 65.0006 61.4638 64.9625C61.286 64.9371 61.2987 64.9371 61.2987 64.9371C61.2987 64.9371 61.2987 64.9371 61.286 64.9117L61.1844 64.7339C61.1209 64.6196 61.0955 64.4926 61.0447 64.3782C60.943 64.1496 60.9303 63.9083 60.8922 63.667C60.8541 63.1971 60.9557 62.7272 61.0955 62.2953C61.4003 61.4317 61.9464 60.7205 62.4798 60.187C63.5594 59.1075 64.55 58.6122 65.1851 58.2693C65.8328 57.9136 66.2011 57.7612 66.3789 57.5707C66.5948 57.3675 66.5694 57.2151 66.5313 57.0754C66.4932 56.923 66.4297 56.7833 66.2265 56.7071C65.9852 56.6436 65.5026 56.542 64.6516 56.7452C63.8007 56.9357 62.5179 57.3421 61.0066 58.6122C60.2699 59.2599 59.4444 60.1362 58.8983 61.4698C58.6442 62.1429 58.441 62.9304 58.4791 63.8067C58.5172 64.2385 58.5553 64.7085 58.7204 65.1403C58.7966 65.3562 58.8728 65.5848 58.9745 65.8007C59.1142 66.0547 59.2666 66.3214 59.419 66.5882L59.5841 66.766C59.6857 66.766 59.7238 66.8549 59.8 66.9057C59.9143 67.0327 60.0667 67.0962 60.2318 67.1597C60.5366 67.3248 60.9049 67.401 61.0828 67.4264C61.5146 67.5026 61.921 67.528 62.3274 67.5534C63.1403 67.6042 63.9531 67.6169 64.8167 67.6169C67.1409 67.6169 70.0875 67.4899 73.2118 67.3756C73.9866 67.3502 74.7867 67.3248 75.5741 67.2994L76.387 67.2867C76.7553 67.2613 77.0982 67.1724 77.3776 66.9692C77.9746 66.6009 78.1651 65.7499 78.1905 65.1403C78.2413 64.2639 78.2413 63.3495 78.0381 62.4351Z" fill="url(#paint9_linear_2533_128)"/>
<path d="M25.9275 70.6523C25.7624 70.4872 24.4034 72.0113 24.1748 74.4117C23.9335 76.8121 24.9749 78.5648 25.1654 78.4378C25.4068 78.3362 24.8225 76.6343 25.0511 74.4879C25.2417 72.3669 26.1434 70.792 25.9275 70.6523Z" fill="url(#paint10_linear_2533_128)"/>
<path d="M22.2062 73.7259C21.9649 75.2627 22.4094 76.4693 22.638 76.4185C22.8793 76.3677 22.8539 75.2246 23.0825 73.8656C23.2858 72.5067 23.6541 71.4144 23.4382 71.3001C23.2223 71.1731 22.4348 72.1892 22.2062 73.7259Z" fill="url(#paint11_linear_2533_128)"/>
<path d="M61.7178 11.6707C61.8321 11.6962 62.048 11.3024 62.1369 10.5912C62.2258 9.89266 62.1496 8.86391 61.7178 7.86057C61.286 6.84452 60.6128 6.08248 60.0413 5.66336C59.4698 5.23154 59.038 5.11724 58.9745 5.21884C58.8348 5.43475 60.1683 6.4127 60.905 8.21618C61.6924 9.98157 61.4638 11.6199 61.7178 11.6707Z" fill="url(#paint12_linear_2533_128)"/>
<path d="M62.937 8.77501C63.1657 8.81312 63.4451 7.67006 62.8862 6.4127C62.3401 5.15534 61.3241 4.57111 61.1844 4.77432C61.0193 4.96483 61.6289 5.71417 62.0734 6.76832C62.556 7.80977 62.6957 8.76231 62.937 8.77501Z" fill="url(#paint13_linear_2533_128)"/>
<defs>
<linearGradient id="paint0_linear_2533_128" x1="18.8249" y1="23.4285" x2="64.3468" y2="23.4285" gradientUnits="userSpaceOnUse">
<stop stop-color="#F86CA7"/>
<stop offset="1" stop-color="#FF7F18"/>
</linearGradient>
<linearGradient id="paint1_linear_2533_128" x1="31.5116" y1="23.9223" x2="50.3323" y2="23.9223" gradientUnits="userSpaceOnUse">
<stop stop-color="#F86CA7"/>
<stop offset="1" stop-color="#FF7F18"/>
</linearGradient>
<linearGradient id="paint2_linear_2533_128" x1="66.6074" y1="31.5355" x2="73.8469" y2="31.5355" gradientUnits="userSpaceOnUse">
<stop stop-color="#F86CA7"/>
<stop offset="1" stop-color="#FF7F18"/>
</linearGradient>
<linearGradient id="paint3_linear_2533_128" x1="9.6326" y1="31.5457" x2="16.8594" y2="31.5457" gradientUnits="userSpaceOnUse">
<stop stop-color="#F86CA7"/>
<stop offset="1" stop-color="#FF7F18"/>
</linearGradient>
<linearGradient id="paint4_linear_2533_128" x1="6.00906" y1="49.8743" x2="17.0172" y2="49.8743" gradientUnits="userSpaceOnUse">
<stop stop-color="#F86CA7"/>
<stop offset="1" stop-color="#FF7F18"/>
</linearGradient>
<linearGradient id="paint5_linear_2533_128" x1="1.79147" y1="61.4" x2="21.707" y2="61.4" gradientUnits="userSpaceOnUse">
<stop stop-color="#F86CA7"/>
<stop offset="1" stop-color="#FF7F18"/>
</linearGradient>
<linearGradient id="paint6_linear_2533_128" x1="33.6811" y1="55.9675" x2="48.9201" y2="55.9675" gradientUnits="userSpaceOnUse">
<stop stop-color="#F86CA7"/>
<stop offset="1" stop-color="#FF7F18"/>
</linearGradient>
<linearGradient id="paint7_linear_2533_128" x1="26.8122" y1="71.9842" x2="55.1481" y2="71.9842" gradientUnits="userSpaceOnUse">
<stop stop-color="#F86CA7"/>
<stop offset="1" stop-color="#FF7F18"/>
</linearGradient>
<linearGradient id="paint8_linear_2533_128" x1="62.6646" y1="50.5664" x2="73.5603" y2="50.5664" gradientUnits="userSpaceOnUse">
<stop stop-color="#F86CA7"/>
<stop offset="1" stop-color="#FF7F18"/>
</linearGradient>
<linearGradient id="paint9_linear_2533_128" x1="58.4745" y1="61.9588" x2="78.2187" y2="61.9588" gradientUnits="userSpaceOnUse">
<stop stop-color="#F86CA7"/>
<stop offset="1" stop-color="#FF7F18"/>
</linearGradient>
<linearGradient id="paint10_linear_2533_128" x1="24.1387" y1="74.5422" x2="25.9607" y2="74.5422" gradientUnits="userSpaceOnUse">
<stop stop-color="#F86CA7"/>
<stop offset="1" stop-color="#FF7F18"/>
</linearGradient>
<linearGradient id="paint11_linear_2533_128" x1="22.1365" y1="73.8547" x2="23.5039" y2="73.8547" gradientUnits="userSpaceOnUse">
<stop stop-color="#F86CA7"/>
<stop offset="1" stop-color="#FF7F18"/>
</linearGradient>
<linearGradient id="paint12_linear_2533_128" x1="58.9643" y1="8.42806" x2="62.1698" y2="8.42806" gradientUnits="userSpaceOnUse">
<stop stop-color="#F86CA7"/>
<stop offset="1" stop-color="#FF7F18"/>
</linearGradient>
<linearGradient id="paint13_linear_2533_128" x1="61.1567" y1="6.75534" x2="63.2129" y2="6.75534" gradientUnits="userSpaceOnUse">
<stop stop-color="#F86CA7"/>
<stop offset="1" stop-color="#FF7F18"/>
</linearGradient>
</defs>
</svg>
