<svg width="276" height="257" viewBox="0 0 276 257" fill="none" xmlns="http://www.w3.org/2000/svg">
<g opacity="0.1">
<path d="M67.8712 -62.1778C53.6086 -30.1564 56.3005 10.6777 68.655 42.8075C80.4805 73.555 106.835 109.675 143.778 108.019C157.229 107.419 170.236 98.793 167.067 83.8227C164.121 69.9146 150.267 62.9979 136.969 66.5456C101.064 76.1347 105.63 127.709 116.277 154.12C123.012 170.821 133.715 185.897 147.301 197.733C159.903 208.715 176.797 219.374 193.834 220.622C196.278 220.805 197.115 216.807 194.884 215.894C182.963 211.02 171.267 207.33 160.538 199.9C149.413 192.193 139.828 182.218 132.339 170.975C117.484 148.66 107.783 115.231 119.49 89.5091C125.691 75.8699 147.624 62.1133 158.779 78.8346C163.302 85.6189 162.859 94.7799 155.449 99.246C148.679 103.328 139.405 102.934 131.974 101.358C101.758 94.9505 81.6398 64.2098 71.7994 37.0792C66.2401 21.7381 63.2771 5.50862 62.9834 -10.8033C62.6754 -28.263 66.3217 -44.3981 70.7032 -61.1368C71.1303 -62.776 68.579 -63.7661 67.8712 -62.1778Z" fill="url(#paint0_linear_2324_919)"/>
<path d="M71.4232 -71.0696C47.6865 -40.1908 45.7234 2.29344 61.1062 37.339C68.5137 54.2065 79.2897 69.3899 92.0853 82.5953C105.139 96.0814 121.357 110.35 139.771 115.607C152.608 119.27 175.218 117.156 176.151 99.6511C176.972 84.2504 162.323 67.1941 147.653 64.0562C131.221 60.5445 116.683 73.2362 111.329 87.8304C104.942 105.245 108.205 125.897 113.56 143.189C125.272 181.048 154.199 213.196 191.027 228.013C194.539 229.422 197.359 224.228 193.814 222.76C167.188 211.76 145.027 192.154 130.636 167.211C123.301 154.503 118.089 140.458 115.601 125.982C112.755 109.407 112.096 89.0938 125.189 76.493C139.636 62.5906 158.508 70.8391 167.034 86.7188C172.011 95.9905 172.376 106.207 160.956 110.452C151.681 113.903 140.956 111.046 132.422 106.856C105.068 93.4387 80.9252 66.2794 67.8226 39.1168C51.3906 5.05709 51.1179 -37.3114 74.2956 -68.4059C75.7804 -70.3995 72.9674 -73.073 71.4232 -71.0696Z" fill="url(#paint1_linear_2324_919)"/>
<path d="M165.49 190.685C181.067 206.168 196.729 221.572 212.135 237.229C212.845 235.269 213.562 233.305 214.272 231.345C204.08 233.048 193.912 234.67 183.619 235.64C174.148 236.524 163.875 235.679 154.656 237.952C151.743 238.667 152.181 243.034 154.922 243.636C164.515 245.738 175.652 243.748 185.328 242.721C195.443 241.648 205.542 240.154 215.48 237.971C218.038 237.412 218.502 233.853 216.752 232.245C200.593 217.4 184.672 202.282 168.681 187.25C166.468 185.174 163.355 188.568 165.49 190.685Z" fill="url(#paint2_linear_2324_919)"/>
<path d="M173.803 191.565C177.295 198.658 181.888 205.304 186.002 212.043C187.949 215.24 189.897 218.431 191.846 221.616C192.743 223.097 198.372 230.259 197.614 231.819C197.223 232.624 187.774 232.323 186.528 232.39C182.834 232.576 179.138 232.769 175.444 232.955C168.232 233.328 159.383 232.364 152.655 235.174C150.246 236.172 150.325 239.452 152.884 240.203C157.631 241.595 162.591 240.682 167.483 240.389C173.023 240.063 178.565 239.732 184.105 239.406C189.235 239.097 201.281 240.856 204.291 235.138C207.17 229.677 198.659 221.492 195.982 217.327C189.972 207.963 184.424 197.93 177.597 189.151C175.801 186.847 172.523 188.974 173.803 191.565Z" fill="url(#paint3_linear_2324_919)"/>
<path d="M172.39 193.178C177.545 199.925 184.65 205.417 190.561 211.543C197.408 218.637 204.108 226.008 209.862 234.027C210.763 232.287 211.66 230.547 212.561 228.807C203.371 229.478 194.151 229.771 184.94 229.557C175.981 229.347 166.255 226.941 157.424 228.11C154.859 228.445 153.227 232.466 156.192 233.657C164.072 236.82 174.267 236.417 182.67 236.658C192.78 236.952 202.836 236.553 212.903 235.595C215.945 235.304 217.024 231.864 215.041 229.707C208.471 222.553 202.135 215.218 195.235 208.363C189.029 202.201 182.382 194.927 174.669 190.702C173.22 189.905 171.308 191.759 172.39 193.178Z" fill="url(#paint4_linear_2324_919)"/>
</g>
<defs>
<linearGradient id="paint0_linear_2324_919" x1="157.928" y1="-43.2952" x2="103.647" y2="201.126" gradientUnits="userSpaceOnUse">
<stop stop-color="#F86CA7"/>
<stop offset="1" stop-color="#FF7F18"/>
</linearGradient>
<linearGradient id="paint1_linear_2324_919" x1="157.734" y1="-52.9393" x2="99.8273" y2="207.807" gradientUnits="userSpaceOnUse">
<stop stop-color="#F86CA7"/>
<stop offset="1" stop-color="#FF7F18"/>
</linearGradient>
<linearGradient id="paint2_linear_2324_919" x1="195.211" y1="192.784" x2="182.555" y2="249.773" gradientUnits="userSpaceOnUse">
<stop stop-color="#F86CA7"/>
<stop offset="1" stop-color="#FF7F18"/>
</linearGradient>
<linearGradient id="paint3_linear_2324_919" x1="187.788" y1="190.791" x2="175.682" y2="245.304" gradientUnits="userSpaceOnUse">
<stop stop-color="#F86CA7"/>
<stop offset="1" stop-color="#FF7F18"/>
</linearGradient>
<linearGradient id="paint4_linear_2324_919" x1="193.547" y1="194.831" x2="183.49" y2="240.118" gradientUnits="userSpaceOnUse">
<stop stop-color="#F86CA7"/>
<stop offset="1" stop-color="#FF7F18"/>
</linearGradient>
</defs>
</svg>
