<svg width="64" height="64" viewBox="0 0 64 64" fill="none" xmlns="http://www.w3.org/2000/svg">
<g clip-path="url(#clip0_2573_404)">
<mask id="path-1-inside-1_2573_404" fill="white">
<path fill-rule="evenodd" clip-rule="evenodd" d="M36.9607 3.5648C34.924 2.92226 32.7418 2.57068 30.4868 2.57068C23.9038 2.57068 18.0119 5.54089 14.0718 10.2205L14.0717 10.2205C10.8262 14.0752 9.04838 18.9535 9.05262 23.9927C9.05262 28.0176 9.85277 31.291 11.1742 34.2127L11.2759 34.0918C13.2079 38.1168 16.1944 41.9923 19.2987 46.0205L19.2988 46.0206L19.299 46.0209C19.8339 46.715 20.3723 47.4136 20.9094 48.1183L20.9398 48.0822C22.0895 49.6188 23.4966 51.6091 24.5464 53.2587C26.5858 56.4147 27.4019 58.9765 27.9846 60.8056C28.642 62.869 29.0023 64.0001 30.4868 64.0001C31.9709 64.0001 32.3314 62.8664 32.9884 60.8011C33.5711 58.9691 34.387 56.4039 36.4273 53.2466C38.5162 49.9823 40.7053 47.2381 42.758 44.6649C47.7344 38.4268 51.9089 33.1937 51.9089 23.9928C51.9089 20.4285 51.036 17.0703 49.4963 14.1122L49.4885 14.1213C46.8698 9.08564 42.3608 5.2937 36.9501 3.57738L36.9607 3.5648ZM37.6583 27.973C38.1471 27.0875 38.4702 26.115 38.6063 25.1034C38.8148 23.5545 38.5763 21.9784 37.919 20.5606C37.2616 19.1428 36.2129 17.9423 34.8962 17.1006C33.5794 16.2588 32.0496 15.8109 30.4868 15.8094C29.289 15.8083 28.1056 16.0705 27.0204 16.5775C26.1591 16.9799 24.9311 18.0053 24.0772 18.8709L23.8351 19.1587L24.2069 18.7433C22.965 20.2147 22.2861 22.0794 22.2914 24.0049C22.2914 28.5269 25.9648 32.2003 30.4869 32.2003C31.6776 32.2014 32.8542 31.9427 33.9346 31.4422C34.5004 31.1802 35.0327 30.8551 35.5219 30.4744L37.6583 27.973Z"/>
</mask>
<path d="M36.9607 3.5648L38.4908 4.85274L40.4213 2.55935L37.5625 1.65746L36.9607 3.5648ZM14.0718 10.2205L12.7812 11.7484L14.3115 13.041L15.6017 11.5087L14.0718 10.2205ZM14.0717 10.2205L15.3623 8.69256L13.8319 7.39996L12.5418 8.93233L14.0717 10.2205ZM9.05262 23.9927H11.0526L11.0526 23.991L9.05262 23.9927ZM11.1742 34.2127L9.35194 35.0369L10.6607 37.9305L12.7048 35.5L11.1742 34.2127ZM11.2759 34.0918L13.0789 33.2264L11.7387 30.4343L9.74524 32.8045L11.2759 34.0918ZM19.2987 46.0205L20.9308 44.8645L20.9075 44.8316L20.8829 44.7997L19.2987 46.0205ZM19.2988 46.0206L17.6667 47.1766L17.6895 47.2088L17.7135 47.24L19.2988 46.0206ZM19.299 46.0209L17.7138 47.2403L17.7148 47.2417L19.299 46.0209ZM20.9094 48.1183L19.3187 49.3307L20.8321 51.3164L22.4396 49.4061L20.9094 48.1183ZM20.9398 48.0822L22.5412 46.884L21.0318 44.8666L19.4095 46.7944L20.9398 48.0822ZM24.5464 53.2587L22.859 54.3325L22.8666 54.3442L24.5464 53.2587ZM27.9846 60.8056L26.079 61.4127L27.9846 60.8056ZM32.9884 60.8011L34.8943 61.4074L32.9884 60.8011ZM36.4273 53.2466L38.1071 54.3321L38.1119 54.3246L36.4273 53.2466ZM42.758 44.6649L41.1945 43.4177L42.758 44.6649ZM49.4963 14.1122L51.2704 13.1888L49.9015 10.5586L47.9756 12.8132L49.4963 14.1122ZM49.4885 14.1213L47.7141 15.0441L49.0827 17.6757L51.0093 15.4203L49.4885 14.1213ZM36.9501 3.57738L35.42 2.28945L33.4929 4.57893L36.3454 5.48377L36.9501 3.57738ZM37.6583 27.973L39.1791 29.2719L39.311 29.1174L39.4092 28.9396L37.6583 27.973ZM38.6063 25.1034L40.5885 25.3701L38.6063 25.1034ZM34.8962 17.1006L33.8189 18.7857H33.8189L34.8962 17.1006ZM30.4868 15.8094L30.4849 17.8094H30.485L30.4868 15.8094ZM27.0204 16.5775L26.1738 14.7655L27.0204 16.5775ZM24.0772 18.8709L22.6533 17.4664L22.5976 17.5229L22.5465 17.5836L24.0772 18.8709ZM23.8351 19.1587L22.3045 17.8714L25.3254 20.4925L23.8351 19.1587ZM24.2069 18.7433L25.7353 20.0333L22.7166 17.4095L24.2069 18.7433ZM22.2914 24.0049H24.2914L24.2914 23.9993L22.2914 24.0049ZM30.4869 32.2003L30.4887 30.2003H30.4869V32.2003ZM33.9346 31.4422L34.7752 33.257L34.7752 33.257L33.9346 31.4422ZM35.5219 30.4744L36.7502 32.0527L36.9107 31.9279L37.0427 31.7733L35.5219 30.4744ZM30.4868 4.57068C32.5338 4.57068 34.5133 4.88984 36.359 5.47214L37.5625 1.65746C35.3347 0.954675 32.9498 0.570679 30.4868 0.570679V4.57068ZM15.6017 11.5087C19.1787 7.2603 24.5196 4.57068 30.4868 4.57068V0.570679C23.2881 0.570679 16.8451 3.82149 12.5418 8.93235L15.6017 11.5087ZM12.7812 11.7484L12.7812 11.7484L15.3623 8.6926L15.3623 8.69256L12.7812 11.7484ZM11.0526 23.991C11.0488 19.4238 12.6601 15.0024 15.6017 11.5086L12.5418 8.93233C8.99231 13.1481 7.04798 18.4833 7.05262 23.9943L11.0526 23.991ZM12.9965 33.3885C11.7912 30.7236 11.0526 27.731 11.0526 23.9927H7.05262C7.05262 28.3042 7.91432 31.8583 9.35194 35.0369L12.9965 33.3885ZM9.74524 32.8045L9.64359 32.9254L12.7048 35.5L12.8065 35.3792L9.74524 32.8045ZM20.8829 44.7997C17.7467 40.73 14.9027 37.0259 13.0789 33.2264L9.47283 34.9573C11.513 39.2076 14.6422 43.2545 17.7146 47.2413L20.8829 44.7997ZM20.9308 44.8646L20.9308 44.8645L17.6667 47.1766L17.6667 47.1766L20.9308 44.8646ZM20.8843 44.8015L20.884 44.8012L17.7135 47.24L17.7138 47.2403L20.8843 44.8015ZM22.5 46.906C21.9592 46.1963 21.4175 45.4935 20.8832 44.8001L17.7148 47.2417C18.2502 47.9365 18.7854 48.6309 19.3187 49.3307L22.5 46.906ZM19.4095 46.7944L19.3791 46.8306L22.4396 49.4061L22.4701 49.3699L19.4095 46.7944ZM19.3384 49.2803C20.4681 50.7901 21.8442 52.7377 22.859 54.3325L26.2337 52.185C25.1491 50.4806 23.7109 48.4474 22.5412 46.884L19.3384 49.2803ZM22.8666 54.3442C24.7575 57.2704 25.5096 59.6254 26.079 61.4127L29.8902 60.1985C29.2942 58.3275 28.4141 55.559 26.2261 52.1732L22.8666 54.3442ZM26.079 61.4127C26.3718 62.332 26.71 63.4528 27.2577 64.2803C27.5688 64.7505 27.9972 65.2148 28.6023 65.5458C29.2088 65.8775 29.8552 66.0001 30.4868 66.0001V62.0001C30.3761 62.0001 30.4208 61.9812 30.5217 62.0364C30.6212 62.0908 30.6401 62.1434 30.5934 62.0728C30.5347 61.9842 30.4435 61.8091 30.3155 61.4695C30.1883 61.1322 30.0592 60.7288 29.8902 60.1985L26.079 61.4127ZM30.4868 66.0001C31.1191 66.0001 31.766 65.877 32.3727 65.5445C32.9778 65.2128 33.4058 64.7478 33.7165 64.2775C34.2636 63.4493 34.6015 62.3278 34.8943 61.4074L31.0825 60.1949C30.9136 60.7256 30.7846 61.1296 30.6573 61.4675C30.5293 61.8076 30.4379 61.9835 30.379 62.0727C30.332 62.1439 30.3505 62.0914 30.4501 62.0368C30.5512 61.9814 30.5966 62.0001 30.4868 62.0001V66.0001ZM34.8943 61.4074C35.4637 59.617 36.2156 57.2591 38.1071 54.3321L34.7475 52.1611C32.5585 55.5486 31.6785 58.3211 31.0825 60.1949L34.8943 61.4074ZM38.1119 54.3246C40.1371 51.1599 42.2638 48.4916 44.3215 45.9121L41.1945 43.4177C39.1468 45.9846 36.8953 48.8047 34.7427 52.1686L38.1119 54.3246ZM44.3215 45.9121C49.2892 39.6848 53.9089 33.9595 53.9089 23.9928H49.9089C49.9089 32.4279 46.1795 37.1687 41.1945 43.4177L44.3215 45.9121ZM53.9089 23.9928C53.9089 20.098 52.9543 16.424 51.2704 13.1888L47.7223 15.0356C49.1177 17.7166 49.9089 20.759 49.9089 23.9928H53.9089ZM47.9756 12.8132L47.9678 12.8223L51.0093 15.4203L51.0171 15.4112L47.9756 12.8132ZM36.3454 5.48377C41.2513 7.03997 45.3397 10.4782 47.7141 15.0441L51.2629 13.1986C48.3999 7.6931 43.4703 3.54742 37.5549 1.671L36.3454 5.48377ZM35.4306 2.27686L35.42 2.28945L38.4802 4.86532L38.4908 4.85274L35.4306 2.27686ZM39.4092 28.9396C40.0172 27.8382 40.4191 26.6285 40.5885 25.3701L36.6242 24.8366C36.5213 25.6015 36.277 26.3368 35.9073 27.0064L39.4092 28.9396ZM40.5885 25.3701C40.8477 23.4435 40.5511 21.483 39.7334 19.7194L36.1045 21.4018C36.6015 22.4738 36.7818 23.6656 36.6242 24.8366L40.5885 25.3701ZM39.7334 19.7194C38.9158 17.9558 37.6112 16.4625 35.9734 15.4155L33.8189 18.7857C34.8145 19.4221 35.6075 20.3298 36.1045 21.4018L39.7334 19.7194ZM35.9734 15.4155C34.3355 14.3684 32.4326 13.8112 30.4887 13.8094L30.485 17.8094C31.6666 17.8105 32.8233 18.1492 33.8189 18.7857L35.9734 15.4155ZM30.4888 13.8094C28.9978 13.808 27.5247 14.1344 26.1738 14.7655L27.8669 18.3895C28.6865 18.0066 29.5803 17.8086 30.4849 17.8094L30.4888 13.8094ZM26.1738 14.7655C24.9791 15.3236 23.5473 16.5602 22.6533 17.4664L25.501 20.2754C26.3149 19.4503 27.3391 18.6361 27.8669 18.3895L26.1738 14.7655ZM22.5465 17.5836L22.3045 17.8714L25.3658 20.446L25.6078 20.1582L22.5465 17.5836ZM25.3254 20.4925L25.6972 20.0771L22.7166 17.4095L22.3448 17.8249L25.3254 20.4925ZM22.6786 17.4533C21.1308 19.2869 20.2848 21.6108 20.2914 24.0104L24.2914 23.9993C24.2874 22.548 24.7991 21.1424 25.7353 20.0333L22.6786 17.4533ZM20.2914 24.0049C20.2914 29.6315 24.8603 34.2003 30.4869 34.2003V30.2003C27.0694 30.2003 24.2914 27.4223 24.2914 24.0049H20.2914ZM30.485 34.2003C31.9667 34.2016 33.4308 33.8797 34.7752 33.257L33.094 29.6274C32.2776 30.0056 31.3885 30.2011 30.4887 30.2003L30.485 34.2003ZM34.7752 33.257C35.4792 32.9309 36.1416 32.5265 36.7502 32.0527L34.2935 28.8961C33.9238 29.1838 33.5216 29.4294 33.094 29.6274L34.7752 33.257ZM36.1374 26.6741L34.001 29.1755L37.0427 31.7733L39.1791 29.2719L36.1374 26.6741Z" fill="url(#paint0_linear_2573_404)" mask="url(#path-1-inside-1_2573_404)"/>
</g>
<defs>
<linearGradient id="paint0_linear_2573_404" x1="9.05261" y1="33.2854" x2="51.9089" y2="33.2854" gradientUnits="userSpaceOnUse">
<stop stop-color="#F86CA7"/>
<stop offset="1" stop-color="#FF7F18"/>
</linearGradient>
<clipPath id="clip0_2573_404">
<rect width="64" height="64" fill="white"/>
</clipPath>
</defs>
</svg>
