<svg width="64" height="64" viewBox="0 0 64 64" fill="none" xmlns="http://www.w3.org/2000/svg">
<g clip-path="url(#clip0_2558_315)">
<path d="M16.0125 8.4375C14.425 8.8 12.9 9.75 12.2625 10.8C11.95 11.3 9.00001 20.9375 9.00001 21.45C9.00001 22.2125 9.97501 22.5875 10.525 22.0375C10.7 21.8625 11.2625 20.2 12.25 16.9625C13.0625 14.3125 13.825 11.975 13.9375 11.75C14.3375 10.9875 15.7 10.35 17.3125 10.1875C19.075 10.0125 21.2 10.675 21.8125 11.6C22 11.9 24.2375 19 27.925 31C31.1125 41.4125 33.8125 50.225 33.9125 50.5875C34.0875 51.175 34.0875 51.2625 33.9 51.6375C33.3875 52.65 31.775 53.4125 30.1 53.425C28.375 53.45 28.5375 53.7 27.0875 48.6125C26.075 45.05 25.8125 44.2625 25.55 44.025L25.2375 43.75H17.8875H10.5375L10.275 44.0375C10.1 44.225 9.63751 45.65 8.78751 48.6125C7.33751 53.7 7.50001 53.4375 5.77501 53.4375C4.93751 53.4375 4.51251 53.375 3.91251 53.15C3.06251 52.825 2.22501 52.175 1.93751 51.625C1.71251 51.1875 1.32501 52.5625 6.00001 37.3375C10.0875 24.0375 9.96251 24.55 9.23751 24.1375C8.83751 23.9125 8.31251 24.0375 8.06251 24.4125C7.96251 24.5625 6.11251 30.475 3.93751 37.5375C-0.387495 51.6625 -0.324995 51.375 0.262505 52.5875C0.787505 53.675 2.35001 54.7375 4.12501 55.1875C5.33751 55.5 7.12501 55.4125 7.95001 54.9875C9.03751 54.425 9.21251 54.0625 10.3 50.2375C10.8375 48.35 11.3625 46.55 11.4625 46.225L11.6375 45.625H17.9375C23.825 45.625 24.2375 45.6375 24.3 45.8375C24.3375 45.9625 24.8125 47.65 25.375 49.6C25.925 51.5375 26.475 53.3625 26.575 53.6375C26.8375 54.275 27.6375 54.9625 28.425 55.1875C29.1625 55.4125 30.5875 55.425 31.525 55.2375C33.2 54.9 35.125 53.5875 35.6875 52.4375C36.2125 51.3375 36.3875 52 30.0125 31.25C26.775 20.7 24.025 11.7875 23.9 11.45C23.6625 10.7625 22.8125 9.75 22.1 9.3C21.8375 9.1375 21.1875 8.85 20.6625 8.675C19.4375 8.2625 17.2625 8.15 16.0125 8.4375Z" fill="url(#paint0_linear_2558_315)"/>
<path d="M17.325 18.9C17.05 19.15 16.625 20.5625 14.3125 28.7125C12.8375 33.95 11.625 38.375 11.625 38.5375C11.625 38.7 11.75 38.95 11.9125 39.1C12.2 39.375 12.225 39.375 17.8375 39.375C20.9375 39.375 23.575 39.3375 23.6875 39.3C23.7875 39.25 23.9625 39.0625 24.075 38.8625C24.25 38.5125 24.15 38.1 21.5 28.775C18.6125 18.5625 18.6375 18.625 17.925 18.625C17.775 18.625 17.5 18.75 17.325 18.9ZM20 30.475L21.9625 37.4375L17.9625 37.475C15.7625 37.4875 13.9375 37.475 13.9125 37.45C13.8625 37.4 17.625 23.9125 17.825 23.375C17.925 23.125 17.75 22.5375 20 30.475Z" fill="url(#paint1_linear_2558_315)"/>
<path d="M47.6875 24.075C43.275 24.75 40.35 26.125 39.325 28C39.025 28.55 38.975 28.7875 38.975 29.55C39 31.85 40.2375 33.75 41.9375 34.1375C42.7875 34.325 43.3125 34.225 44.4625 33.6125C44.9875 33.3375 45.8375 32.9625 46.3625 32.775C47.225 32.475 47.4875 32.45 49.1875 32.4375C50.9375 32.4375 51.1 32.4625 51.6875 32.75C52.9625 33.375 53.8 34.65 53.9625 36.2L54.025 36.8375L51.3 36.9125C48.5 36.9875 46.7 37.2 44.9375 37.6375C41.075 38.625 38.6875 40.6 37.6625 43.6875C37.35 44.6125 37.325 44.8375 37.3125 46.875V49.0625L37.75 50.3125C38.2875 51.8125 38.875 52.7375 39.9125 53.7125C42.2875 55.925 46.175 56.575 49.8125 55.3625C51.1875 54.9 52.2125 54.3375 53.5625 53.3L54.6 52.5125L54.6875 52.8375C54.925 53.825 56.075 54.8 57.425 55.1875C58.4625 55.4875 60.4 55.4 61.4375 55C62.3875 54.6375 63.5 53.5625 63.725 52.8C63.95 52.05 63.925 45.1375 63.7 44.85C63.3 44.325 62.4125 44.325 62.1375 44.8625C62.05 45.0125 62 46.3625 62 48.5625C62 52.275 61.9625 52.5 61.3375 52.9125C60.3625 53.55 58.425 53.6625 57.4125 53.15C56.625 52.75 56.5 52.4875 56.5 51.3C56.5 49.75 56.2375 49.25 55.425 49.25C55.175 49.25 54.8 49.5375 53.875 50.45C51.95 52.35 50.475 53.2625 48.55 53.75C47.325 54.0625 45.1875 54.0875 44.0125 53.8C40.775 53 38.95 50.175 39.1625 46.3125C39.475 40.875 43.4625 38.7625 53.3875 38.75C55.9625 38.75 55.95 38.7625 55.9125 37.0375C55.8875 34.95 55.3625 33.5 54.2125 32.275C52.7875 30.775 50.9625 30.225 48.3125 30.4875C46.5 30.675 45.525 30.9375 44.1375 31.65C43.475 31.9875 42.775 32.275 42.5875 32.275C41.7875 32.3 41.0125 31.175 40.9 29.8125C40.8375 29.0375 40.85 29.025 41.3625 28.475C42.9875 26.7 47.8375 25.55 51.75 25.9875C53.2625 26.1625 55.0125 26.5875 56.05 27.05C58.3875 28.0875 60.2 29.9875 61.1625 32.375C61.8 33.975 61.9 34.7875 61.9625 38.8125C62.025 42.3875 62.0375 42.575 62.2875 42.8375C62.625 43.225 63.175 43.2125 63.5625 42.8125L63.875 42.5125V39.1625C63.875 35.3125 63.725 33.9875 63.075 32.1C61.9125 28.6875 59.2875 26.1 55.75 24.875C54.0875 24.3 52.8125 24.1125 50.375 24.0625C49.1 24.0375 47.9 24.05 47.6875 24.075Z" fill="url(#paint2_linear_2558_315)"/>
<path d="M50.6625 41.1375C47.975 41.4875 46.175 42.4875 45.4875 44.0375C45.25 44.575 45.2 44.9 45.2 45.875C45.2 46.8875 45.25 47.1625 45.525 47.75C46.1125 49.0125 47.0875 49.7375 48.55 50.0125C51.1625 50.4875 54.6125 48.0875 55.6125 45.0875C55.95 44.075 56.1 42.1625 55.875 41.625C55.7875 41.4125 55.6125 41.1875 55.4875 41.125C55.225 40.975 51.775 40.9875 50.6625 41.1375ZM53.975 43.6C53.8625 45.1625 52.475 46.9875 50.8125 47.7625C50.0875 48.1 49.8875 48.15 49.1375 48.1C47.6875 48.025 47.0625 47.3 47.075 45.7375C47.0875 44.475 47.8125 43.7375 49.4625 43.325C50.3 43.1 51.9375 42.925 53.2375 42.8875L54.025 42.875L53.975 43.6Z" fill="url(#paint3_linear_2558_315)"/>
</g>
<defs>
<linearGradient id="paint0_linear_2558_315" x1="-0.0227661" y1="31.826" x2="35.9193" y2="31.826" gradientUnits="userSpaceOnUse">
<stop stop-color="#F86CA7"/>
<stop offset="1" stop-color="#FF7F18"/>
</linearGradient>
<linearGradient id="paint1_linear_2558_315" x1="11.625" y1="29" x2="24.1295" y2="29" gradientUnits="userSpaceOnUse">
<stop stop-color="#F86CA7"/>
<stop offset="1" stop-color="#FF7F18"/>
</linearGradient>
<linearGradient id="paint2_linear_2558_315" x1="37.3125" y1="40.0071" x2="63.8818" y2="40.0071" gradientUnits="userSpaceOnUse">
<stop stop-color="#F86CA7"/>
<stop offset="1" stop-color="#FF7F18"/>
</linearGradient>
<linearGradient id="paint3_linear_2558_315" x1="45.2" y1="45.5456" x2="55.982" y2="45.5456" gradientUnits="userSpaceOnUse">
<stop stop-color="#F86CA7"/>
<stop offset="1" stop-color="#FF7F18"/>
</linearGradient>
<clipPath id="clip0_2558_315">
<rect width="64" height="64" fill="white"/>
</clipPath>
</defs>
</svg>
