<svg width="80" height="80" viewBox="0 0 80 80" fill="none" xmlns="http://www.w3.org/2000/svg">
<g clip-path="url(#clip0_2533_149)">
<path d="M12.716 78.6512C18.0843 80.6728 20.6722 80.1315 58.5915 78.9188C63.616 78.7588 68.4105 78.3637 71.8623 75.332C74.5664 72.9742 75.9616 69.1073 75.4178 65.4805C74.9015 61.9525 72.5949 58.6545 69.4019 56.8755C64.6099 54.1876 58.5953 54.9615 53.9359 52.6211C48.8914 50.0983 48.2 45.7251 47.7174 44.4087C51.4467 41.3332 53.6371 36.8876 55.3736 32.3544C56.5175 32.947 58.0902 32.5507 59.1266 30.2916C59.1379 30.2653 59.1504 30.2403 59.1616 30.2153C62.9122 30.6029 63.9736 25.1071 60.2543 24.0857C60.163 23.018 59.8892 22.1966 59.4092 21.5303C59.1679 21.1965 58.8403 20.9289 58.4828 20.7027C59.5704 10.6374 54.8747 3.61137 49.1539 1.24227C43.8344 -0.941804 29.5347 -1.06807 23.9064 7.78074C22.0436 10.7362 21.2485 15.1093 21.5285 20.7652C21.2198 20.9764 20.9322 21.2265 20.7134 21.5303C20.2334 22.1979 19.9596 23.018 19.8683 24.0857C16.1715 25.1008 17.1804 30.6004 20.9622 30.2153C20.9735 30.2391 20.9847 30.2616 20.9947 30.2853C21.2673 30.8829 21.6711 31.6318 22.3762 32.1343C22.7875 32.4219 23.2688 32.5707 23.7276 32.5869C24.2565 34.1046 24.8828 35.5824 25.5979 37.0101C25.5854 37.2314 25.6692 37.4314 25.8742 37.5727C27.4257 40.5393 29.391 43.381 32.0489 45.3826C29.3347 49.3056 28.2358 51.0897 18.8932 54.5327C15.2901 55.8629 4.17472 59.4834 4.46977 68.5885C4.64729 73.4617 8.7379 77.1535 12.716 78.6512ZM40.0425 59.7422C40.5501 60.486 41.3315 61.0799 42.2954 61.3574C41.294 63.2765 38.6298 63.4002 37.5484 61.3737C38.6448 61.0974 39.49 60.496 40.0425 59.7422ZM41.5478 63.7253L45.8322 78.0762L34.5555 78.4362L39.0024 63.9741C39.8225 64.1791 40.6251 64.1541 41.5478 63.7253ZM54.1384 77.0598L54.866 77.7874L53.487 77.8311L53.4258 77.7699L54.1384 77.0598ZM58.8378 75.4733L59.953 76.5884L58.9916 77.5498C58.9628 77.5786 58.9641 77.6186 58.9491 77.6536C58.9416 77.6536 58.9328 77.6548 58.9253 77.6548C58.9128 77.5973 58.9028 77.5386 58.8591 77.4936L57.8389 76.4734L58.8378 75.4733ZM63.1347 74.2906L64.8262 75.9821L64.0861 76.7222L62.3946 75.0307L63.1347 74.2906ZM65.4463 71.9803C65.4501 71.984 65.4488 71.9902 65.4526 71.994L67.1353 73.6768L65.27 75.542L63.5785 73.8505L65.4463 71.9803ZM65.2688 76.4247L65.7601 76.916C65.3588 77.0097 64.9475 77.0898 64.5324 77.1598L65.2688 76.4247ZM63.7723 77.2935C63.0359 77.3961 62.2771 77.4636 61.5095 77.5198C61.5445 77.4111 61.542 77.2935 61.4557 77.2073L60.8369 76.5884L61.952 75.4733L63.7723 77.2935ZM60.9231 77.5586C60.5531 77.5811 60.1818 77.6023 59.8067 77.6198L60.3956 77.031L60.9231 77.5586ZM58.1627 77.6823L56.5787 77.7336L57.3964 76.916L58.1627 77.6823ZM71.0371 74.3931C69.7057 75.562 68.1092 76.2846 66.3589 76.761C66.3589 76.6809 66.3289 76.6022 66.2677 76.5422L65.7101 75.9846L67.5754 74.1193L68.543 75.087C68.6043 75.1482 68.6843 75.1782 68.7643 75.1782C68.7693 75.1782 68.7743 75.172 68.7793 75.172C68.6905 75.2945 68.6868 75.4608 68.7968 75.5708C68.8581 75.632 68.9381 75.662 69.0181 75.662C69.0981 75.662 69.1781 75.632 69.2394 75.5708L70.8059 74.0043L71.1171 74.3156C71.0896 74.3393 71.0671 74.3694 71.0396 74.3931H71.0371ZM70.6608 71.0326L71.776 72.1478L70.8046 73.1192L69.6894 72.004L70.6608 71.0326ZM69.2481 71.5614L68.648 70.9613C68.6518 70.9576 68.658 70.9588 68.6618 70.9551L69.6232 69.9937L70.2195 70.59L69.2481 71.5614ZM70.3633 73.5605L69.0718 74.8519C69.0694 74.7757 69.0431 74.7007 68.9856 74.6431L68.0179 73.6755L69.2481 72.4453L70.3633 73.5605ZM71.5585 73.8718L71.2472 73.5605L73.1625 71.6452C72.7386 72.4678 72.1936 73.2154 71.5585 73.8718ZM74.1864 65.7318C74.2001 65.8306 74.2001 65.9306 74.2114 66.0294L74.1013 65.9193L74.1138 65.9069C74.1626 65.8593 74.1764 65.7956 74.1864 65.7318ZM73.7925 66.4932C73.8163 66.5169 73.8501 66.5144 73.8776 66.5282L73.0637 67.3421C72.9412 67.4646 72.9412 67.6621 73.0637 67.7846C73.1249 67.8459 73.205 67.8759 73.285 67.8759C73.365 67.8759 73.445 67.8459 73.5063 67.7846L74.2764 67.0145C74.2801 67.8321 74.1801 68.646 73.9851 69.4374L72.2798 67.7321C72.2836 67.7284 72.2898 67.7296 72.2936 67.7259L73.6588 66.3607L73.7925 66.4932ZM68.7918 57.9669C71.631 59.5484 73.6825 62.4638 74.1651 65.5906C74.1501 65.548 74.1476 65.5005 74.1138 65.4655C73.9913 65.343 73.7938 65.343 73.6713 65.4655L73.66 65.4768L72.8137 64.6304C72.6911 64.5079 72.4936 64.5079 72.3711 64.6304C72.2486 64.7529 72.2486 64.9505 72.3711 65.073L73.2175 65.9193L71.8523 67.2846C71.8485 67.2883 71.8498 67.2946 71.846 67.2983L71.4284 66.8807C71.3059 66.7582 71.1084 66.7582 70.9859 66.8807C70.8634 67.0033 70.8634 67.2008 70.9859 67.3233L73.6213 69.9587C73.6725 70.01 73.74 70.0275 73.8075 70.0362C73.7963 70.0737 73.7863 70.1112 73.775 70.1475L72.2161 71.7065L71.1009 70.5913L72.3861 69.3061C72.5086 69.1836 72.5086 68.9861 72.3861 68.8635C72.2636 68.741 72.066 68.741 71.9435 68.8635L70.6583 70.1487L70.062 69.5524L70.8509 68.7635C70.9734 68.641 70.9734 68.4435 70.8509 68.321C70.7283 68.1984 70.5308 68.1984 70.4083 68.321L69.6194 69.1098L69.3506 68.841C69.2281 68.7185 69.0306 68.7185 68.9081 68.841C68.7856 68.9636 68.7856 69.1611 68.9081 69.2836L69.1781 69.5524L68.2167 70.5138C68.213 70.5175 68.2142 70.5238 68.2105 70.5275L67.6204 69.9374C67.4979 69.8149 67.3003 69.8149 67.1778 69.9374C67.0553 70.06 67.0553 70.2575 67.1778 70.38L68.8018 72.004L67.5716 73.2342L65.8889 71.5514C65.7676 71.4302 65.5738 71.4314 65.4513 71.5489C65.4476 71.5439 65.4488 71.5377 65.4451 71.5327C65.3225 71.4102 65.125 71.4102 65.0025 71.5327L63.086 73.4492C62.9822 73.423 62.8747 73.4305 62.7934 73.5105C62.7122 73.5905 62.7059 73.6992 62.7322 73.803L61.9483 74.5869L61.6795 74.3181C61.557 74.1956 61.3595 74.1956 61.2369 74.3181C61.1144 74.4406 61.1144 74.6381 61.2369 74.7607L61.5057 75.0294L60.3906 76.1446L59.2754 75.0294L60.1818 74.1231C60.3043 74.0005 60.3043 73.803 60.1818 73.6805C60.0593 73.558 59.8617 73.558 59.7392 73.6805L57.3901 76.0296L57.0051 75.6445C56.8825 75.522 56.685 75.522 56.5625 75.6445C56.44 75.7671 56.44 75.9646 56.5625 76.0871L56.9475 76.4722L55.6886 77.7311L54.5734 76.6159L55.3698 75.8196C55.4923 75.6971 55.4923 75.4995 55.3698 75.377C55.2473 75.2545 55.0498 75.2545 54.9272 75.377L54.0496 76.2559C53.9784 76.2621 53.9071 76.2834 53.8533 76.3371C53.7996 76.3909 53.7783 76.4622 53.7721 76.5334L52.9782 77.3273L52.5644 76.9135C52.4419 76.791 52.2444 76.791 52.1218 76.9135C51.9993 77.036 51.9993 77.2335 52.1218 77.356L52.5356 77.7699L52.4419 77.8636L47.1173 78.0336L42.6279 62.9927C43.0505 62.5939 43.3893 62.1063 43.6006 61.555C43.6031 61.55 43.6018 61.545 43.6031 61.5387C43.6143 61.5387 43.6256 61.5412 43.6368 61.5412C46.5498 61.5412 48.8864 59.3571 50.119 56.643C50.7316 55.2965 51.0817 53.8751 51.3955 52.4774C52.0206 52.9512 52.6707 53.3875 53.3695 53.7375C58.284 56.2042 64.2361 55.4115 68.7918 57.9669ZM50.3191 51.5922C49.9828 53.1212 49.6352 54.7027 48.9876 56.1266C46.3335 61.97 40.6489 60.7673 40.6889 57.8894C40.7114 56.2829 42.1216 55.4365 48.8013 49.8632C49.2677 50.4833 49.7665 51.0709 50.3191 51.5922ZM59.0354 24.6332C59.0454 24.9508 59.2916 25.2096 59.6079 25.2358C62.3671 25.4671 61.4582 29.6377 58.9641 28.9076C58.6566 28.8189 58.3328 28.9739 58.2115 29.2689C57.0576 32.0581 55.6024 31.9006 55.3648 29.9653C55.1998 28.7051 55.2123 24.5445 55.4311 23.3643C55.8711 21.109 57.5276 21.0552 58.3953 22.2629C58.7978 22.8192 59.0004 23.5718 59.0354 24.6332ZM24.9628 8.45084C30.2123 0.195864 43.8706 0.425899 48.6776 2.39869C53.7258 4.489 58.1952 10.7974 57.2813 20.2426C56.5312 20.1551 56.2249 20.3151 55.7461 20.6101C55.5561 19.8088 55.8436 18.3223 55.6536 17.4059C55.3198 15.8007 54.2359 14.558 52.8907 14.2392C51.3305 13.8691 49.9253 14.7418 48.6063 15.1068C44.687 16.1882 40.7651 13.0415 37.4922 11.41C30.6136 7.98202 26.6993 11.4225 26.1392 14.3092C25.6992 16.5708 27.4307 20.4376 25.0078 21.1527C24.4202 20.4689 23.6814 20.1101 22.7487 20.2526C22.5437 15.0768 23.2876 11.1087 24.9628 8.45084ZM34.663 12.739L33.7366 11.8126L33.8816 11.6676C33.9479 11.6013 33.9704 11.5138 33.9641 11.4263C34.4567 11.5388 34.9693 11.7013 35.4994 11.9038L34.663 12.739ZM33.294 11.37L33.2403 11.3163C33.2715 11.3213 33.3028 11.325 33.334 11.33L33.294 11.37ZM24.9316 32.2719C24.9478 32.2619 24.9628 32.2519 24.9778 32.2431C25.0553 32.1881 25.1041 32.1143 25.1703 32.0518L25.8454 32.7269L25.3091 33.2633C25.1816 32.9345 25.0491 32.6069 24.9316 32.2719ZM25.5591 31.558C25.6154 31.458 25.6817 31.363 25.7242 31.258C25.8504 31.1455 26.248 30.7429 26.368 30.6229L27.1669 31.4217C27.1581 31.4292 27.1444 31.4255 27.1369 31.4342L26.2868 32.2844L25.5591 31.558ZM26.1242 29.4952C26.1055 29.4765 26.0792 29.4802 26.058 29.4677C26.0855 29.0251 26.1055 28.4688 26.1155 27.8675C26.2192 27.8912 26.288 27.9137 26.3993 27.8025L26.6168 27.5849L27.5707 28.5388L26.3705 29.7402L26.1242 29.4952ZM26.1217 27.1936C26.1217 27.1599 26.1217 27.1249 26.1217 27.0898L26.173 27.1411L26.1217 27.1936ZM26.2342 26.3197C26.2017 26.2872 26.158 26.286 26.1167 26.271C26.1117 25.8522 26.1005 25.4384 26.0855 25.0483L26.6968 24.437L27.6332 25.3733C27.6932 25.4334 27.7732 25.4634 27.852 25.4646L26.6143 26.7023L26.2342 26.3197ZM26.0405 24.2082C26.0292 24.0419 26.0155 23.8869 26.0017 23.7406L26.2555 23.9944L26.0405 24.2082ZM25.9592 22.8155C25.9179 22.7742 25.8629 22.7667 25.8104 22.7542C25.7654 22.5867 25.7242 22.4154 25.6654 22.2629C26.143 22.0554 26.5743 21.7078 26.9043 21.2502L27.952 22.2991L26.6968 23.5543L25.9592 22.8155ZM27.4832 17.2259L27.4569 17.0396L28.7734 18.3561L27.5507 19.5787C27.6695 18.7699 27.5819 17.9547 27.4832 17.2259ZM27.6932 16.3908L27.3369 16.0345C27.2456 15.0681 27.2969 14.4105 27.7132 13.6266L28.272 14.1854C28.3421 14.333 28.2558 14.2467 28.4046 14.318L29.0759 14.9893L27.7095 16.3558C27.6982 16.3645 27.702 16.3795 27.6932 16.3908ZM29.0009 14.0304L30.1461 12.884L30.6624 13.4003L29.516 14.5467L29.0009 14.0304ZM28.5583 13.5878L28.0595 13.089C28.3921 12.6615 28.8084 12.3002 29.2747 12.0126L29.7035 12.4414L28.5583 13.5878ZM22.1286 29.759C21.8786 29.2277 21.7623 28.7313 21.1597 28.9064C18.5531 29.6652 17.8217 25.4596 20.5159 25.2346C20.8322 25.2083 21.0785 24.9495 21.0885 24.632C21.1235 23.5718 21.326 22.818 21.7286 22.2604C22.2749 21.499 23.3238 21.1302 24.0289 21.8941C24.0464 22.1229 24.1777 22.3216 24.3777 22.4154C24.5652 22.7942 24.6578 23.1818 24.6915 23.358C24.9115 24.5445 24.9253 28.7051 24.759 29.9653C24.5665 31.4267 23.8539 31.6418 23.0963 31.1129C22.7387 30.8579 22.4412 30.4416 22.1286 29.759ZM28.0158 38.8291C32.1864 40.9207 37.2196 41.4832 42.0466 39.9505C42.8817 40.8981 44.1869 41.1219 45.2621 40.6569C46.0147 40.3306 46.6248 39.6842 46.9398 38.8816C47.2686 38.0402 47.2461 36.8726 46.451 36.1624C45.7321 35.5198 44.7245 35.3898 43.6868 35.8086C42.4754 36.2975 41.3915 37.5051 41.5265 38.7903C36.6258 40.3018 31.1175 39.5367 26.8393 36.6963C26.3743 35.7861 25.9405 34.8573 25.5529 33.9059L26.288 33.1707L26.8743 33.7571C26.9969 33.8796 27.1944 33.8796 27.3169 33.7571C27.4394 33.6346 27.4394 33.437 27.3169 33.3145L26.7306 32.7282L27.5807 31.8781C27.6094 31.8493 27.6082 31.8105 27.6232 31.7755C27.6407 31.778 27.6545 31.7955 27.6707 31.7955C27.7507 31.7955 27.8307 31.7655 27.892 31.7043C28.0145 31.5818 28.0145 31.3842 27.892 31.2617L26.8118 30.1828L28.5933 28.4C28.7159 28.2775 28.7159 28.08 28.5933 27.9575C28.4708 27.835 28.2733 27.835 28.1508 27.9575L28.0108 28.0975L27.0569 27.1436L28.6359 25.5646C28.7584 25.4421 28.7584 25.2446 28.6359 25.1221C28.5133 24.9995 28.3158 24.9995 28.1933 25.1221L28.1658 25.1496C28.1658 25.0708 28.1358 24.9908 28.0745 24.9308L27.1381 23.9944L28.3933 22.7392L28.6771 23.023C28.7996 23.1455 28.9972 23.1455 29.1197 23.023C29.2422 22.9005 29.2422 22.7029 29.1197 22.5804L28.8359 22.2979L29.2484 21.8853C29.371 21.7628 29.371 21.5653 29.2484 21.4428C29.1259 21.3202 28.9284 21.3202 28.8059 21.4428L28.3933 21.8553L27.2744 20.7364L29.2159 18.7949C29.3497 18.9199 29.5347 18.9049 29.6485 18.7911C29.7685 18.6711 29.7673 18.4811 29.6523 18.3586L30.3661 17.6447C30.4886 17.5222 30.4886 17.3247 30.3661 17.2021C30.2436 17.0796 30.0461 17.0796 29.9235 17.2021L29.2122 17.9135L28.1108 16.8121C28.122 16.8033 28.137 16.8071 28.147 16.7971L29.5135 15.4306L29.8398 15.7569C29.9623 15.8794 30.1598 15.8794 30.2823 15.7569C30.4049 15.6344 30.4049 15.4369 30.2823 15.3144L29.956 14.9881L31.1025 13.8416L31.1575 13.8966C31.28 14.0192 31.4775 14.0192 31.6 13.8966C31.7226 13.7741 31.7226 13.5766 31.6 13.4541L30.5861 12.4402L30.7787 12.2477C31.0687 11.9576 30.6299 11.5125 30.3361 11.8051L30.1436 11.9976L29.8498 11.7038C30.8249 11.2588 31.4163 11.2212 32.2701 11.2312L32.8502 11.8113L31.6475 13.014C31.525 13.1365 31.525 13.3341 31.6475 13.4566C31.7701 13.5791 31.9676 13.5791 32.0901 13.4566L33.2928 12.2539L34.3079 13.2691C34.3154 13.3366 34.3342 13.4041 34.3855 13.4553C34.4367 13.5066 34.5055 13.5241 34.5717 13.5328L34.6055 13.5666C34.8493 13.8104 35.2668 13.5466 35.0806 13.204L36.1132 12.1714C36.1445 12.1851 36.1757 12.1989 36.2082 12.2126L36.8758 12.8802L36.3582 13.3978C36.2357 13.5203 36.2357 13.7179 36.3582 13.8404C36.4808 13.9629 36.6783 13.9629 36.8008 13.8404L37.3184 13.3228L37.9285 13.9329C38.051 14.0554 38.2485 14.0554 38.371 13.9329C38.4936 13.8104 38.4936 13.6129 38.371 13.4903L37.9447 13.064C40.7839 14.6243 44.7945 17.4522 48.9389 16.3108C50.0528 16.0045 51.5167 15.1931 52.6032 15.4531C53.5971 15.6894 54.2371 16.7308 54.4297 17.6585C54.6922 18.9086 54.0421 20.3238 54.7947 21.594C54.5309 22.0266 54.3184 22.5317 54.2021 23.128C53.9396 24.5432 53.9571 28.8526 54.1234 30.1203C54.1784 30.5729 54.3184 31.0742 54.4284 31.3267C49.1964 47.0253 36.2082 52.3711 28.0158 38.8291ZM42.7679 38.499C42.8192 37.9315 43.423 37.2614 44.1531 36.9663C44.6557 36.7638 45.2121 36.7325 45.6171 37.0938C45.9472 37.3889 45.9459 37.9877 45.7746 38.4265C45.3658 39.4667 44.1894 40.0418 43.228 39.3229C43.3705 38.9491 43.158 38.5778 42.7679 38.499ZM33.0615 46.1077C37.3896 48.7643 42.4254 48.1367 46.681 45.2013C47.2236 46.834 47.2536 47.4766 48.0925 48.8281C41.6378 54.2139 40.8289 54.7427 40.0425 55.9929C39.1962 54.7427 38.3685 54.2501 31.1875 48.7356C32.0301 47.7042 32.3189 47.1803 33.0615 46.1077ZM30.3474 49.6669C37.7585 55.3578 39.4137 56.2892 39.4387 57.8907C39.4825 60.7886 31.7476 63.3365 28.3058 51.4047C29.0272 50.8821 29.716 50.3095 30.3474 49.6669ZM19.3282 55.7078C21.9099 54.7539 24.6478 53.7551 27.2256 52.1348C28.7396 56.7792 31.315 61.5424 36.1757 61.5424C36.192 61.5424 36.207 61.54 36.2232 61.54C36.532 62.3538 37.1171 63.0289 37.8447 63.4827L33.234 78.4787C22.6475 78.8175 17.8718 79.2576 13.1561 77.4811C9.56552 76.1284 5.87498 72.8416 5.7212 68.5472C5.46367 60.5861 15.3201 57.1868 19.3282 55.7078Z" fill="url(#paint0_linear_2533_149)"/>
</g>
<defs>
<linearGradient id="paint0_linear_2533_149" x1="4.464" y1="40" x2="75.534" y2="40" gradientUnits="userSpaceOnUse">
<stop stop-color="#F86CA7"/>
<stop offset="1" stop-color="#FF7F18"/>
</linearGradient>
<clipPath id="clip0_2533_149">
<rect width="80" height="80" fill="white"/>
</clipPath>
</defs>
</svg>
