<svg width="46" height="64" viewBox="0 0 46 64" fill="none" xmlns="http://www.w3.org/2000/svg">
<g clip-path="url(#clip0_2573_384)">
<path d="M22.6139 62.9593L5.05558 58.0791L1.093 13.5792H44.1899L40.223 58.0716L22.6139 62.9593Z" stroke="url(#paint0_linear_2573_384)" stroke-width="2"/>
<path d="M4.21304 0.00286865H7.09394V2.85262H9.72928V0.00286865H12.6103V8.6326H9.7294V5.74286H7.09406V8.6326H4.21329V0.00286865H4.21304ZM16.3988 2.86461H13.8627V0.00286865H21.8174V2.86461H19.28V8.6326H16.399L16.3988 2.86461ZM23.0797 0.00286865H26.0836L27.9315 3.0351L29.7776 0.00286865H32.7827V8.6326H29.9137V4.35523L27.9316 7.42358H27.8822L25.8986 4.35523V8.6326H23.0799V0.00286865H23.0797ZM34.2165 0.00286865H37.0982V5.78011H41.1496V8.6326H34.2165V0.00286865Z" fill="url(#paint1_linear_2573_384)"/>
<mask id="path-3-inside-1_2573_384" fill="white">
<path fill-rule="evenodd" clip-rule="evenodd" d="M15.1399 33.527H22.622H22.6414H34.2717H35.7993L35.661 35.0511L34.3288 49.9936L34.2436 50.9526L22.6414 54.172V54.1729L22.6153 54.1801L11.0029 50.9526L10.2086 42.0407H15.8994L16.303 46.5674L22.6167 48.2743L22.622 48.2729V48.2724L28.9445 46.5638L29.6026 39.2027H22.6414H22.622H9.95535L8.56203 23.5617L8.42633 22.039H22.622H22.6414H36.8227L36.6871 23.5617L36.4289 26.4391L36.3151 27.7149H22.6414H22.622H14.6218L15.1399 33.527Z"/>
</mask>
<path fill-rule="evenodd" clip-rule="evenodd" d="M15.1399 33.527H22.622H22.6414H34.2717H35.7993L35.661 35.0511L34.3288 49.9936L34.2436 50.9526L22.6414 54.172V54.1729L22.6153 54.1801L11.0029 50.9526L10.2086 42.0407H15.8994L16.303 46.5674L22.6167 48.2743L22.622 48.2729V48.2724L28.9445 46.5638L29.6026 39.2027H22.6414H22.622H9.95535L8.56203 23.5617L8.42633 22.039H22.622H22.6414H36.8227L36.6871 23.5617L36.4289 26.4391L36.3151 27.7149H22.6414H22.622H14.6218L15.1399 33.527Z" fill="url(#paint2_linear_2573_384)"/>
<path d="M15.1399 33.527L14.1438 33.6158L14.2251 34.527H15.1399V33.527ZM35.7993 33.527L36.7952 33.6174L36.8942 32.527H35.7993V33.527ZM35.661 35.0511L34.6651 34.9607L34.6649 34.9623L35.661 35.0511ZM34.3288 49.9936L33.3328 49.9048L33.3328 49.9051L34.3288 49.9936ZM34.2436 50.9526L34.5109 51.9162L35.1783 51.731L35.2396 51.0411L34.2436 50.9526ZM22.6414 54.172L22.374 53.2084L21.6414 53.4117V54.172H22.6414ZM22.6414 54.1729L22.9092 55.1364L23.6414 54.9329V54.1729H22.6414ZM22.6153 54.1801L22.3476 55.1436L22.6153 55.2181L22.8831 55.1436L22.6153 54.1801ZM11.0029 50.9526L10.0068 51.0413L10.0683 51.7307L10.7351 51.916L11.0029 50.9526ZM10.2086 42.0407V41.0407H9.11556L9.2126 42.1295L10.2086 42.0407ZM15.8994 42.0407L16.8955 41.9519L16.8142 41.0407H15.8994V42.0407ZM16.303 46.5674L15.307 46.6563L15.3689 47.3508L16.042 47.5328L16.303 46.5674ZM22.6167 48.2743L22.3557 49.2396L22.6155 49.3099L22.8754 49.2403L22.6167 48.2743ZM22.622 48.2729L22.8807 49.2388L23.622 49.0403V48.2729H22.622ZM22.622 48.2724L22.3611 47.3071L21.622 47.5068V48.2724H22.622ZM28.9445 46.5638L29.2054 47.5292L29.8785 47.3473L29.9406 46.6529L28.9445 46.5638ZM29.6026 39.2027L30.5986 39.2918L30.6959 38.2027H29.6026V39.2027ZM9.95535 39.2027L8.9593 39.2915L9.04047 40.2027H9.95535V39.2027ZM8.56203 23.5617L9.55808 23.473L9.55808 23.473L8.56203 23.5617ZM8.42633 22.039V21.039H7.33325L7.43028 22.1278L8.42633 22.039ZM36.8227 22.039L37.8188 22.1277L37.9157 21.039H36.8227V22.039ZM36.6871 23.5617L37.6831 23.6511L37.6832 23.6504L36.6871 23.5617ZM36.4289 26.4391L35.4329 26.3497L35.4328 26.3503L36.4289 26.4391ZM36.3151 27.7149V28.7149H37.23L37.3112 27.8037L36.3151 27.7149ZM14.6218 27.7149V26.7149H13.5287L13.6258 27.8037L14.6218 27.7149ZM22.622 32.527H15.1399V34.527H22.622V32.527ZM22.6414 32.527H22.622V34.527H22.6414V32.527ZM34.2717 32.527H22.6414V34.527H34.2717V32.527ZM35.7993 32.527H34.2717V34.527H35.7993V32.527ZM36.6569 35.1415L36.7952 33.6174L34.8034 33.4366L34.6651 34.9607L36.6569 35.1415ZM35.3249 50.0824L36.657 35.1399L34.6649 34.9623L33.3328 49.9048L35.3249 50.0824ZM35.2396 51.0411L35.3249 50.0822L33.3328 49.9051L33.2475 50.864L35.2396 51.0411ZM22.9088 55.1356L34.5109 51.9162L33.9762 49.989L22.374 53.2084L22.9088 55.1356ZM23.6414 54.1729V54.172H21.6414V54.1729H23.6414ZM22.8831 55.1436L22.9092 55.1364L22.3736 53.2094L22.3475 53.2167L22.8831 55.1436ZM10.7351 51.916L22.3476 55.1436L22.8831 53.2167L11.2707 49.9891L10.7351 51.916ZM9.2126 42.1295L10.0068 51.0413L11.9989 50.8638L11.2047 41.952L9.2126 42.1295ZM15.8994 41.0407H10.2086V43.0407H15.8994V41.0407ZM17.2991 46.4786L16.8955 41.9519L14.9034 42.1295L15.307 46.6563L17.2991 46.4786ZM22.8777 47.309L16.564 45.6021L16.042 47.5328L22.3557 49.2396L22.8777 47.309ZM22.3633 47.3069L22.358 47.3083L22.8754 49.2403L22.8807 49.2388L22.3633 47.3069ZM21.622 48.2724V48.2729H23.622V48.2724H21.622ZM28.6837 45.5985L22.3611 47.3071L22.8829 49.2378L29.2054 47.5292L28.6837 45.5985ZM28.6065 39.1137L27.9485 46.4748L29.9406 46.6529L30.5986 39.2918L28.6065 39.1137ZM22.6414 40.2027H29.6026V38.2027H22.6414V40.2027ZM22.622 40.2027H22.6414V38.2027H22.622V40.2027ZM9.95535 40.2027H22.622V38.2027H9.95535V40.2027ZM7.56597 23.6505L8.9593 39.2915L10.9514 39.114L9.55808 23.473L7.56597 23.6505ZM7.43028 22.1278L7.56598 23.6505L9.55808 23.473L9.42238 21.9502L7.43028 22.1278ZM22.622 21.039H8.42633V23.039H22.622V21.039ZM22.6414 21.039H22.622V23.039H22.6414V21.039ZM36.8227 21.039H22.6414V23.039H36.8227V21.039ZM37.6832 23.6504L37.8188 22.1277L35.8267 21.9503L35.6911 23.4731L37.6832 23.6504ZM37.4249 26.5285L37.6831 23.6511L35.6912 23.4723L35.4329 26.3497L37.4249 26.5285ZM37.3112 27.8037L37.4249 26.5279L35.4328 26.3503L35.3191 27.6261L37.3112 27.8037ZM22.6414 28.7149H36.3151V26.7149H22.6414V28.7149ZM22.622 28.7149H22.6414V26.7149H22.622V28.7149ZM14.6218 28.7149H22.622V26.7149H14.6218V28.7149ZM16.1359 33.4382L15.6179 27.6261L13.6258 27.8037L14.1438 33.6158L16.1359 33.4382Z" fill="#FAF8EC" mask="url(#path-3-inside-1_2573_384)"/>
</g>
<defs>
<linearGradient id="paint0_linear_2573_384" x1="0" y1="38.2882" x2="45.283" y2="38.2882" gradientUnits="userSpaceOnUse">
<stop stop-color="#F86CA7"/>
<stop offset="1" stop-color="#FF7F18"/>
</linearGradient>
<linearGradient id="paint1_linear_2573_384" x1="4.21304" y1="4.31774" x2="41.1496" y2="4.31774" gradientUnits="userSpaceOnUse">
<stop stop-color="#F86CA7"/>
<stop offset="1" stop-color="#FF7F18"/>
</linearGradient>
<linearGradient id="paint2_linear_2573_384" x1="8.42633" y1="38.1096" x2="36.8227" y2="38.1096" gradientUnits="userSpaceOnUse">
<stop stop-color="#F86CA7"/>
<stop offset="1" stop-color="#FF7F18"/>
</linearGradient>
<clipPath id="clip0_2573_384">
<rect width="45.283" height="64" fill="white"/>
</clipPath>
</defs>
</svg>
