<svg width="64" height="64" viewBox="0 0 64 64" fill="none" xmlns="http://www.w3.org/2000/svg">
<g clip-path="url(#clip0_2558_163)">
<path d="M36 11.1467C35.264 11.1467 34.6666 10.5493 34.6666 9.81333V5.33333C34.6666 3.864 33.4693 2.66667 32 2.66667C30.5306 2.66667 29.3333 3.864 29.3333 5.33333V9.81333C29.3333 10.5493 28.736 11.1467 28 11.1467C27.264 11.1467 26.6666 10.552 26.6666 9.81333V5.33333C26.6666 2.392 29.0586 0 32 0C34.9413 0 37.3333 2.392 37.3333 5.33333V9.81333C37.3333 10.552 36.736 11.1467 36 11.1467Z" fill="url(#paint0_linear_2558_163)"/>
<path d="M32 64C26.8533 64 22.6666 59.8133 22.6666 54.6666C22.6666 53.9306 23.264 53.3333 24 53.3333C24.736 53.3333 25.3333 53.9306 25.3333 54.6666C25.3333 58.3413 28.3253 61.3333 32 61.3333C35.6746 61.3333 38.6666 58.3413 38.6666 54.6666C38.6666 53.9306 39.264 53.3333 40 53.3333C40.736 53.3333 41.3333 53.9306 41.3333 54.6666C41.3333 59.8133 37.1466 64 32 64Z" fill="url(#paint1_linear_2558_163)"/>
<path d="M54.6666 56H9.33331C7.12798 56 5.33331 54.2053 5.33331 52C5.33331 50.8293 5.84265 49.7227 6.73331 48.96C10.936 45.408 13.3333 40.24 13.3333 34.768V26.6667C13.3333 16.3733 21.7066 8 32 8C42.2933 8 50.6666 16.3733 50.6666 26.6667V34.768C50.6666 40.2427 53.064 45.408 57.2453 48.9413C58.1573 49.7227 58.6666 50.8293 58.6666 52C58.6666 54.2053 56.8746 56 54.6666 56ZM32 10.6667C23.176 10.6667 16 17.8427 16 26.6667V34.768C16 41.0293 13.2586 46.936 8.47731 50.9787C8.17065 51.24 7.99998 51.6107 7.99998 52C7.99998 52.736 8.59731 53.3333 9.33331 53.3333H54.6666C55.4026 53.3333 56 52.736 56 52C56 51.6107 55.8293 51.24 55.5333 50.9867C50.744 46.936 48 41.0267 48 34.768V26.6667C48 17.8427 40.824 10.6667 32 10.6667Z" fill="url(#paint2_linear_2558_163)"/>
</g>
<defs>
<linearGradient id="paint0_linear_2558_163" x1="26.6666" y1="5.57333" x2="37.3333" y2="5.57333" gradientUnits="userSpaceOnUse">
<stop stop-color="#F86CA7"/>
<stop offset="1" stop-color="#FF7F18"/>
</linearGradient>
<linearGradient id="paint1_linear_2558_163" x1="22.6666" y1="58.6666" x2="41.3333" y2="58.6666" gradientUnits="userSpaceOnUse">
<stop stop-color="#F86CA7"/>
<stop offset="1" stop-color="#FF7F18"/>
</linearGradient>
<linearGradient id="paint2_linear_2558_163" x1="5.33331" y1="32" x2="58.6666" y2="32" gradientUnits="userSpaceOnUse">
<stop stop-color="#F86CA7"/>
<stop offset="1" stop-color="#FF7F18"/>
</linearGradient>
<clipPath id="clip0_2558_163">
<rect width="64" height="64" fill="white"/>
</clipPath>
</defs>
</svg>
