<svg width="64" height="64" viewBox="0 0 64 64" fill="none" xmlns="http://www.w3.org/2000/svg">
<g clip-path="url(#clip0_2558_300)">
<path d="M15.9125 0.187511C14.75 0.550011 13.775 1.33751 13.2625 2.35001C12.8 3.26251 12.75 4.08751 12.75 10.875C12.75 17.2625 12.7375 17.4625 12.5 17.6875C12.375 17.8 12.05 18.4 11.8 19.0125C11.55 19.625 11.2625 20.125 11.175 20.125C11.0875 20.125 10.55 20.325 9.975 20.5625L8.9375 21L7.8625 20.5625C6.6 20.05 6.3875 20.0375 5.675 20.3875C5.0875 20.6625 3.4375 22.3375 3.25 22.825C3.025 23.4 3.125 24.075 3.55 25.05L3.975 26.025L3.5625 26.925C3.325 27.4125 3.1125 27.9625 3.0625 28.15C2.9875 28.4125 2.8 28.5375 1.9375 28.875C0.2875 29.5125 0 29.9875 0 32.025C0 34 0.3 34.5 1.9375 35.125C2.8 35.4625 2.9875 35.5875 3.0625 35.85C3.1125 36.0375 3.325 36.5875 3.5625 37.075L3.975 37.975L3.55 38.95C3.125 39.925 3.025 40.6 3.25 41.175C3.4375 41.6625 5.0875 43.3375 5.675 43.6125C6.3875 43.9625 6.6375 43.9375 7.875 43.4375L8.925 43L10.0625 43.4625C10.675 43.7125 11.25 43.975 11.3375 44.05C11.4125 44.125 11.65 44.6125 11.8625 45.1375C12.0875 45.6625 12.375 46.2 12.5 46.3125C12.7375 46.5375 12.75 46.75 12.75 53.125C12.75 57.325 12.8 59.975 12.8875 60.45C13.15 61.8875 14 62.9625 15.3625 63.6125L16.0625 63.9375L31.7375 63.975C45.7125 64 47.5 63.9875 48.1 63.8125C49.725 63.3375 50.8 62.1375 51.1125 60.4375C51.2 59.9875 51.25 57.7 51.25 54.425V49.15L55.9125 49.1C60.3875 49.05 60.5875 49.05 61.2625 48.775C62.2625 48.375 63.0375 47.65 63.525 46.65L63.9375 45.8125V30.9375V16.0625L63.6125 15.3625C62.9625 14 61.8875 13.15 60.45 12.8875C60.0125 12.8 57.975 12.75 55.475 12.75H51.25V8.52501C51.25 6.00001 51.2 4.00001 51.1125 3.56251C50.8 1.87501 49.7375 0.675011 48.125 0.200012C47.525 0.025013 45.75 1.14441e-05 31.95 0.0125122C19.4875 0.0125122 16.3375 0.0500107 15.9125 0.187511ZM47.875 2.40001C48.9625 2.96251 49.1125 3.46251 49.125 6.46251V8.50001H32H14.875V6.40001C14.8875 3.46251 15.0375 2.96251 16.125 2.40001L16.675 2.12501H32H47.325L47.875 2.40001ZM49.1 11.7125L49.1375 12.75H42.7125C38.6375 12.75 36.025 12.8 35.55 12.8875C34.1125 13.15 33.0375 14 32.3875 15.3625L32.0625 16.0625V30.9375V45.8125L32.475 46.65C32.9625 47.65 33.7375 48.375 34.7375 48.775C35.4375 49.0625 35.5 49.0625 42.2875 49.1L49.125 49.1375L49.1 51.225L49.0625 53.3125H32H14.9375V50.125V46.9375L15.8125 46.8625C17.175 46.7625 17.425 46.55 18.05 45L18.4625 43.9625L19.2 43.6875C19.6125 43.55 20.15 43.325 20.4 43.2L20.875 42.975L21.9875 43.425C23.2125 43.925 23.45 43.95 24.0375 43.7C24.575 43.475 25.8875 42.2625 26.3625 41.5375C26.875 40.775 26.8625 40.225 26.325 38.9375L25.9 37.9375L26.1875 37.375C26.3375 37.0625 26.5625 36.525 26.675 36.175L26.8875 35.5375L27.95 35.125C29.5625 34.5 29.875 33.9875 29.875 32C29.875 30.0375 29.5 29.45 27.8375 28.825C26.9625 28.5 26.875 28.4375 26.7375 28.0125C26.6625 27.7625 26.4375 27.225 26.25 26.8L25.9125 26.0375L26.325 25.05C26.8625 23.775 26.875 23.225 26.3625 22.4625C25.8875 21.7375 24.575 20.525 24.0375 20.3C23.45 20.05 23.2125 20.075 21.9875 20.575L20.875 21.025L20.4 20.8C20.15 20.675 19.6125 20.45 19.2 20.3125L18.4625 20.0375L18.05 19C17.425 17.45 17.175 17.2375 15.8125 17.1375L14.9375 17.0625L14.9 14C14.8875 12.325 14.9 10.875 14.9375 10.7875C14.975 10.65 18.3375 10.625 32.025 10.65L49.0625 10.6875L49.1 11.7125ZM60.175 15C60.85 15.15 61.2625 15.475 61.6 16.125C61.85 16.6375 61.875 16.8375 61.875 19.025V21.375H48H34.125V19.025C34.125 16.8375 34.15 16.6375 34.4125 16.125C34.725 15.5 35.15 15.15 35.7625 15C36.3625 14.8625 59.575 14.85 60.175 15ZM16.275 20.325C16.5 20.9125 16.7875 21.4875 16.9 21.625C17.0125 21.75 17.5 21.975 17.9625 22.125C18.425 22.2875 19.1875 22.6 19.65 22.825C20.1125 23.0625 20.6375 23.25 20.825 23.25C21 23.25 21.6125 23.05 22.1875 22.8C23.3625 22.3 23.4375 22.3 24.1625 23.1125L24.6125 23.6125L24.125 24.8C23.85 25.45 23.625 26.0625 23.625 26.1625C23.625 26.2625 23.7875 26.6375 23.9875 27.0125C24.1875 27.3875 24.5 28.1375 24.6875 28.6875C24.8875 29.2375 25.15 29.8125 25.3 29.9625C25.45 30.1125 26.0375 30.425 26.625 30.65L27.6875 31.075V32V32.925L26.9375 33.225C25.15 33.925 25.2 33.8875 24.75 35.1625C24.5375 35.8 24.1875 36.6 23.9875 36.95C23.7875 37.3 23.625 37.7125 23.625 37.85C23.625 38 23.85 38.625 24.1125 39.25L24.6125 40.3875L24.1625 40.8875C23.4375 41.7 23.3625 41.7 22.1875 41.2C21.6125 40.95 21 40.75 20.825 40.75C20.6375 40.75 20.1125 40.9375 19.65 41.175C19.1875 41.4 18.425 41.7125 17.9625 41.875C17.5 42.025 17.0125 42.25 16.9 42.375C16.7875 42.5125 16.5 43.0875 16.275 43.675L15.85 44.75H14.925C14.15 44.75 13.975 44.7125 13.9125 44.525C13.6375 43.7375 13.075 42.4625 12.925 42.3125C12.825 42.225 12.375 42.025 11.9125 41.8625C11.4375 41.7125 10.6875 41.4 10.225 41.175C9.7625 40.9375 9.2375 40.75 9.05 40.75C8.875 40.75 8.275 40.95 7.7125 41.1875C7.1625 41.425 6.6375 41.625 6.5625 41.625C6.475 41.625 6.15 41.35 5.8375 41.0125L5.25 40.3875L5.75 39.2C6.025 38.5375 6.25 37.9375 6.25 37.85C6.25 37.775 6.0625 37.3375 5.825 36.8875C5.6 36.4375 5.2875 35.6625 5.125 35.1875C4.975 34.7 4.725 34.1875 4.575 34.0375C4.4375 33.8875 3.8375 33.575 3.25 33.35L2.1875 32.925V32V31.075L3.25 30.65C4.5375 30.1375 4.8125 29.9 5 29.15C5.075 28.825 5.3875 28.0375 5.7 27.4125C6 26.775 6.25 26.1875 6.25 26.1125C6.25 26.0375 6.025 25.4375 5.75 24.775L5.25 23.575L5.8375 22.975C6.1625 22.65 6.4875 22.375 6.5625 22.375C6.6375 22.375 7.1625 22.575 7.7125 22.8125C8.275 23.05 8.875 23.25 9.05 23.25C9.2375 23.25 9.7625 23.0625 10.2375 22.825C10.7 22.5875 11.4625 22.275 11.9 22.125C12.35 21.975 12.8125 21.7625 12.925 21.6375C13.1 21.45 13.45 20.675 13.8875 19.525C13.9875 19.275 14.075 19.25 14.925 19.25H15.85L16.275 20.325ZM61.875 34.3375C61.875 44.65 61.8625 45.2125 61.6375 45.7C61.5125 45.9875 61.2125 46.35 60.9875 46.5125L60.5625 46.8125H48H35.4375L35.0125 46.5125C34.7875 46.35 34.4875 45.9875 34.3625 45.7C34.1375 45.2125 34.125 44.65 34.125 34.3375V23.5H48H61.875V34.3375ZM49.125 57.525C49.1125 60.5375 48.9625 61.0375 47.875 61.5875L47.325 61.875H32H16.675L16.125 61.6C15.0375 61.0375 14.8875 60.5375 14.875 57.5875V55.5H32H49.125V57.525Z" fill="url(#paint0_linear_2558_300)"/>
<path d="M27.25 4.4125C26.575 4.75 26.4875 5.65 27.0875 6.125C27.3375 6.325 27.6 6.375 28.3 6.375C29.2125 6.3625 29.475 6.2625 29.725 5.7875C29.9625 5.35 29.9 5 29.5125 4.6125C29.1875 4.2875 29.0625 4.25 28.35 4.25C27.9125 4.25 27.425 4.325 27.25 4.4125Z" fill="url(#paint1_linear_2558_300)"/>
<path d="M32.375 4.6125C32.1625 4.8125 32 5.1 32 5.25C32 5.6125 32.325 6.2 32.5625 6.3C32.675 6.3375 33.6375 6.375 34.6875 6.375C36.525 6.375 36.625 6.3625 36.95 6.075C37.4 5.7 37.4375 5 37.025 4.5875C36.7625 4.325 36.6125 4.3125 34.75 4.275L32.75 4.2375L32.375 4.6125Z" fill="url(#paint2_linear_2558_300)"/>
<path d="M36.6625 17.3125C36.05 17.7375 36.2125 18.7625 36.9375 19.0625C38.325 19.65 39.825 18.8375 39.375 17.75C39.2875 17.5375 39.1125 17.3125 38.9875 17.25C38.625 17.05 36.975 17.1 36.6625 17.3125Z" fill="url(#paint3_linear_2558_300)"/>
<path d="M41.8875 17.45C41.5375 17.8875 41.5625 18.4125 41.925 18.8375C42.2125 19.1625 42.2875 19.1875 43.1625 19.1875C43.9875 19.1875 44.15 19.15 44.425 18.8875C44.85 18.4875 44.875 17.7875 44.4625 17.4C44.2125 17.1625 44.025 17.125 43.1625 17.125C42.2125 17.125 42.125 17.15 41.8875 17.45Z" fill="url(#paint4_linear_2558_300)"/>
<path d="M52.6625 17.3125C52.05 17.7375 52.2125 18.7625 52.9375 19.0625C53.5625 19.325 58.4375 19.325 59.0625 19.0625C59.7875 18.7625 59.95 17.7375 59.3375 17.3125C58.9375 17.0375 53.0625 17.0375 52.6625 17.3125Z" fill="url(#paint5_linear_2558_300)"/>
<path d="M12.775 23.75C9.83748 24.525 7.46248 26.9125 6.66248 29.8875C6.37498 30.9625 6.38748 33.0375 6.67498 34.125C7.69998 37.8875 11.05 40.5 14.8625 40.5C16.3125 40.5 17.4375 40.2375 18.7375 39.6125C20.7875 38.625 22.5875 36.4125 23.2 34.125C23.4875 33.0375 23.4875 30.9625 23.2 29.875C22.5875 27.5875 20.7875 25.375 18.7375 24.3875C18.1375 24.1 17.275 23.7875 16.8 23.6875C15.6 23.4375 13.8875 23.4625 12.775 23.75ZM16.4875 25.8125C17.6375 26.1125 18.525 26.625 19.4125 27.5125C21.375 29.4625 21.8625 32.2375 20.6875 34.7375C19.7125 36.7875 17.3375 38.375 15.2375 38.375H14.8625L14.9 37.35L14.9375 36.3375L15.725 36.175C19.025 35.5 20.2875 31.6125 18.0375 29.1125C17.425 28.4375 16.675 28.025 15.725 27.825L14.9375 27.6625L14.9 26.65L14.8625 25.625H15.3375C15.6 25.625 16.1125 25.7125 16.4875 25.8125ZM12.1375 28.825C11.7375 29.1875 11.3625 29.7 11.1 30.2125C10.7625 30.9125 10.7 31.15 10.7 32C10.7 32.85 10.7625 33.0875 11.1125 33.8C11.375 34.325 11.725 34.8125 12.1375 35.1625L12.7625 35.7125L12.725 36.8625L12.6875 38.0125L12.0125 37.675C9.66248 36.5 8.18748 33.6 8.62498 31.025C8.94998 29.075 10.3375 27.1625 12.0125 26.325L12.6875 25.9875L12.725 27.125L12.7625 28.2625L12.1375 28.825ZM16.175 30.3C16.775 30.75 17 31.225 17 32.0375C17 33.2875 16.0375 34.175 14.7875 34.0875C13.0375 33.9625 12.2 31.9625 13.3375 30.6125C13.8 30.0625 14.3125 29.8625 15.0875 29.9125C15.55 29.95 15.85 30.05 16.175 30.3Z" fill="url(#paint6_linear_2558_300)"/>
<path d="M37.2875 25.9375C36.3625 26.5 36.25 26.925 36.25 29.7625C36.25 31.1 36.3125 32.3875 36.375 32.625C36.5125 33.1375 37.1375 33.8 37.6625 33.9875C37.9 34.0875 41.2625 34.125 48 34.125C54.7375 34.125 58.1 34.0875 58.3375 33.9875C58.8625 33.8 59.4875 33.1375 59.625 32.625C59.6875 32.3875 59.75 31.1 59.75 29.7625C59.75 27.55 59.725 27.275 59.4875 26.7875C59.3125 26.425 59.05 26.1375 58.7 25.9375L58.1625 25.625H47.9875H37.8125L37.2875 25.9375ZM57.625 29.875V32H48H38.375V29.875V27.75H48H57.625V29.875Z" fill="url(#paint7_linear_2558_300)"/>
<path d="M38.825 36.525C38.325 36.9625 38.2875 37.5 38.6875 37.975L39.025 38.375H44.2625H49.5125L49.8125 38.0625C50.25 37.6375 50.225 37.0875 49.7625 36.6125L49.4 36.25H44.2625H39.1375L38.825 36.525Z" fill="url(#paint8_linear_2558_300)"/>
<path d="M52.6125 36.6125C52.225 37 52.1625 37.35 52.4 37.7875C52.6875 38.325 52.85 38.3625 54.9625 38.375H56.975L57.3125 37.975C57.7125 37.5 57.675 36.9625 57.175 36.525C56.875 36.2625 56.75 36.25 54.925 36.25H52.975L52.6125 36.6125Z" fill="url(#paint9_linear_2558_300)"/>
<path d="M39 40.6625C38.3375 41 38.225 41.8625 38.775 42.375C39.0375 42.6125 39.2 42.625 43.2125 42.625H47.3875L47.6875 42.3125C48.0875 41.925 48.0875 41.375 47.7 40.9125L47.4 40.5625L43.35 40.525C40.25 40.5 39.2375 40.5375 39 40.6625Z" fill="url(#paint10_linear_2558_300)"/>
<path d="M50.75 40.65C50.075 41.0125 49.9625 41.8375 50.5 42.375C50.725 42.6 50.925 42.625 52.8 42.625H54.85L55.1875 42.225C55.575 41.775 55.55 41.2375 55.125 40.8125C54.9 40.5875 54.675 40.5625 52.9625 40.525C51.6 40.5 50.975 40.5375 50.75 40.65Z" fill="url(#paint11_linear_2558_300)"/>
<path d="M29.275 57.825C29.1125 57.9375 28.9375 58.1625 28.8625 58.325C28.7 58.7625 29.0125 59.4625 29.4375 59.625C29.8625 59.7875 34.1375 59.7875 34.5625 59.625C34.9875 59.4625 35.3 58.7625 35.1375 58.325C34.8875 57.675 34.65 57.625 32 57.625C29.9625 57.625 29.5125 57.6625 29.275 57.825Z" fill="url(#paint12_linear_2558_300)"/>
</g>
<defs>
<linearGradient id="paint0_linear_2558_300" x1="0" y1="31.9973" x2="63.9375" y2="31.9973" gradientUnits="userSpaceOnUse">
<stop stop-color="#F86CA7"/>
<stop offset="1" stop-color="#FF7F18"/>
</linearGradient>
<linearGradient id="paint1_linear_2558_300" x1="26.686" y1="5.3125" x2="29.8645" y2="5.3125" gradientUnits="userSpaceOnUse">
<stop stop-color="#F86CA7"/>
<stop offset="1" stop-color="#FF7F18"/>
</linearGradient>
<linearGradient id="paint2_linear_2558_300" x1="32" y1="5.30625" x2="37.3123" y2="5.30625" gradientUnits="userSpaceOnUse">
<stop stop-color="#F86CA7"/>
<stop offset="1" stop-color="#FF7F18"/>
</linearGradient>
<linearGradient id="paint3_linear_2558_300" x1="36.2852" y1="18.1916" x2="39.4564" y2="18.1916" gradientUnits="userSpaceOnUse">
<stop stop-color="#F86CA7"/>
<stop offset="1" stop-color="#FF7F18"/>
</linearGradient>
<linearGradient id="paint4_linear_2558_300" x1="41.6385" y1="18.1562" x2="44.7583" y2="18.1562" gradientUnits="userSpaceOnUse">
<stop stop-color="#F86CA7"/>
<stop offset="1" stop-color="#FF7F18"/>
</linearGradient>
<linearGradient id="paint5_linear_2558_300" x1="52.2852" y1="18.1828" x2="59.7149" y2="18.1828" gradientUnits="userSpaceOnUse">
<stop stop-color="#F86CA7"/>
<stop offset="1" stop-color="#FF7F18"/>
</linearGradient>
<linearGradient id="paint6_linear_2558_300" x1="6.453" y1="32.0079" x2="23.4156" y2="32.0079" gradientUnits="userSpaceOnUse">
<stop stop-color="#F86CA7"/>
<stop offset="1" stop-color="#FF7F18"/>
</linearGradient>
<linearGradient id="paint7_linear_2558_300" x1="36.25" y1="29.875" x2="59.75" y2="29.875" gradientUnits="userSpaceOnUse">
<stop stop-color="#F86CA7"/>
<stop offset="1" stop-color="#FF7F18"/>
</linearGradient>
<linearGradient id="paint8_linear_2558_300" x1="38.4155" y1="37.3125" x2="50.1256" y2="37.3125" gradientUnits="userSpaceOnUse">
<stop stop-color="#F86CA7"/>
<stop offset="1" stop-color="#FF7F18"/>
</linearGradient>
<linearGradient id="paint9_linear_2558_300" x1="52.2605" y1="37.3125" x2="57.5844" y2="37.3125" gradientUnits="userSpaceOnUse">
<stop stop-color="#F86CA7"/>
<stop offset="1" stop-color="#FF7F18"/>
</linearGradient>
<linearGradient id="paint10_linear_2558_300" x1="38.4241" y1="41.5713" x2="47.9891" y2="41.5713" gradientUnits="userSpaceOnUse">
<stop stop-color="#F86CA7"/>
<stop offset="1" stop-color="#FF7F18"/>
</linearGradient>
<linearGradient id="paint11_linear_2558_300" x1="50.1602" y1="41.5713" x2="55.4618" y2="41.5713" gradientUnits="userSpaceOnUse">
<stop stop-color="#F86CA7"/>
<stop offset="1" stop-color="#FF7F18"/>
</linearGradient>
<linearGradient id="paint12_linear_2558_300" x1="28.8188" y1="58.6859" x2="35.1812" y2="58.6859" gradientUnits="userSpaceOnUse">
<stop stop-color="#F86CA7"/>
<stop offset="1" stop-color="#FF7F18"/>
</linearGradient>
<clipPath id="clip0_2558_300">
<rect width="64" height="64" fill="white"/>
</clipPath>
</defs>
</svg>
