<svg width="64" height="64" viewBox="0 0 64 64" fill="none" xmlns="http://www.w3.org/2000/svg">
<g clip-path="url(#clip0_2558_241)">
<path d="M20.3344 24.9505C20.1638 24.6157 19.8299 24.3959 19.4556 24.3714L10.4824 23.773C10.0174 23.7272 9.58754 24.0152 9.41792 24.4482L2.9491 40.9802C2.77523 41.424 2.91711 41.9285 3.29685 42.2175C3.48672 42.3625 3.71497 42.4351 3.9421 42.4351C4.16709 42.4351 4.39222 42.3647 4.58209 42.2219L9.95129 38.1955L13.0775 38.8205C13.5874 38.9219 14.0971 38.6424 14.2827 38.155C15.9616 33.7574 17.9827 29.6682 20.2876 26.0024C20.4871 25.6843 20.5052 25.2843 20.3344 24.9505ZM12.6166 36.5528L9.90116 36.0099C9.60466 35.9513 9.29529 36.0217 9.05217 36.2029L6.30145 38.2656L11.1192 25.953L17.5592 26.3818C15.7034 29.523 14.0459 32.9338 12.6166 36.5528Z" fill="url(#paint0_linear_2558_241)"/>
<path d="M40.2274 53.519L39.629 44.5447C39.6034 44.1692 39.3836 43.8355 39.0487 43.6647C38.7149 43.4941 38.3149 43.5111 37.9971 43.7116C34.3302 46.0165 30.242 48.0377 25.8445 49.7164C25.3581 49.9009 25.0765 50.4108 25.179 50.9217L25.804 54.0479L21.7777 59.416C21.4918 59.7978 21.4929 60.3226 21.7819 60.7023C21.9878 60.9732 22.3045 61.1236 22.6309 61.1236C22.761 61.1236 22.8923 61.0991 23.0202 61.0521L39.5522 54.5833C39.9852 54.4139 40.2582 53.9829 40.2274 53.519ZM25.7335 57.6968L27.7962 54.9461C27.9776 54.704 28.048 54.3948 27.9882 54.0971L27.4454 51.3827C31.0653 49.9534 34.4752 48.2959 37.6163 46.4401L38.0461 52.879L25.7335 57.6968Z" fill="url(#paint1_linear_2558_241)"/>
<path d="M30.931 32.0005H23.7443C23.3572 32.0005 23.0009 32.2107 22.812 32.5488L13.7919 48.7566C13.5573 49.179 13.6361 49.708 13.9839 50.043C14.1876 50.2392 14.4552 50.3416 14.7241 50.3416C14.914 50.3416 15.1049 50.2915 15.2755 50.187L31.4833 40.3787C31.8022 40.1857 31.9974 39.8401 31.9974 39.4669V33.0672C31.9976 32.4784 31.5197 32.0005 30.931 32.0005ZM29.8645 38.8662L17.6105 46.2822L24.3705 34.1348V34.1337H29.8645V38.8662Z" fill="url(#paint2_linear_2558_241)"/>
<path d="M63.9461 1.02798C63.9024 0.508607 63.4908 0.0968607 62.9713 0.0531111C62.6172 0.0253614 27.4935 -2.42674 12.2904 37.3932C12.14 37.7869 12.2349 38.2305 12.5325 38.5281L17.6041 43.5997C17.842 43.8376 18.1747 43.9463 18.5086 43.9016C18.8403 43.8535 19.1305 43.6531 19.2926 43.3597L24.3738 34.1338H29.8646V38.879L20.5832 44.7388C20.3091 44.9127 20.1288 45.2007 20.0926 45.5228C20.0563 45.8449 20.1693 46.1659 20.3987 46.3953L25.4703 51.4669C25.674 51.6706 25.946 51.7794 26.2244 51.7794C26.3524 51.7794 26.4814 51.757 26.6051 51.709C66.427 36.5047 63.976 1.3811 63.9461 1.02798ZM58.3508 19.9514C54.6081 29.2114 46.0434 41.8004 26.4876 49.4681L22.8505 45.831L31.5006 40.3701C31.8098 40.1738 31.9976 39.8336 31.9976 39.4677V33.0682C31.9976 32.4794 31.5197 32.0015 30.931 32.0015H23.7422C23.3529 32.0015 22.9955 32.2138 22.8078 32.554L18.1073 41.0888L14.5311 37.5115C27.8774 3.46408 56.3253 2.07109 61.8555 2.14897C61.895 4.63632 61.6668 11.7461 58.3508 19.9514Z" fill="url(#paint3_linear_2558_241)"/>
<path d="M18.2706 47.1088C18.0391 46.8017 17.6701 46.6523 17.3085 46.6907C17.3458 46.3281 17.1965 45.9601 16.8903 45.7286C15.282 44.5127 13.2064 44.1085 11.1938 44.6182C9.05742 45.1611 7.31031 46.6181 6.40157 48.6179L0.0960051 62.491C-0.0884931 62.8963 -0.00211895 63.3731 0.312503 63.6866C0.516251 63.8914 0.789248 63.9991 1.06662 63.9991C1.21599 63.9991 1.36637 63.9671 1.50824 63.9031L15.3814 57.5965C17.3801 56.6888 18.8371 54.9417 19.3799 52.8054C19.8908 50.7949 19.4866 48.7183 18.2706 47.1088ZM17.3128 52.2806C16.931 53.7856 15.905 55.0154 14.4992 55.6553L3.21472 60.7845L8.34392 49.499C8.98279 48.0933 10.2137 47.0672 11.7186 46.6854C12.1144 46.5852 12.5121 46.5361 12.9046 46.5361C13.5691 46.5361 14.2186 46.6779 14.8106 46.9542L13.7952 48.7514C13.5595 49.1684 13.631 49.6922 13.9701 50.0303C14.3092 50.3705 14.833 50.4409 15.249 50.2051L17.0462 49.1887C17.4835 50.1294 17.5827 51.2161 17.3128 52.2806Z" fill="url(#paint4_linear_2558_241)"/>
<path d="M63.9461 1.02916C63.9024 0.509788 63.4906 0.0980419 62.9713 0.0542923C62.5553 0.0211676 52.668 -0.727575 41.0401 4.62887C40.7234 4.77387 40.4982 5.06612 40.4364 5.40962C40.3745 5.75311 40.4855 6.10498 40.7319 6.35136L57.6479 23.2674C57.8496 23.4691 58.1216 23.5799 58.4021 23.5799C58.4649 23.5799 58.5279 23.5746 58.5908 23.5639C58.9343 23.5021 59.2254 23.2771 59.3715 22.9602C64.729 11.3323 63.9803 1.44403 63.9461 1.02916ZM58.0564 20.6575L43.3418 5.94286C51.8542 2.34952 59.3085 2.10202 61.8566 2.14477C61.8993 4.695 61.6593 12.1259 58.0564 20.6575Z" fill="url(#paint5_linear_2558_241)"/>
<path d="M47.1047 16.8946C43.5177 13.3076 37.6825 13.3076 34.0956 16.8946C30.5086 20.4815 30.5086 26.3167 34.0956 29.9037C35.8885 31.6977 38.2446 32.5937 40.5996 32.5937C42.9557 32.5937 45.3107 31.6967 47.1047 29.9037C50.6916 26.3167 50.6916 20.4814 47.1047 16.8946ZM45.5966 28.3955C42.8416 31.1504 38.3588 31.1504 35.6038 28.3955C32.8488 25.6405 32.8488 21.1577 35.6038 18.4027C36.9808 17.0257 38.7908 16.3367 40.5997 16.3367C42.4087 16.3367 44.2187 17.0257 45.5967 18.4027C48.3515 21.1577 48.3515 25.6405 45.5966 28.3955Z" fill="url(#paint6_linear_2558_241)"/>
<path d="M42.72 25.5201C41.551 26.6912 39.6483 26.6901 38.4782 25.5201C37.3092 24.3501 37.3092 22.4483 38.4782 21.2782C39.6472 20.1092 41.5499 20.1082 42.72 21.2782C43.136 21.6952 43.8123 21.6952 44.2282 21.2782C44.6452 20.8612 44.6452 20.1871 44.2282 19.7701C42.2283 17.7692 38.9709 17.7692 36.97 19.7701C34.969 21.7709 34.969 25.0273 36.97 27.0282C37.9705 28.0287 39.2857 28.5289 40.5997 28.5289C41.9148 28.5289 43.2288 28.0287 44.2282 27.0282C44.6452 26.6112 44.6452 25.9371 44.2282 25.5201C43.8122 25.1031 43.136 25.1031 42.72 25.5201Z" fill="url(#paint7_linear_2558_241)"/>
</g>
<defs>
<linearGradient id="paint0_linear_2558_241" x1="2.87558" y1="33.1017" x2="20.4509" y2="33.1017" gradientUnits="userSpaceOnUse">
<stop stop-color="#F86CA7"/>
<stop offset="1" stop-color="#FF7F18"/>
</linearGradient>
<linearGradient id="paint1_linear_2558_241" x1="21.5642" y1="52.3358" x2="40.2297" y2="52.3358" gradientUnits="userSpaceOnUse">
<stop stop-color="#F86CA7"/>
<stop offset="1" stop-color="#FF7F18"/>
</linearGradient>
<linearGradient id="paint2_linear_2558_241" x1="13.6577" y1="41.1711" x2="31.9974" y2="41.1711" gradientUnits="userSpaceOnUse">
<stop stop-color="#F86CA7"/>
<stop offset="1" stop-color="#FF7F18"/>
</linearGradient>
<linearGradient id="paint3_linear_2558_241" x1="12.22" y1="25.8973" x2="63.9845" y2="25.8973" gradientUnits="userSpaceOnUse">
<stop stop-color="#F86CA7"/>
<stop offset="1" stop-color="#FF7F18"/>
</linearGradient>
<linearGradient id="paint4_linear_2558_241" x1="0" y1="54.2009" x2="19.5961" y2="54.2009" gradientUnits="userSpaceOnUse">
<stop stop-color="#F86CA7"/>
<stop offset="1" stop-color="#FF7F18"/>
</linearGradient>
<linearGradient id="paint5_linear_2558_241" x1="40.4195" y1="11.7904" x2="64.0001" y2="11.7904" gradientUnits="userSpaceOnUse">
<stop stop-color="#F86CA7"/>
<stop offset="1" stop-color="#FF7F18"/>
</linearGradient>
<linearGradient id="paint6_linear_2558_241" x1="31.4053" y1="23.399" x2="49.7949" y2="23.399" gradientUnits="userSpaceOnUse">
<stop stop-color="#F86CA7"/>
<stop offset="1" stop-color="#FF7F18"/>
</linearGradient>
<linearGradient id="paint7_linear_2558_241" x1="35.4693" y1="23.3992" x2="44.5409" y2="23.3992" gradientUnits="userSpaceOnUse">
<stop stop-color="#F86CA7"/>
<stop offset="1" stop-color="#FF7F18"/>
</linearGradient>
<clipPath id="clip0_2558_241">
<rect width="64" height="64" fill="white"/>
</clipPath>
</defs>
</svg>
