<svg width="80" height="80" viewBox="0 0 80 80" fill="none" xmlns="http://www.w3.org/2000/svg">
<g clip-path="url(#clip0_2618_208)">
<path d="M73.3345 33.3332C70.1678 33.3371 67.4391 35.5644 66.8011 38.6667H51.9217C51.6704 36.4166 50.7843 34.2844 49.3669 32.5187L59.9005 21.9845C62.756 23.8719 66.5765 23.2905 68.7413 20.6394C70.9054 17.9882 70.7114 14.1287 68.2914 11.7087C65.8707 9.28873 62.0112 9.09406 59.3601 11.2588C56.709 13.4236 56.1282 17.2441 58.015 20.0996L47.4814 30.6332C45.7158 29.2158 43.5835 28.3297 41.3334 28.0784V13.199C44.6871 12.5147 46.9769 9.40201 46.6331 5.99695C46.2893 2.59189 43.4227 0 40.0001 0C36.5774 0 33.7108 2.59189 33.367 5.99695C33.0226 9.40201 35.3131 12.5147 38.6667 13.199V28.0797C36.4166 28.331 34.2844 29.2171 32.5187 30.6345L21.9845 20.1009C23.8719 17.2454 23.2905 13.4249 20.6394 11.2601C17.9882 9.09536 14.1287 9.29003 11.7087 11.71C9.28873 14.13 9.09406 17.9895 11.2588 20.6407C13.4236 23.2918 17.2441 23.8732 20.0996 21.9858L30.6332 32.52C29.2158 34.285 28.3297 36.4173 28.0784 38.6667H13.199C12.5147 35.313 9.40201 33.0226 5.99695 33.367C2.59189 33.7108 0 36.5774 0 40.0001C0 43.4227 2.59189 46.2893 5.99695 46.6331C9.40201 46.9769 12.5147 44.6871 13.199 41.3334H28.0797C28.331 43.5835 29.2171 45.7157 30.6345 47.4814L20.1009 58.015C17.2454 56.1282 13.4249 56.709 11.2601 59.3601C9.09536 62.0112 9.29003 65.8707 11.71 68.2914C14.13 70.7114 17.9895 70.9054 20.6407 68.7413C23.2918 66.5765 23.8732 62.756 21.9858 59.9005L32.52 49.3669C34.285 50.7843 36.4173 51.6697 38.6667 51.9217V66.8011C35.3131 67.4854 33.0226 70.5981 33.367 74.0032C33.7108 77.4082 36.5774 80.0001 40.0001 80.0001C43.4227 80.0001 46.2893 77.4082 46.6331 74.0032C46.9769 70.5981 44.6871 67.4854 41.3334 66.8011V51.9217C43.5835 51.6704 45.7158 50.7843 47.4814 49.3669L58.015 59.9005C56.1282 62.756 56.709 66.5765 59.3601 68.7413C62.0112 70.9054 65.8707 70.7114 68.2914 68.2914C70.7114 65.8707 70.9054 62.0112 68.7413 59.3601C66.5765 56.709 62.756 56.1282 59.9005 58.015L49.3669 47.4814C50.7843 45.7157 51.6704 43.5835 51.9217 41.3334H66.8011C67.5023 44.7711 70.7479 47.0765 74.2252 46.6071C77.7019 46.1376 80.2202 43.0542 79.9851 39.5541C79.7501 36.0533 76.8425 33.3338 73.3345 33.3332ZM6.66559 44.0002C4.45653 44.0002 2.66546 42.2091 2.66546 40.0001C2.66546 37.791 4.45653 35.9999 6.66559 35.9999C8.87465 35.9999 10.6657 37.791 10.6657 40.0001C10.6657 42.2091 8.87465 44.0002 6.66559 44.0002ZM60.7436 13.5994C62.3055 12.0369 64.8388 12.0369 66.4007 13.5994C67.9633 15.1613 67.9633 17.6946 66.4007 19.2565C64.818 20.767 62.3276 20.767 60.7449 19.2565C59.183 17.6946 59.183 15.1626 60.7449 13.6007L60.7436 13.5994ZM35.9999 6.66559C35.9999 4.45653 37.791 2.66546 40.0001 2.66546C42.2091 2.66546 44.0002 4.45653 44.0002 6.66559C44.0002 8.87465 42.2091 10.6657 40.0001 10.6657C37.791 10.6657 35.9999 8.87465 35.9999 6.66559ZM13.5994 19.2565C12.0369 17.6946 12.0362 15.1613 13.5988 13.5994C15.1607 12.0369 17.694 12.0369 19.2559 13.5994C20.8178 15.1613 20.8178 17.6946 19.2552 19.2565C17.6725 20.767 15.1822 20.767 13.5994 19.2565ZM19.2565 66.4007C17.6738 67.9118 15.1835 67.9118 13.6007 66.4007C12.0382 64.8388 12.0375 62.3062 13.6001 60.7436C15.162 59.181 17.6953 59.181 19.2572 60.7436C20.8191 62.3062 20.8191 64.8388 19.2565 66.4007ZM44.0002 73.3345C44.0002 75.5436 42.2091 77.3347 40.0001 77.3347C37.791 77.3347 35.9999 75.5436 35.9999 73.3345C35.9999 71.1255 37.791 69.3344 40.0001 69.3344C42.2091 69.3344 44.0002 71.1255 44.0002 73.3345ZM40.0001 49.3337C34.8449 49.3337 30.6664 45.1545 30.6664 40.0001C30.6664 34.8449 34.8449 30.6664 40.0001 30.6664C45.1545 30.6664 49.3337 34.8449 49.3337 40.0001C49.3272 45.1519 45.1519 49.3272 40.0001 49.3337ZM66.4007 60.7436C67.9626 62.3055 67.9626 64.8375 66.4007 66.3994C64.818 67.9105 62.3276 67.9105 60.7449 66.3994C59.7052 65.3955 59.2878 63.9078 59.6537 62.5093C60.0203 61.1108 61.1121 60.0183 62.5106 59.6524C63.9091 59.2865 65.3968 59.7032 66.4007 60.7436ZM73.3345 44.0002C71.1255 44.0002 69.3344 42.2091 69.3344 40.0001C69.3344 37.791 71.1255 35.9999 73.3345 35.9999C75.5436 35.9999 77.3347 37.791 77.3347 40.0001C77.3347 42.2091 75.5436 44.0002 73.3345 44.0002Z" fill="url(#paint0_linear_2618_208)"/>
</g>
<defs>
<linearGradient id="paint0_linear_2618_208" x1="0" y1="40.0001" x2="80.0003" y2="40.0001" gradientUnits="userSpaceOnUse">
<stop stop-color="#F86CA7"/>
<stop offset="1" stop-color="#FF7F18"/>
</linearGradient>
<clipPath id="clip0_2618_208">
<rect width="80" height="80" fill="white"/>
</clipPath>
</defs>
</svg>
