<svg width="64" height="64" viewBox="0 0 64 64" fill="none" xmlns="http://www.w3.org/2000/svg">
<path d="M8.4 4.43751C6.4625 4.86251 4.85 6.50001 4.4375 8.46251C4.2875 9.15001 4.25 10.85 4.25 17.45V25.6L3.2875 25.65C1.825 25.725 0.975 26.2375 0.3375 27.425L0.0625 27.9375V42.6875V57.4375L0.3375 57.95C0.4875 58.225 0.8375 58.6625 1.1125 58.9125C2.1 59.8 0.625 59.75 23.3875 59.75C38.125 59.75 43.95 59.7125 44.1625 59.6125C44.65 59.3875 44.7875 58.9875 44.725 58.075C44.5625 56.0375 42.9875 54.1875 40.8875 53.55C40.5 53.4375 39.6625 53.375 38.275 53.375H36.25L36.275 50.15L36.3125 46.9375H42.6875H49.0625L49.125 52.25L49.1875 57.5625L49.5375 58.1625C49.925 58.8125 50.725 59.4125 51.5 59.625C51.75 59.7 53.9 59.75 56.5125 59.75C61.6625 59.75 62.0125 59.7 62.8875 58.9125C63.1625 58.6625 63.5125 58.225 63.6625 57.95L63.9375 57.4375V45.875C63.9375 34.8375 63.925 34.2875 63.7 33.875C63.075 32.6875 62.1375 32.1125 60.725 32.025L59.75 31.9625V20.6375C59.75 11.2375 59.7125 9.16251 59.5625 8.46251C59.1375 6.46251 57.5375 4.86251 55.5375 4.43751C54.3 4.17501 9.6125 4.17501 8.4 4.43751ZM55.6375 6.63751C56.3125 6.95001 56.95 7.56251 57.275 8.22501L57.5625 8.81251L57.6 20.4L57.625 32H54.7125C52.425 32 51.675 32.0375 51.2375 32.1875C49.9 32.65 49.125 33.8 49.125 35.3375V36.25H37.375H25.625V32.4625C25.625 29.5625 25.5875 28.525 25.45 28L25.2625 27.3125L30.7 21.875C35.6375 16.925 36.125 16.4 36.125 16.025C36.125 15.45 35.65 15 35.0375 15C34.5875 15 34.375 15.2 29.125 20.4375C23.8 25.75 23.6625 25.8875 23.325 25.75C23.1 25.675 20.1625 25.625 14.675 25.625H6.375V17.525C6.375 12.4625 6.425 9.22501 6.5125 8.87501C6.7625 7.76251 7.6375 6.83751 8.725 6.55001C9.1875 6.42501 14.075 6.40001 32.25 6.41251C53.125 6.43751 55.225 6.45001 55.6375 6.63751ZM23.0875 28.05L23.4375 28.35V40.8375V53.3125L12.7875 53.35L2.125 53.375V40.925V28.475L2.4875 28.1125L2.85 27.75H12.8H22.7375L23.0875 28.05ZM61.5125 34.4875L61.875 34.85V44.1125V53.375H56.5625H51.25V44.0875C51.25 34.2875 51.2375 34.5875 51.8125 34.275C51.975 34.175 53.5625 34.1375 56.6 34.125H61.15L61.5125 34.4875ZM49.1 41.5875L49.125 44.75H37.375H25.625V41.5625V38.375L37.35 38.4L49.0625 38.4375L49.1 41.5875ZM27.725 50.15L27.75 53.375H26.6875H25.625V50.125V46.8625L26.6625 46.9L27.6875 46.9375L27.725 50.15ZM34.125 50.125V53.375H32H29.875V50.125V46.875H32H34.125V50.125ZM23.5 56C23.5 56.725 23.225 57.3 22.8 57.475C22.525 57.5875 19.9875 57.625 12.6 57.6L2.7625 57.5625L2.475 57.2875C2.275 57.075 2.1875 56.8125 2.15 56.25L2.1 55.5H12.8H23.5V56ZM40.75 55.7625C41.4375 56.075 41.95 56.5375 42.2625 57.1625L42.5 57.625H33.95H25.4L25.5125 57.15C25.575 56.9 25.625 56.425 25.625 56.0875V55.5H32.9125C39.9625 55.5 40.2 55.5125 40.75 55.7625ZM61.85 56.25C61.8125 56.8125 61.725 57.075 61.525 57.2875C61.25 57.5625 61.1875 57.5625 56.9 57.6C54.5125 57.625 52.375 57.6 52.15 57.5625C51.5 57.4375 51.25 57.075 51.25 56.225V55.5H56.575H61.9L61.85 56.25Z" fill="url(#paint0_linear_2555_14)"/>
<path d="M29.4125 8.6875C28.775 8.9625 28.65 9.8 29.1625 10.3375C29.4125 10.6125 29.4875 10.625 32 10.625C34.5125 10.625 34.5875 10.6125 34.8375 10.3375C35.3625 9.7875 35.225 8.95 34.5625 8.675C33.9625 8.425 29.9875 8.4375 29.4125 8.6875Z" fill="url(#paint1_linear_2555_14)"/>
<path d="M35.5375 20.5375C30.2 25.875 30 26.0875 30 26.5375C30 27.1375 30.475 27.625 31.05 27.625C31.3875 27.625 32.0625 26.9875 37.025 22.025C42.1375 16.925 42.625 16.4 42.625 16.025C42.625 15.45 42.15 15 41.5375 15C41.0875 15 40.875 15.2 35.5375 20.5375Z" fill="url(#paint2_linear_2555_14)"/>
<path d="M11.4375 38.4875C10.7875 38.9 6.525 43.2875 6.4375 43.6375C6.3375 44.025 6.625 44.675 6.9375 44.8C7.05 44.8375 7.325 44.875 7.5375 44.875C7.875 44.875 8.2375 44.5625 10.3375 42.475L12.75 40.075V39.3C12.75 38.6125 12.725 38.525 12.4375 38.4C12 38.2 11.875 38.2125 11.4375 38.4875Z" fill="url(#paint3_linear_2555_14)"/>
<path d="M17.9375 38.425C17.4375 38.65 13.05 43.0875 12.8875 43.525C12.625 44.2125 13.1125 44.8625 13.875 44.875C14.2875 44.875 14.5 44.6875 16.8375 42.3375C18.225 40.95 19.375 39.7 19.3875 39.5625C19.4625 39.0375 19.25 38.6125 18.8125 38.425C18.3125 38.225 18.4 38.2125 17.9375 38.425Z" fill="url(#paint4_linear_2555_14)"/>
<path d="M57.8125 41.225C57.675 41.25 56.7625 42.0625 55.7875 43.0375C54.15 44.6625 54 44.85 54 45.2625C54 45.8625 54.4125 46.25 55.0625 46.25C55.5125 46.25 55.65 46.1375 57.1625 44.65C58.05 43.775 58.8625 42.875 58.95 42.65C59.2875 41.875 58.6375 41.0625 57.8125 41.225Z" fill="url(#paint5_linear_2555_14)"/>
<path d="M31.6375 40.6375C30.6 41.05 30.9125 42.625 32.0375 42.625C32.4625 42.625 32.875 42.3 33.0375 41.85C33.175 41.45 32.8625 40.8625 32.425 40.675C32.2 40.575 31.9875 40.5 31.975 40.5125C31.95 40.5125 31.8 40.575 31.6375 40.6375Z" fill="url(#paint6_linear_2555_14)"/>
<defs>
<linearGradient id="paint0_linear_2555_14" x1="0.0625" y1="31.9956" x2="63.9375" y2="31.9956" gradientUnits="userSpaceOnUse">
<stop stop-color="#F86CA7"/>
<stop offset="1" stop-color="#FF7F18"/>
</linearGradient>
<linearGradient id="paint1_linear_2555_14" x1="28.8448" y1="9.55932" x2="35.1587" y2="9.55932" gradientUnits="userSpaceOnUse">
<stop stop-color="#F86CA7"/>
<stop offset="1" stop-color="#FF7F18"/>
</linearGradient>
<linearGradient id="paint2_linear_2555_14" x1="30" y1="21.3125" x2="42.625" y2="21.3125" gradientUnits="userSpaceOnUse">
<stop stop-color="#F86CA7"/>
<stop offset="1" stop-color="#FF7F18"/>
</linearGradient>
<linearGradient id="paint3_linear_2555_14" x1="6.41728" y1="41.5693" x2="12.75" y2="41.5693" gradientUnits="userSpaceOnUse">
<stop stop-color="#F86CA7"/>
<stop offset="1" stop-color="#FF7F18"/>
</linearGradient>
<linearGradient id="paint4_linear_2555_14" x1="12.8158" y1="41.5726" x2="19.4023" y2="41.5726" gradientUnits="userSpaceOnUse">
<stop stop-color="#F86CA7"/>
<stop offset="1" stop-color="#FF7F18"/>
</linearGradient>
<linearGradient id="paint5_linear_2555_14" x1="54" y1="43.727" x2="59.0411" y2="43.727" gradientUnits="userSpaceOnUse">
<stop stop-color="#F86CA7"/>
<stop offset="1" stop-color="#FF7F18"/>
</linearGradient>
<linearGradient id="paint6_linear_2555_14" x1="31.0048" y1="41.5681" x2="33.0703" y2="41.5681" gradientUnits="userSpaceOnUse">
<stop stop-color="#F86CA7"/>
<stop offset="1" stop-color="#FF7F18"/>
</linearGradient>
</defs>
</svg>
