<svg width="54" height="54" viewBox="0 0 54 54" fill="none" xmlns="http://www.w3.org/2000/svg">
<path d="M53.8396 30.2348C53.7057 29.9669 53.3709 29.833 53.103 29.766C51.5628 29.766 38.3038 29.2303 38.3038 13.8284C38.3038 13.3597 37.902 12.9579 37.4333 12.9579C36.9645 12.9579 36.5627 13.3597 36.5627 13.8284C36.5627 29.2303 23.3037 29.766 21.8305 29.766C21.6296 29.766 21.4287 29.833 21.2948 29.9669C21.1609 30.0339 21.0939 30.1678 21.0269 30.2348C20.893 30.5026 20.893 30.8375 21.0269 31.1053C21.1609 31.3732 21.4957 31.5741 21.8305 31.5741C21.8305 31.5741 21.8305 31.5741 21.8975 31.5741C23.4377 31.5741 36.6297 32.1098 36.6297 47.5117C36.6297 47.9804 37.0315 48.3822 37.5002 48.3822C37.969 48.3822 38.3708 47.9804 38.3708 47.5117C38.3708 32.1768 51.5628 31.5741 53.103 31.5741C53.4378 31.5741 53.7057 31.3732 53.9066 31.1053C54.0405 30.8375 54.0405 30.5026 53.8396 30.2348ZM37.4333 40.9491C35.4913 34.5875 30.7368 31.8419 26.9868 30.6366C30.7368 29.4312 35.4913 26.6856 37.4333 20.324C39.3753 26.6856 44.1298 29.4312 47.8798 30.6366C44.1298 31.8419 39.3753 34.5875 37.4333 40.9491Z" fill="url(#paint0_linear_2567_65)"/>
<path d="M26.3841 12.8239C26.8528 12.8239 27.2546 12.4222 27.2546 11.8864C27.2546 11.4177 26.8528 11.0159 26.3841 11.0159C25.5805 11.0159 18.3483 10.748 18.3483 2.31048C18.3483 1.84173 17.9465 1.43994 17.4778 1.43994C17.009 1.43994 16.6072 1.84173 16.6072 2.31048C16.6072 10.748 9.37505 11.0159 8.57147 11.0159C8.5045 11.0159 8.5045 11.0159 8.5045 11.0159C8.03575 11.0829 7.70093 11.4177 7.70093 11.8864C7.70093 12.3552 8.10272 12.757 8.57147 12.757C9.44201 12.757 16.6072 13.0248 16.6072 21.4624C16.6072 21.9311 17.009 22.3329 17.4778 22.3329C17.8796 22.3999 18.2813 21.9981 18.2813 21.5294C18.2813 13.0918 25.5135 12.8239 26.3171 12.8239H26.3841ZM17.4108 16.6409C16.3394 14.0963 14.3974 12.69 12.5894 11.8864C14.5313 11.0829 16.3394 9.54267 17.4108 7.13194C18.4822 9.6766 20.4242 11.0829 22.2323 11.8864C20.2903 12.69 18.4822 14.2302 17.4108 16.6409Z" fill="url(#paint1_linear_2567_65)"/>
<path d="M18.6832 41.2169C17.8796 41.2169 10.6474 40.9491 10.6474 32.5115C10.6474 32.0428 10.2456 31.641 9.77685 31.641C9.30809 31.641 8.90631 32.0428 8.90631 32.5115C8.90631 40.9491 1.67412 41.2169 0.870541 41.2169C0.803576 41.2169 0.803576 41.2169 0.803576 41.2169C0.334824 41.2839 0 41.6187 0 42.0875C0 42.5562 0.401788 42.958 0.870541 42.958C1.74108 42.958 8.90631 43.2259 8.90631 51.6634C8.90631 52.1322 9.30809 52.534 9.77685 52.534C10.1786 52.6679 10.5804 52.2661 10.5804 51.7304C10.5804 43.2928 17.8126 43.025 18.6162 43.025H18.6832C19.1519 43.025 19.5537 42.6232 19.5537 42.0875C19.5537 41.6187 19.1519 41.2169 18.6832 41.2169ZM9.70988 46.9089C8.57148 44.3643 6.69647 42.958 4.88842 42.1544C6.8304 41.3509 8.63845 39.8107 9.70988 37.4C10.7813 39.9446 12.7233 41.3509 14.5313 42.1544C12.5894 42.958 10.7813 44.4982 9.70988 46.9089Z" fill="url(#paint2_linear_2567_65)"/>
<defs>
<linearGradient id="paint0_linear_2567_65" x1="20.9265" y1="30.67" x2="53.9999" y2="30.67" gradientUnits="userSpaceOnUse">
<stop stop-color="#F86CA7"/>
<stop offset="1" stop-color="#FF7F18"/>
</linearGradient>
<linearGradient id="paint1_linear_2567_65" x1="7.70093" y1="11.8901" x2="27.2546" y2="11.8901" gradientUnits="userSpaceOnUse">
<stop stop-color="#F86CA7"/>
<stop offset="1" stop-color="#FF7F18"/>
</linearGradient>
<linearGradient id="paint2_linear_2567_65" x1="0" y1="42.1005" x2="19.5537" y2="42.1005" gradientUnits="userSpaceOnUse">
<stop stop-color="#F86CA7"/>
<stop offset="1" stop-color="#FF7F18"/>
</linearGradient>
</defs>
</svg>
