<svg width="53" height="54" viewBox="0 0 53 54" fill="none" xmlns="http://www.w3.org/2000/svg">
<g clip-path="url(#clip0_2466_676)">
<path d="M17.1405 48.7906C16.8486 49.1392 16.4959 49.5284 16.1797 49.946C15.7054 50.5825 15.5027 50.7325 14.7568 50.469C13.2568 49.9379 11.7811 49.346 10.3095 48.7419C9.32838 48.3406 9.15405 47.4244 9.08919 46.5081C9.07297 46.269 9.23108 45.9568 9.40946 45.7703C9.94459 45.2149 10.1838 44.5581 10.1838 43.8162C10.1838 43.0987 10.1595 42.3811 10.0865 41.6717C10.0581 41.3717 9.92838 41.0635 9.77027 40.8041C9.02432 39.5798 6.96486 38.9108 5.64324 39.4703C5.00676 39.7419 4.41081 39.973 3.87973 39.3081C2.61081 38.9879 2.20946 37.8771 1.7554 36.8676C1.16351 35.5581 0.79054 34.1879 0.664864 32.7284C0.599999 31.9663 0.932432 31.6419 1.46757 31.3217C1.89324 31.0662 2.33513 30.8271 2.73649 30.5352C3.5554 29.9433 4.02973 29.1 4.31757 28.1595C4.42297 27.8149 4.4554 27.4014 4.37027 27.0568C4.00135 25.5608 3.20676 24.3811 1.71081 23.7852C-0.113514 23.0595 -0.231082 22.8244 0.222972 20.9108C0.454053 19.9379 0.664864 18.9608 0.891891 17.9838C0.968918 17.6473 1.04595 17.3108 1.1554 16.9865C1.5527 15.7825 1.76757 15.6081 2.99189 15.9081C4.11486 16.1838 4.9054 15.5473 5.77703 15.0973C5.88649 15.0406 5.97973 14.9514 6.07703 14.8744C7.20405 14.0271 7.32973 13.65 6.75405 12.3527C6.49054 11.7608 6.13378 11.2014 5.76081 10.6663C5.43243 10.196 5.29865 9.7176 5.43243 9.17031C5.47297 8.99193 5.54595 8.78922 5.67162 8.67166C7.4554 7.07031 9.24324 5.46895 11.0514 3.89598C11.8541 3.19868 12.7581 3.36895 13.3257 4.27706C13.6541 4.80409 13.9743 5.34328 14.2905 5.87841C14.6716 6.52301 15.3284 6.66895 16.0095 6.37706C16.7514 6.05679 17.4527 5.64328 18.1581 5.24193C18.8635 4.84058 19.2122 4.2122 19.2892 3.40544C19.3419 2.84598 19.4108 2.28247 19.5446 1.73922C19.6419 1.35409 19.8446 0.993278 20.0311 0.636522C20.0959 0.510846 20.2459 0.373008 20.3757 0.348684C21.1014 0.2149 21.827 0.0405757 22.5608 0.0243595C24.2149 -0.0161811 25.873 0.0203054 27.5311 0.0324676C27.75 0.0324676 27.9689 0.0527378 28.1838 0.0932784C28.4797 0.150035 28.6541 0.295981 28.7068 0.64463C28.9014 1.87706 29.1081 3.10544 29.3757 4.32166C29.5419 5.08382 29.8176 5.80544 30.4865 6.32031C31.5973 7.17571 33.073 7.03787 33.9649 5.92706C34.3541 5.44058 34.6824 4.90544 35.0797 4.42301C35.7284 3.64058 36.5635 3.44598 37.4432 3.87976C39.0932 4.69463 40.7351 5.52976 42.3689 6.37301C42.6973 6.54328 43.0095 6.75814 43.3014 6.98922C43.6095 7.23247 43.6905 7.47166 43.5405 7.94193C42.9932 9.64463 42.7824 11.4081 42.9811 13.2041C43.1919 15.1217 45.2959 15.6446 46.4473 15.0568C46.6703 14.9433 46.8932 14.8298 47.1284 14.7487C47.8054 14.5176 48.5108 14.9027 48.5595 15.6163C48.6162 16.4798 49.05 17.1406 49.5041 17.8135C49.9743 18.5108 50.4487 19.2081 50.8905 19.9257C51.0689 20.2135 51.1865 20.546 51.2878 20.8703C51.4176 21.3081 51.3041 21.5757 50.8378 21.8311C49.9378 22.3217 49.05 22.869 48.4824 23.7852C47.4811 25.4027 47.1122 27.6608 49.6378 29.1771C49.9581 29.3676 50.2946 29.5379 50.6351 29.6879C51.6892 30.1581 52.2405 30.9162 52.0338 32.0514C51.7216 33.7703 51.2676 35.4608 50.8257 37.1514C50.6797 37.7108 50.2419 37.8527 49.6338 37.7108C48.4378 37.4271 47.2257 37.3541 46.0135 37.6135C44.5824 37.9217 43.7716 39.1825 44.1487 40.6176C44.3432 41.3595 44.6514 42.1014 45.0405 42.7622C46.2284 44.7892 46.0419 44.3149 44.5662 45.5554C43.6581 46.3176 42.7703 47.1081 41.8987 47.9149C41.6514 48.1419 41.5054 48.4703 41.2987 48.746C40.6905 49.5608 39.9851 49.5771 39.2676 48.8676C38.3027 47.9149 37.2446 47.1325 35.8257 46.9541C34.9986 46.8487 34.2932 47.0514 33.5959 47.4527C32.0149 48.369 31.3338 49.723 31.5365 51.5311C31.5689 51.8108 31.5932 52.0946 31.5649 52.3703C31.4919 53.0271 31.0095 53.396 30.3486 53.3919C29.9514 53.3919 29.55 53.4487 29.1527 53.5014C27.9162 53.6635 26.6838 53.8946 25.4432 53.9879C24.4297 54.0649 23.7446 53.4081 23.5905 52.4027C23.473 51.6325 23.4243 50.8419 23.2095 50.1C22.5486 47.7892 20.8297 46.796 18.3486 48.0973C17.9757 48.3041 17.6027 48.5311 17.1405 48.7906ZM49.0257 36.8635C49.7392 35.1 50.4081 33.4379 51.0851 31.7717C49.1797 31.3135 47.8054 30.146 46.6257 28.7473C45.9081 27.896 45.4905 26.8581 45.7095 25.6987C46.0987 23.6271 47.1243 22.046 49.2568 21.3892C49.4919 21.3162 49.727 21.2352 50.0959 21.1136C49.3338 19.5081 48.5919 17.9433 47.8176 16.3176C46.8041 16.9338 45.7865 17.1771 44.7081 16.8487C42.9892 16.3217 41.4851 15.4663 41.1365 13.5365C40.8243 11.7892 40.8851 10.0419 42.0243 8.50949C42.1297 8.36355 42.1824 8.17706 42.2757 7.97436C40.5041 6.96085 38.7568 5.95949 36.9608 4.93382C36.4541 5.63112 35.9878 6.32436 35.4649 6.97706C34.3297 8.38787 32.5622 8.99193 31.127 8.33922C28.5284 7.15949 27.1581 5.38382 27.6324 2.03922C27.6649 1.80409 27.7095 1.5649 27.7581 1.26085C25.5162 1.12706 23.3392 1.00139 21.1622 0.871657C21.1743 1.66625 21.2149 2.50544 21.1987 3.34058C21.1824 4.2122 20.8419 4.94598 20.2824 5.63922C19.5243 6.57976 18.5311 7.12706 17.4811 7.61355C15.4095 8.57841 13.8689 8.19733 12.4581 6.39328C12.2554 6.13382 12.0527 5.87031 11.7851 5.52571C10.3419 6.76625 9 7.9176 7.63378 9.08922C8.63513 10.0581 9.25541 11.1973 9.61216 12.4784C9.87973 13.4352 9.77838 14.3311 9.06081 15.1014C8.72027 15.4663 8.44865 15.9081 8.06351 16.2163C6.86351 17.1771 5.54189 17.7244 3.98108 17.1527C3.78243 17.0798 3.57973 17.0311 3.28378 16.946C2.89054 18.9568 2.50946 20.9027 2.12027 22.8892C3.60405 23.4608 4.58919 24.5271 5.44865 25.7433C6.23108 26.846 6.45 28.0095 5.82568 29.2703C5.08378 30.7622 4.07838 31.9987 2.52973 32.7244C2.33919 32.8135 2.17703 32.9595 1.97838 33.0973C2.33919 35.1041 3.8554 36.4662 4.51622 38.25C6.51486 37.5811 7.23649 37.6338 9.01216 38.5541C9.37297 38.7406 9.72568 38.9473 10.0622 39.1703C10.9622 39.7744 11.5459 40.5933 11.6716 41.6879C11.7405 42.2757 11.8176 42.8717 11.7892 43.4595C11.7284 44.6271 11.7568 45.823 11.173 46.8527C12.4905 47.6757 13.7514 48.4622 14.9514 49.2081C15.3649 48.6081 15.7014 47.8703 16.2527 47.3676C17.9473 45.819 19.9541 45.4744 22.1027 46.2122C24.1257 46.9054 25.2162 48.4176 25.5527 50.4973C25.6541 51.1095 25.7149 51.7298 25.8041 52.4554C27 52.3784 28.1757 52.3054 29.3797 52.2284C29.3838 51.9446 29.3959 51.7298 29.3878 51.5149C29.3149 49.7635 29.923 48.2798 31.123 47.0108C32.2581 45.8068 34.4514 44.8419 36.5311 45.746C37.6378 46.2284 38.6149 46.8649 39.4014 47.7852C39.5514 47.9635 39.7378 48.1095 39.9689 48.3244C40.5486 47.2176 41.4365 46.5365 42.3081 45.823C42.8838 45.3527 43.3743 44.7811 43.9338 44.2257C43.1554 43.3054 42.6 42.2798 42.1743 41.1649C41.4041 39.1622 43.4068 36.1703 45.5595 36.1865C46.7595 36.1987 47.927 36.2635 49.0257 36.8635Z" fill="url(#paint0_linear_2466_676)"/>
<path d="M36.5716 40.281C34.6865 41.704 32.5865 42.6446 30.3446 43.281C28.946 43.6783 27.5149 43.7756 26.0716 43.5729C24.2473 43.3175 22.4027 43.1432 20.6757 42.4216C18.0446 41.3229 15.6405 39.8919 13.9378 37.5446C13.0054 36.2594 12.2311 34.8648 11.396 33.5108C11.25 33.2756 11.1405 33.0081 11.0635 32.7405C10.3297 30.0689 9.82298 27.3892 10.5284 24.6121C10.8041 23.5216 10.9338 22.3986 11.2014 21.3081C11.7973 18.8635 13.0824 16.8283 15.0527 15.2594C17.7162 13.1392 20.6797 11.7446 24.0892 11.2135C27.8676 10.6297 31.2324 11.4973 34.3135 13.6094C39.1987 16.954 41.6635 21.6689 42.1622 27.527C42.5068 31.5851 41.3757 35.1243 38.6919 38.1689C38.0351 38.9189 37.2811 39.5837 36.5716 40.281ZM34.2608 38.8986C34.8892 38.2946 35.55 37.7189 36.146 37.0824C38.4041 34.654 39.7176 31.8405 39.6973 28.4716C39.6689 22.9297 37.5243 18.4702 32.9433 15.3C30.4946 13.6054 27.7865 12.9202 24.7622 13.354C21.8311 13.7756 19.2932 14.9716 16.9257 16.6905C15.2108 17.9351 14.2541 19.577 13.7554 21.6C13.1108 24.2189 13.1068 26.8702 13.196 29.5216C13.2324 30.5392 13.4878 31.5567 13.7189 32.554C13.8243 33.0121 13.9743 33.4297 13.8446 33.9202C13.7797 34.1675 13.8243 34.5162 13.9622 34.727C14.5662 35.6675 15.1257 36.6689 15.8757 37.4837C17.9432 39.7337 20.6108 40.9094 23.5946 41.3513C27.45 41.9189 31.0662 41.3635 34.2608 38.8986Z" fill="url(#paint1_linear_2466_676)"/>
<path d="M21.0568 34.3459C18.7622 31.3541 18.2554 28.4189 18.973 25.3378C19.6014 22.6257 21.2797 20.6838 24.0284 19.8122C25.0054 19.5041 25.95 19.0338 27.0203 19.1959C30.227 19.6865 34.0338 21.7541 34.5122 25.9216C34.6662 27.2757 34.7108 28.6662 34.6054 30.0243C34.3743 33.0203 32.6676 34.9338 29.8662 35.9027C27.9 36.5838 25.9095 36.7216 23.8865 36.1095C22.2973 35.6189 21.7297 35.2581 21.0568 34.3459ZM30.0405 33.0851C31.2324 32.2257 31.8568 31.0419 32.0838 29.623C32.2986 28.273 32.0919 26.9513 31.8892 25.6176C31.5 23.0473 27.6446 20.1932 24.3162 21.9649C22.6946 22.8284 21.4905 24.1054 21.3608 26.1284C21.2149 28.4392 21.6162 30.6122 22.7554 32.623C23.0068 33.0649 23.3757 33.6 23.8095 33.75C25.9662 34.4838 28.0986 34.5527 30.0405 33.0851Z" fill="url(#paint2_linear_2466_676)"/>
</g>
<defs>
<linearGradient id="paint0_linear_2466_676" x1="-0.00075531" y1="26.9999" x2="52.0768" y2="26.9999" gradientUnits="userSpaceOnUse">
<stop stop-color="#F86CA7"/>
<stop offset="1" stop-color="#FF7F18"/>
</linearGradient>
<linearGradient id="paint1_linear_2466_676" x1="10.1905" y1="27.3557" x2="42.2224" y2="27.3557" gradientUnits="userSpaceOnUse">
<stop stop-color="#F86CA7"/>
<stop offset="1" stop-color="#FF7F18"/>
</linearGradient>
<linearGradient id="paint2_linear_2466_676" x1="18.6705" y1="27.8312" x2="34.6629" y2="27.8312" gradientUnits="userSpaceOnUse">
<stop stop-color="#F86CA7"/>
<stop offset="1" stop-color="#FF7F18"/>
</linearGradient>
<clipPath id="clip0_2466_676">
<rect width="52.0824" height="54" fill="white"/>
</clipPath>
</defs>
</svg>
