<svg width="54" height="54" viewBox="0 0 54 54" fill="none" xmlns="http://www.w3.org/2000/svg">
<g clip-path="url(#clip0_2567_35)">
<path d="M53.0888 31.704C52.8483 30.0713 52.6416 28.6581 52.5741 27.751C52.3505 24.722 51.532 23.1104 49.8319 22.2962C49.1017 21.9542 48.3005 21.7908 47.4947 21.8195C47.25 20.7901 46.7522 19.1237 45.9928 18.3728C44.685 17.0818 42.892 17.0438 41.8416 17.1662C41.695 16.6838 41.4363 16.2431 41.0865 15.8801C40.7367 15.5171 40.3058 15.2422 39.8292 15.0779C38.6737 14.7417 37.4349 14.8423 36.3488 15.3606C36.0197 10.3192 35.5978 5.68276 35.1169 4.73354C34.9494 4.34652 34.6846 4.00945 34.3482 3.75514C34.0118 3.50082 33.6154 3.33792 33.1974 3.28229C31.9022 3.12197 30.6324 4.03744 30.2442 4.48041C29.9742 4.7926 29.7802 5.01619 29.797 14.1835C29.797 18.4824 29.873 23.3593 29.9363 24.2242C29.9911 24.9624 29.8899 27.5992 29.7717 30.1304C29.5657 29.8111 29.3865 29.4753 29.2359 29.1264C28.2825 27.017 26.2828 25.2915 23.663 24.2832C21.9375 23.6251 20.3302 23.8023 19.3556 24.7557C19.0058 25.0928 18.7617 25.5244 18.6531 25.9978C18.5444 26.4713 18.576 26.9661 18.7439 27.422C19.0688 28.3248 19.807 29.2065 20.6592 30.2274C21.4489 31.1154 22.1551 32.0743 22.7686 33.092C23.3215 34.1537 23.7912 35.2567 24.1734 36.391C24.6113 37.7084 25.1765 38.9801 25.8609 40.1879C26.1774 40.711 26.5233 41.2637 26.8777 41.8332C27.9586 43.4974 28.9445 45.2214 29.8308 46.997C30.8813 49.2878 34.695 51.2157 35.1253 51.452C35.2255 51.5039 35.335 51.5351 35.4474 51.544C35.5598 51.5528 35.6729 51.539 35.7799 51.5034C35.8869 51.4678 35.9857 51.4111 36.0704 51.3366C36.1552 51.2622 36.2241 51.1715 36.2732 51.07C36.3222 50.9685 36.3505 50.8581 36.3562 50.7455C36.3619 50.6328 36.3449 50.5202 36.3064 50.4142C36.2678 50.3082 36.2083 50.2111 36.1316 50.1285C36.0548 50.0458 35.9622 49.9795 35.8594 49.9332C34.8342 49.4228 32.0288 47.7732 31.3453 46.284C30.4241 44.4382 29.3958 42.6478 28.2656 40.922C27.9155 40.3609 27.5738 39.8124 27.2616 39.2935C26.643 38.189 26.1316 37.0278 25.7344 35.8257C25.3237 34.6078 24.8172 33.4243 24.2199 32.2862C23.5586 31.1763 22.7944 30.1311 21.9375 29.1643C21.2161 28.3206 20.5369 27.4768 20.3133 26.8693C20.2551 26.7179 20.2437 26.5525 20.2805 26.3946C20.3174 26.2366 20.4008 26.0934 20.52 25.9834C20.8997 25.6121 21.7603 25.3928 23.0513 25.8821C26.0466 27.0254 27.2405 28.8353 27.6919 29.8435C28.1198 30.8783 28.7913 31.7945 29.6494 32.514C29.6072 33.2818 29.5734 33.961 29.5439 34.4588C29.5312 34.682 29.6076 34.9011 29.7563 35.068C29.905 35.2349 30.1139 35.336 30.337 35.349H30.375C30.5903 35.3494 30.7976 35.2675 30.9544 35.12C31.1113 34.9726 31.2058 34.7708 31.2188 34.5559C31.2188 34.1931 31.725 25.6965 31.6069 24.1018C31.4719 22.1232 31.3917 7.46729 31.6406 5.48447C32.0171 5.16394 32.4921 4.98226 32.9864 4.96979C33.0877 4.96979 33.3577 5.01619 33.6024 5.50557C33.9863 6.29026 34.4461 11.6312 34.8174 18.1956V18.3095C34.8174 18.3095 34.8174 18.3306 34.8174 18.3432C35.0198 21.8279 35.197 25.6543 35.3363 29.312C35.3446 29.5358 35.4416 29.747 35.6058 29.8993C35.7699 30.0516 35.9879 30.1325 36.2116 30.1241C36.4354 30.1157 36.6467 30.0188 36.799 29.8546C36.9513 29.6904 37.0321 29.4725 37.0238 29.2487C36.9605 27.5612 36.7706 22.8067 36.4838 17.9171C36.4758 17.7413 36.5099 17.5661 36.5833 17.4062C36.6567 17.2462 36.7672 17.1061 36.9056 16.9974C37.53 16.5038 38.7113 16.5039 39.2934 16.6895C40.2216 16.989 40.3481 18.166 40.3524 18.2124C40.3566 18.2588 40.3524 18.2124 40.3524 18.2124C40.3524 18.2884 41.1033 26.0551 41.1961 27.8185C41.208 28.0342 41.3021 28.237 41.4591 28.3854C41.616 28.5337 41.8239 28.6162 42.0399 28.6159H42.0905C42.3136 28.6028 42.5225 28.5018 42.6712 28.3349C42.8199 28.168 42.8963 27.9489 42.8836 27.7257C42.7992 26.2492 42.293 20.8703 42.1031 18.8368C42.8372 18.7651 44.0016 18.8031 44.7905 19.5793C45.2756 20.056 45.7819 21.8153 45.9886 22.9121V22.9417C45.9886 22.9417 45.9886 22.9628 45.9886 22.9754C46.4203 24.7594 46.5712 26.5998 46.4358 28.4303C46.4247 28.5405 46.4354 28.6519 46.4674 28.758C46.4994 28.8641 46.5519 28.9628 46.622 29.0486C46.6921 29.1344 46.7785 29.2055 46.8761 29.258C46.9737 29.3104 47.0807 29.3431 47.1909 29.3542H47.2753C47.4852 29.3552 47.688 29.278 47.844 29.1376C48 28.9972 48.0981 28.8036 48.1191 28.5948C48.2569 26.9023 48.1617 25.1989 47.8364 23.5323C48.2746 23.5531 48.7045 23.6592 49.102 23.8445C50.0217 24.2663 50.6714 25.1101 50.8781 27.8945C50.9499 28.8606 51.1608 30.2992 51.4055 31.9656C51.8569 35.0537 52.4222 38.897 52.2999 41.2468C52.1142 44.8074 50.6503 50.2496 50.6377 50.3045C50.6072 50.4181 50.6009 50.5369 50.619 50.6531C50.6372 50.7694 50.6795 50.8805 50.7431 50.9795L52.4306 53.6288C52.5547 53.8087 52.7437 53.9335 52.9579 53.9768C53.1721 54.0201 53.3948 53.9787 53.579 53.8611C53.7633 53.7436 53.8947 53.5592 53.9457 53.3466C53.9967 53.1341 53.9632 52.9101 53.8524 52.7218L52.3589 50.3846C52.6964 49.0768 53.8144 44.5712 53.9831 41.3354C54.1308 38.8126 53.5528 34.8681 53.0888 31.704Z" fill="url(#paint0_linear_2567_35)"/>
<path d="M0.84375 6.75004H25.4053C25.6085 7.90849 26.1656 8.97553 27 9.80442C27.1583 9.96274 27.3731 10.0517 27.597 10.0517C27.8209 10.0517 28.0356 9.96274 28.1939 9.80442C28.3522 9.64609 28.4412 9.43136 28.4412 9.20746C28.4412 8.98356 28.3522 8.76883 28.1939 8.61051C27.5354 7.94933 27.1257 7.08084 27.0342 6.15216C26.9426 5.22348 27.175 4.29172 27.6918 3.51473C28.2087 2.73775 28.9782 2.16331 29.8701 1.88875C30.7619 1.61419 31.7213 1.65637 32.5856 2.00817C32.6881 2.05027 32.7979 2.07178 32.9087 2.07145C33.0195 2.07113 33.1292 2.04899 33.2314 2.00629C33.4379 1.92005 33.6017 1.75532 33.6867 1.54832C33.7288 1.44583 33.7503 1.33605 33.75 1.22524C33.7497 1.11444 33.7275 1.00478 33.6848 0.902538C33.6421 0.800292 33.5797 0.707458 33.5011 0.629336C33.4226 0.551213 33.3294 0.489333 33.2269 0.447228C32.4102 0.11122 31.5268 -0.0314276 30.6459 0.0304284C29.7649 0.0922844 28.9102 0.356969 28.1484 0.803808C27.3867 1.25065 26.7385 1.86754 26.2546 2.60631C25.7707 3.34507 25.4642 4.1857 25.3589 5.06254H0.84375C0.619974 5.06254 0.405363 5.15144 0.247129 5.30967C0.0888949 5.4679 0 5.68251 0 5.90629C0 6.13007 0.0888949 6.34468 0.247129 6.50291C0.405363 6.66115 0.619974 6.75004 0.84375 6.75004Z" fill="url(#paint1_linear_2567_35)"/>
<path d="M37.9688 5.0625C37.745 5.0625 37.5304 5.1514 37.3721 5.30963C37.2139 5.46786 37.125 5.68247 37.125 5.90625C37.125 6.13003 37.2139 6.34464 37.3721 6.50287C37.5304 6.66111 37.745 6.75 37.9688 6.75H53.1562C53.38 6.75 53.5946 6.66111 53.7529 6.50287C53.9111 6.34464 54 6.13003 54 5.90625C54 5.68247 53.9111 5.46786 53.7529 5.30963C53.5946 5.1514 53.38 5.0625 53.1562 5.0625H37.9688Z" fill="url(#paint2_linear_2567_35)"/>
<path d="M5.90625 32.9062C7.32531 32.9046 8.69633 32.3921 9.76849 31.4624C10.8407 30.5328 11.5423 29.2483 11.745 27.8437H16.0312C16.255 27.8437 16.4696 27.7549 16.6279 27.5966C16.7861 27.4384 16.875 27.2238 16.875 27C16.875 26.7762 16.7861 26.5616 16.6279 26.4034C16.4696 26.2451 16.255 26.1562 16.0312 26.1562H11.745C11.5832 25.0354 11.1027 23.9848 10.3605 23.1294C9.61844 22.2741 8.64608 21.6501 7.55932 21.3318C6.47255 21.0136 5.3172 21.0144 4.23091 21.3343C3.14462 21.6542 2.17319 22.2796 1.43235 23.1361C0.69152 23.9925 0.212515 25.0439 0.0524072 26.1649C-0.1077 27.286 0.057841 28.4294 0.529308 29.459C1.00077 30.4886 1.75829 31.361 2.7116 31.9721C3.66492 32.5833 4.77384 32.9076 5.90625 32.9062ZM5.90625 22.7812C6.74064 22.7812 7.55629 23.0287 8.25006 23.4922C8.94383 23.9558 9.48456 24.6147 9.80386 25.3855C10.1232 26.1564 10.2067 27.0047 10.0439 27.823C9.88115 28.6414 9.47936 29.3931 8.88935 29.9831C8.29935 30.5731 7.54764 30.9749 6.72928 31.1377C5.91093 31.3005 5.06268 31.2169 4.2918 30.8976C3.52093 30.5783 2.86205 30.0376 2.39848 29.3438C1.93492 28.65 1.6875 27.8344 1.6875 27C1.6875 25.8811 2.13197 24.8081 2.92314 24.0169C3.71431 23.2257 4.78737 22.7812 5.90625 22.7812Z" fill="url(#paint3_linear_2567_35)"/>
<path d="M0.84375 48.9375H12.7238C12.9366 50.3335 13.6426 51.607 14.7138 52.5272C15.785 53.4474 17.1504 53.9534 18.5625 53.9534C19.9746 53.9534 21.34 53.4474 22.4112 52.5272C23.4824 51.607 24.1884 50.3335 24.4013 48.9375H27.4219C27.6457 48.9375 27.8603 48.8486 28.0185 48.6904C28.1767 48.5321 28.2656 48.3175 28.2656 48.0937C28.2656 47.87 28.1767 47.6554 28.0185 47.4971C27.8603 47.3389 27.6457 47.25 27.4219 47.25H24.4013C24.1884 45.854 23.4824 44.5805 22.4112 43.6603C21.34 42.7401 19.9746 42.2341 18.5625 42.2341C17.1504 42.2341 15.785 42.7401 14.7138 43.6603C13.6426 44.5805 12.9366 45.854 12.7238 47.25H0.84375C0.619974 47.25 0.405362 47.3389 0.247129 47.4971C0.0888949 47.6554 0 47.87 0 48.0937C0 48.3175 0.0888949 48.5321 0.247129 48.6904C0.405362 48.8486 0.619974 48.9375 0.84375 48.9375ZM18.5625 43.875C19.3969 43.875 20.2125 44.1224 20.9063 44.586C21.6001 45.0495 22.1408 45.7084 22.4601 46.4793C22.7794 47.2502 22.863 48.0984 22.7002 48.9168C22.5374 49.7351 22.1356 50.4868 21.5456 51.0769C20.9556 51.6669 20.2039 52.0687 19.3855 52.2314C18.5672 52.3942 17.7189 52.3107 16.9481 51.9914C16.1772 51.6721 15.5183 51.1313 15.0547 50.4376C14.5912 49.7438 14.3438 48.9281 14.3438 48.0937C14.3438 46.9749 14.7882 45.9018 15.5794 45.1106C16.3706 44.3195 17.4436 43.875 18.5625 43.875Z" fill="url(#paint4_linear_2567_35)"/>
</g>
<defs>
<linearGradient id="paint0_linear_2567_35" x1="18.5897" y1="28.6286" x2="54.0066" y2="28.6286" gradientUnits="userSpaceOnUse">
<stop stop-color="#F86CA7"/>
<stop offset="1" stop-color="#FF7F18"/>
</linearGradient>
<linearGradient id="paint1_linear_2567_35" x1="0" y1="5.03402" x2="33.75" y2="5.03402" gradientUnits="userSpaceOnUse">
<stop stop-color="#F86CA7"/>
<stop offset="1" stop-color="#FF7F18"/>
</linearGradient>
<linearGradient id="paint2_linear_2567_35" x1="37.125" y1="5.90625" x2="54" y2="5.90625" gradientUnits="userSpaceOnUse">
<stop stop-color="#F86CA7"/>
<stop offset="1" stop-color="#FF7F18"/>
</linearGradient>
<linearGradient id="paint3_linear_2567_35" x1="-0.00692749" y1="27" x2="16.875" y2="27" gradientUnits="userSpaceOnUse">
<stop stop-color="#F86CA7"/>
<stop offset="1" stop-color="#FF7F18"/>
</linearGradient>
<linearGradient id="paint4_linear_2567_35" x1="0" y1="48.0937" x2="28.2656" y2="48.0937" gradientUnits="userSpaceOnUse">
<stop stop-color="#F86CA7"/>
<stop offset="1" stop-color="#FF7F18"/>
</linearGradient>
<clipPath id="clip0_2567_35">
<rect width="54" height="54" fill="white"/>
</clipPath>
</defs>
</svg>
