<svg width="64" height="48" viewBox="0 0 64 48" fill="none" xmlns="http://www.w3.org/2000/svg">
<mask id="path-1-inside-1_2573_362" fill="white">
<path d="M55.075 27.484C52.8375 27.4966 50.9 28.0322 49.275 28.8297C48.675 27.6461 48.075 26.6119 47.9751 25.8396C47.8626 24.9425 47.7251 24.3942 47.8626 23.3229C48 22.2513 48.625 20.7313 48.625 20.6068C48.6124 20.4946 48.4874 19.9464 47.2 19.934C45.9126 19.9215 44.8 20.1832 44.675 20.5195C44.55 20.8559 44.3 21.6284 44.1375 22.4257C43.9125 23.5969 41.5625 27.7456 40.225 29.9259C39.7875 29.0787 39.4125 28.3312 39.3374 27.733C39.225 26.8361 39.0874 26.2878 39.225 25.2165C39.3625 24.1449 39.9875 22.6251 39.9875 22.5005C39.975 22.3884 39.85 21.8402 38.5626 21.8277C37.275 21.8153 36.1626 22.0769 36.0376 22.4133C35.9126 22.7497 35.7751 23.547 35.5001 24.3195C35.2375 25.0919 32.1125 32.019 31.3 33.8255C30.8875 34.7474 30.5251 35.4825 30.2625 35.9808C30 36.4792 30.25 36.0182 30.225 36.0681C30 36.4917 29.875 36.7284 29.875 36.7284V36.741C29.7 37.0524 29.5125 37.3513 29.4249 37.3513C29.3624 37.3513 29.2374 36.5166 29.4499 35.3705C29.9124 32.9658 31.0374 29.2159 31.025 29.0788C31.025 29.0165 31.2374 28.3561 30.2999 28.0198C29.3874 27.6834 29.0625 28.2441 28.9874 28.2441C28.9124 28.2441 28.8499 28.4434 28.8499 28.4434C28.8499 28.4434 29.8624 24.22 26.9124 24.22C25.0624 24.22 22.5124 26.2259 21.2499 28.0573C20.4499 28.4934 18.7499 29.4152 16.9499 30.3996C16.2624 30.7733 15.5499 31.172 14.8749 31.5333L14.7375 31.3836C11.1625 27.5837 4.54999 24.8926 4.82499 19.7845C4.92499 17.9281 5.57499 13.0318 17.5251 7.10148C27.3126 2.24257 35.1501 3.57565 36.5125 6.54083C38.45 10.7768 32.325 18.6507 22.1501 19.7845C18.2751 20.2205 16.2375 18.7255 15.7251 18.1648C15.1876 17.5793 15.1126 17.5544 14.9126 17.6665C14.5876 17.8409 14.7876 18.3642 14.9126 18.6756C15.2126 19.4606 16.4626 20.8559 18.5876 21.5536C20.45 22.1641 25.0001 22.5005 30.5001 20.3825C36.6626 18.0029 41.4751 11.3997 40.0626 5.88052C38.6251 0.261625 29.2751 -1.58227 20.4376 1.54488C15.175 3.41369 9.47499 6.32903 5.37499 10.1539C0.499993 14.6889 -0.275007 18.6507 0.0499928 20.2953C1.18762 26.1634 9.29999 29.9882 12.55 32.8163C12.3875 32.9034 12.2375 32.9906 12.1 33.0655C10.475 33.8627 4.28749 37.0897 2.73749 40.5033C0.987493 44.3655 3.01249 47.1439 4.36249 47.5176C8.53749 48.6763 12.8125 46.5957 15.125 43.1695C17.4249 39.7434 17.15 35.2956 16.0875 33.2648L16.0499 33.1901L17.3249 32.4426C18.15 31.9567 18.9625 31.5082 19.6749 31.1218C19.275 32.2057 18.9874 33.489 18.8375 35.3578C18.6625 37.5507 19.5625 40.3911 20.75 41.5124C21.275 41.9982 21.9 42.0108 22.2875 42.0108C23.6625 42.0108 24.2875 40.8769 24.975 39.519C25.825 37.862 26.575 35.9433 26.575 35.9433C26.575 35.9433 25.6375 41.1386 28.2 41.1386C29.1375 41.1386 30.075 39.9301 30.5 39.3072V39.3197C30.5 39.3197 30.525 39.2823 30.575 39.1951C30.6274 39.1178 30.6775 39.0389 30.725 38.9585V38.9336C31.1 38.2857 31.9375 36.8031 33.1875 34.3488C34.7999 31.1842 36.35 27.2223 36.35 27.2223C36.35 27.2223 36.5 28.1941 36.9625 29.7889C37.2374 30.7358 37.8374 31.7698 38.2999 32.779C37.9249 33.3022 37.6999 33.6014 37.6999 33.6014L37.7124 33.6138C37.4125 34.0125 37.0749 34.4362 36.725 34.8597C35.45 36.3797 33.925 38.1115 33.725 38.6099C33.4875 39.1953 33.5375 39.6314 34 39.9804C34.3375 40.2295 34.9375 40.2792 35.575 40.2295C36.725 40.1547 37.525 39.8682 37.925 39.6937C38.55 39.4694 39.2625 39.133 39.95 38.6347C41.2 37.7129 41.9625 36.4047 41.8875 34.6605C41.85 33.7011 41.5375 32.7543 41.15 31.8573C41.2625 31.6953 41.3751 31.5332 41.4875 31.3589C43.4625 28.4808 44.9875 25.3164 44.9875 25.3164C44.9875 25.3164 45.1375 26.2882 45.6 27.8829C45.8374 28.6927 46.3125 29.5774 46.7375 30.4495C44.8875 31.957 43.725 33.7013 43.325 34.8475C42.5875 36.9655 43.1625 37.9248 44.25 38.149C44.7374 38.2487 45.4375 38.0245 45.9624 37.8002C46.6124 37.5884 47.3999 37.227 48.125 36.6914C49.375 35.7694 50.575 34.4862 50.5125 32.7544C50.475 31.9571 50.2625 31.1721 49.975 30.4246C51.55 29.7768 53.5874 29.403 56.175 29.7145C61.7375 30.3623 62.8375 33.8259 62.6251 35.2711C62.4126 36.7164 61.2501 37.5136 60.8625 37.7628C60.475 37.9995 60.35 38.0869 60.3875 38.2612C60.4375 38.5229 60.6125 38.5103 60.95 38.4606C61.4125 38.3858 63.875 37.2771 63.975 34.611C64.125 31.1844 60.8625 27.4467 55.075 27.484ZM12.175 41.8988C10.3375 43.9046 7.74999 44.6646 6.64999 44.0167C5.46249 43.3315 5.92487 40.3788 8.18749 38.2483C9.56249 36.9526 11.35 35.7566 12.525 35.0215C12.7875 34.8596 13.1875 34.623 13.6625 34.3363C13.7375 34.2866 13.7875 34.2615 13.7875 34.2615C13.875 34.2117 13.975 34.1494 14.075 34.0871C14.9125 37.1271 14.1125 39.7932 12.175 41.8988ZM25.6125 32.7914C24.975 34.3488 23.625 38.348 22.8125 38.1238C22.1124 37.9369 21.6875 34.9094 22.6749 31.9193C23.1749 30.4117 24.2374 28.6177 24.8624 27.9199C25.875 26.7986 26.9749 26.4249 27.25 26.8858C27.575 27.484 26.0125 31.8196 25.6125 32.7914ZM36.7 38.0739C36.425 38.2111 36.175 38.3106 36.0625 38.236C35.975 38.1862 36.1749 37.9993 36.1749 37.9993C36.1749 37.9993 37.5624 36.5167 38.1124 35.8315C38.4249 35.4329 38.7999 34.9719 39.1999 34.4485V34.5981C39.2 36.392 37.475 37.588 36.7 38.0739ZM45.2499 36.1304C45.0499 35.9809 45.075 35.5199 45.7499 34.0747C46.0125 33.5016 46.6124 32.5422 47.6499 31.6327C47.7749 32.0065 47.85 32.3677 47.8374 32.7042C47.825 34.9468 46.225 35.7815 45.2499 36.1304Z"/>
</mask>
<path d="M55.075 27.484C52.8375 27.4966 50.9 28.0322 49.275 28.8297C48.675 27.6461 48.075 26.6119 47.9751 25.8396C47.8626 24.9425 47.7251 24.3942 47.8626 23.3229C48 22.2513 48.625 20.7313 48.625 20.6068C48.6124 20.4946 48.4874 19.9464 47.2 19.934C45.9126 19.9215 44.8 20.1832 44.675 20.5195C44.55 20.8559 44.3 21.6284 44.1375 22.4257C43.9125 23.5969 41.5625 27.7456 40.225 29.9259C39.7875 29.0787 39.4125 28.3312 39.3374 27.733C39.225 26.8361 39.0874 26.2878 39.225 25.2165C39.3625 24.1449 39.9875 22.6251 39.9875 22.5005C39.975 22.3884 39.85 21.8402 38.5626 21.8277C37.275 21.8153 36.1626 22.0769 36.0376 22.4133C35.9126 22.7497 35.7751 23.547 35.5001 24.3195C35.2375 25.0919 32.1125 32.019 31.3 33.8255C30.8875 34.7474 30.5251 35.4825 30.2625 35.9808C30 36.4792 30.25 36.0182 30.225 36.0681C30 36.4917 29.875 36.7284 29.875 36.7284V36.741C29.7 37.0524 29.5125 37.3513 29.4249 37.3513C29.3624 37.3513 29.2374 36.5166 29.4499 35.3705C29.9124 32.9658 31.0374 29.2159 31.025 29.0788C31.025 29.0165 31.2374 28.3561 30.2999 28.0198C29.3874 27.6834 29.0625 28.2441 28.9874 28.2441C28.9124 28.2441 28.8499 28.4434 28.8499 28.4434C28.8499 28.4434 29.8624 24.22 26.9124 24.22C25.0624 24.22 22.5124 26.2259 21.2499 28.0573C20.4499 28.4934 18.7499 29.4152 16.9499 30.3996C16.2624 30.7733 15.5499 31.172 14.8749 31.5333L14.7375 31.3836C11.1625 27.5837 4.54999 24.8926 4.82499 19.7845C4.92499 17.9281 5.57499 13.0318 17.5251 7.10148C27.3126 2.24257 35.1501 3.57565 36.5125 6.54083C38.45 10.7768 32.325 18.6507 22.1501 19.7845C18.2751 20.2205 16.2375 18.7255 15.7251 18.1648C15.1876 17.5793 15.1126 17.5544 14.9126 17.6665C14.5876 17.8409 14.7876 18.3642 14.9126 18.6756C15.2126 19.4606 16.4626 20.8559 18.5876 21.5536C20.45 22.1641 25.0001 22.5005 30.5001 20.3825C36.6626 18.0029 41.4751 11.3997 40.0626 5.88052C38.6251 0.261625 29.2751 -1.58227 20.4376 1.54488C15.175 3.41369 9.47499 6.32903 5.37499 10.1539C0.499993 14.6889 -0.275007 18.6507 0.0499928 20.2953C1.18762 26.1634 9.29999 29.9882 12.55 32.8163C12.3875 32.9034 12.2375 32.9906 12.1 33.0655C10.475 33.8627 4.28749 37.0897 2.73749 40.5033C0.987493 44.3655 3.01249 47.1439 4.36249 47.5176C8.53749 48.6763 12.8125 46.5957 15.125 43.1695C17.4249 39.7434 17.15 35.2956 16.0875 33.2648L16.0499 33.1901L17.3249 32.4426C18.15 31.9567 18.9625 31.5082 19.6749 31.1218C19.275 32.2057 18.9874 33.489 18.8375 35.3578C18.6625 37.5507 19.5625 40.3911 20.75 41.5124C21.275 41.9982 21.9 42.0108 22.2875 42.0108C23.6625 42.0108 24.2875 40.8769 24.975 39.519C25.825 37.862 26.575 35.9433 26.575 35.9433C26.575 35.9433 25.6375 41.1386 28.2 41.1386C29.1375 41.1386 30.075 39.9301 30.5 39.3072V39.3197C30.5 39.3197 30.525 39.2823 30.575 39.1951C30.6274 39.1178 30.6775 39.0389 30.725 38.9585V38.9336C31.1 38.2857 31.9375 36.8031 33.1875 34.3488C34.7999 31.1842 36.35 27.2223 36.35 27.2223C36.35 27.2223 36.5 28.1941 36.9625 29.7889C37.2374 30.7358 37.8374 31.7698 38.2999 32.779C37.9249 33.3022 37.6999 33.6014 37.6999 33.6014L37.7124 33.6138C37.4125 34.0125 37.0749 34.4362 36.725 34.8597C35.45 36.3797 33.925 38.1115 33.725 38.6099C33.4875 39.1953 33.5375 39.6314 34 39.9804C34.3375 40.2295 34.9375 40.2792 35.575 40.2295C36.725 40.1547 37.525 39.8682 37.925 39.6937C38.55 39.4694 39.2625 39.133 39.95 38.6347C41.2 37.7129 41.9625 36.4047 41.8875 34.6605C41.85 33.7011 41.5375 32.7543 41.15 31.8573C41.2625 31.6953 41.3751 31.5332 41.4875 31.3589C43.4625 28.4808 44.9875 25.3164 44.9875 25.3164C44.9875 25.3164 45.1375 26.2882 45.6 27.8829C45.8374 28.6927 46.3125 29.5774 46.7375 30.4495C44.8875 31.957 43.725 33.7013 43.325 34.8475C42.5875 36.9655 43.1625 37.9248 44.25 38.149C44.7374 38.2487 45.4375 38.0245 45.9624 37.8002C46.6124 37.5884 47.3999 37.227 48.125 36.6914C49.375 35.7694 50.575 34.4862 50.5125 32.7544C50.475 31.9571 50.2625 31.1721 49.975 30.4246C51.55 29.7768 53.5874 29.403 56.175 29.7145C61.7375 30.3623 62.8375 33.8259 62.6251 35.2711C62.4126 36.7164 61.2501 37.5136 60.8625 37.7628C60.475 37.9995 60.35 38.0869 60.3875 38.2612C60.4375 38.5229 60.6125 38.5103 60.95 38.4606C61.4125 38.3858 63.875 37.2771 63.975 34.611C64.125 31.1844 60.8625 27.4467 55.075 27.484ZM12.175 41.8988C10.3375 43.9046 7.74999 44.6646 6.64999 44.0167C5.46249 43.3315 5.92487 40.3788 8.18749 38.2483C9.56249 36.9526 11.35 35.7566 12.525 35.0215C12.7875 34.8596 13.1875 34.623 13.6625 34.3363C13.7375 34.2866 13.7875 34.2615 13.7875 34.2615C13.875 34.2117 13.975 34.1494 14.075 34.0871C14.9125 37.1271 14.1125 39.7932 12.175 41.8988ZM25.6125 32.7914C24.975 34.3488 23.625 38.348 22.8125 38.1238C22.1124 37.9369 21.6875 34.9094 22.6749 31.9193C23.1749 30.4117 24.2374 28.6177 24.8624 27.9199C25.875 26.7986 26.9749 26.4249 27.25 26.8858C27.575 27.484 26.0125 31.8196 25.6125 32.7914ZM36.7 38.0739C36.425 38.2111 36.175 38.3106 36.0625 38.236C35.975 38.1862 36.1749 37.9993 36.1749 37.9993C36.1749 37.9993 37.5624 36.5167 38.1124 35.8315C38.4249 35.4329 38.7999 34.9719 39.1999 34.4485V34.5981C39.2 36.392 37.475 37.588 36.7 38.0739ZM45.2499 36.1304C45.0499 35.9809 45.075 35.5199 45.7499 34.0747C46.0125 33.5016 46.6124 32.5422 47.6499 31.6327C47.7749 32.0065 47.85 32.3677 47.8374 32.7042C47.825 34.9468 46.225 35.7815 45.2499 36.1304Z" fill="url(#paint0_linear_2573_362)" stroke="#F6FBF5" mask="url(#path-1-inside-1_2573_362)"/>
<defs>
<linearGradient id="paint0_linear_2573_362" x1="-0.0144653" y1="23.9351" x2="63.9799" y2="23.9351" gradientUnits="userSpaceOnUse">
<stop stop-color="#F86CA7"/>
<stop offset="1" stop-color="#FF7F18"/>
</linearGradient>
</defs>
</svg>
