<svg width="64" height="64" viewBox="0 0 64 64" fill="none" xmlns="http://www.w3.org/2000/svg">
<path d="M41.2875 5.2875C38.325 8.2375 38 8.6125 38 8.975C38 9.25 38.1 9.4875 38.3125 9.6875C38.5875 9.975 38.7125 10 39.8125 10H41V11V12L23.4125 12.025L5.8125 12.0625L4.975 12.4625C3.8125 13.0125 3.0875 13.7125 2.525 14.85L2.0625 15.8L2.025 18.4L1.975 21H2.9875H4V18.8C4 17.425 4.0625 16.4 4.15 16.075C4.35 15.3875 5.3875 14.35 6.075 14.15C6.475 14.0375 10.65 14 23.8 14H41V23.5V33H42H43V20.825C43 9.1875 42.9875 8.6375 42.775 8.3625C42.625 8.1875 42.35 8.0625 42.0125 8.0125L41.5 7.9375L43.25 6.1875L45 4.4375L46.75 6.1875L48.5 7.9375L47.9875 8.0125C47.65 8.0625 47.375 8.1875 47.225 8.3625C47.0125 8.6375 47 9.175 47 20.325V32H48H49V23V14H51.2C52.575 14 53.6 14.0625 53.925 14.15C54.6125 14.35 55.65 15.3875 55.85 16.075C55.9625 16.4625 56 19.15 56 26.8V37H57H58.0125L57.975 26.4L57.9375 15.8125L57.5375 14.975C56.9875 13.8125 56.2875 13.0875 55.15 12.525L54.2 12.0625L51.6 12.025L49 11.975V10.9875V10H50.1875C51.2875 10 51.4125 9.975 51.6875 9.6875C51.9 9.4875 52 9.25 52 8.975C52 8.6125 51.675 8.2375 48.7125 5.2875C45.6875 2.25 45.4 2 45 2C44.6 2 44.3125 2.25 41.2875 5.2875Z" fill="url(#paint0_linear_2558_279)"/>
<path d="M51 2.9875V3.975L51.6 4.0625C52.3375 4.1625 53.5375 4.8 53.95 5.2875C54.425 5.85 54.8375 6.75 54.9375 7.4125L55.025 8H56.0125C57.1375 8 57.1 8.05 56.875 6.8625C56.5625 5.225 55.325 3.5375 53.8875 2.7625C53.125 2.3625 51.9375 2 51.35 2H51V2.9875Z" fill="url(#paint1_linear_2558_279)"/>
<path d="M7 17V18H8H9V17V16H8H7V17Z" fill="url(#paint2_linear_2558_279)"/>
<path d="M11 17V18H12H13V17V16H12H11V17Z" fill="url(#paint3_linear_2558_279)"/>
<path d="M15 17V18H16H17V17V16H16H15V17Z" fill="url(#paint4_linear_2558_279)"/>
<path d="M31.3125 17.3125L31 17.6125V28.8125V40H30H29V32.3125V24.6125L28.6875 24.3125L28.3875 24H25H21.6125L21.3125 24.3125L21 24.6125V32.3125V40H20H19V35.8125V31.6125L18.6875 31.3125L18.3875 31H15H11.6125L11.3125 31.3125L11 31.6125V35.8125V40H9H7V41V42H20H33V30.5V19H35H37V27V35H38H39V26.3125V17.6125L38.6875 17.3125L38.3875 17H35H31.6125L31.3125 17.3125ZM27 33V40H25H23V33V26H25H27V33ZM17 36.5V40H15H13V36.5V33H15H17V36.5Z" fill="url(#paint5_linear_2558_279)"/>
<path d="M2.025 35.5875L2.0625 48.1875L2.4625 49.025C3.0125 50.1875 3.7125 50.9125 4.85 51.475L5.8 51.9375L14.725 51.975C23.0875 52 23.6375 52.025 23.575 52.225C23.35 52.9875 21.9125 57.775 21.6125 58.775L21.2375 60H20.125H19V61V62H30H41V61V60H39.875H38.7625L38.3875 58.775C38.1875 58.1125 37.9 57.15 37.75 56.65C37.6 56.1625 37.45 55.75 37.4125 55.75C37.075 55.75 35.625 56.3 35.625 56.425C35.625 56.5125 35.85 57.3375 36.125 58.25C36.4 59.1625 36.625 59.9375 36.625 59.9625C36.625 59.9875 33.65 60 30 60C26.3625 60 23.375 59.9625 23.375 59.9C23.375 59.85 23.9125 58.075 24.55 55.9375L25.725 52.0625L29.3625 52.025L33 52V51V50H19.8C9.8 50 6.4625 49.9625 6.075 49.85C5.3875 49.65 4.35 48.6125 4.15 47.925C4.0625 47.6375 4 47.0875 4 46.7V46H18H32V45V44H18H4V33.5V23H3H2L2.025 35.5875Z" fill="url(#paint6_linear_2558_279)"/>
<path d="M44.3125 34.0875C41.7 34.5 39.525 35.6 37.65 37.425C36 39.025 34.95 40.8 34.3625 43C33.975 44.4125 33.95 47.475 34.3 48.75C34.975 51.175 36.0625 53.0625 37.7125 54.6375C41.4125 58.1625 46.75 58.9875 51.325 56.7375L52.1375 56.3375L54.85 59.025C57.7 61.8375 57.925 62 59.025 62C60.575 62 62 60.5625 62 59C62 57.925 61.8375 57.6875 59.025 54.85L56.3375 52.1375L56.7375 51.325C58.95 46.8125 58.175 41.45 54.7625 37.85C52.3875 35.325 49.8 34.1625 46.375 34.0625C45.45 34.0375 44.525 34.05 44.3125 34.0875ZM48.375 36.2875C49.625 36.6375 50.475 37 51.4125 37.625C56.75 41.1 57.5375 48.5625 53.05 53.05C48.5625 57.5375 41.1 56.75 37.625 51.4125C36.5125 49.7125 36.0625 48.175 36.0625 46C36.0625 43.825 36.5125 42.2875 37.6125 40.6C39.1 38.325 41.4125 36.75 44.125 36.175C45.125 35.9625 47.4 36.025 48.375 36.2875ZM60 58.975C60 59.525 59.525 60 58.9875 60C58.625 60 58.3 59.725 56.1625 57.6L53.75 55.2L54.4625 54.475L55.1875 53.7375L57.5875 56.1625C59.725 58.3 60 58.625 60 58.975Z" fill="url(#paint7_linear_2558_279)"/>
<path d="M44.25 38.1875C42.05 38.6625 39.8625 40.375 38.8875 42.4C37.7125 44.825 37.7125 47.175 38.8875 49.6C40.15 52.225 43.025 54 46 54C48.9625 54 51.7625 52.2625 53.1 49.625C54.3375 47.15 54.275 44.3375 52.9125 42C51.175 39.025 47.65 37.4625 44.25 38.1875ZM47.4375 40.1875C50.4125 40.9625 52.35 43.825 51.9125 46.825C51.5375 49.475 49.4625 51.5375 46.8 51.9125C42.6875 52.5125 39.15 48.5875 40.1875 44.5875C41.025 41.3625 44.3 39.375 47.4375 40.1875Z" fill="url(#paint8_linear_2558_279)"/>
<path d="M45.05 42.1125C44.4625 42.2625 43.3875 42.8875 43.05 43.2875C42.575 43.85 42.1625 44.75 42.0625 45.4125L41.975 46H42.9625H43.95L44.1 45.45C44.275 44.8 44.925 44.175 45.5625 44.05L46 43.975V42.9875C46 41.9 46 41.8875 45.05 42.1125Z" fill="url(#paint9_linear_2558_279)"/>
<defs>
<linearGradient id="paint0_linear_2558_279" x1="1.975" y1="19.5" x2="58.0125" y2="19.5" gradientUnits="userSpaceOnUse">
<stop stop-color="#F86CA7"/>
<stop offset="1" stop-color="#FF7F18"/>
</linearGradient>
<linearGradient id="paint1_linear_2558_279" x1="51" y1="5.00015" x2="57.0015" y2="5.00015" gradientUnits="userSpaceOnUse">
<stop stop-color="#F86CA7"/>
<stop offset="1" stop-color="#FF7F18"/>
</linearGradient>
<linearGradient id="paint2_linear_2558_279" x1="7" y1="17" x2="9" y2="17" gradientUnits="userSpaceOnUse">
<stop stop-color="#F86CA7"/>
<stop offset="1" stop-color="#FF7F18"/>
</linearGradient>
<linearGradient id="paint3_linear_2558_279" x1="11" y1="17" x2="13" y2="17" gradientUnits="userSpaceOnUse">
<stop stop-color="#F86CA7"/>
<stop offset="1" stop-color="#FF7F18"/>
</linearGradient>
<linearGradient id="paint4_linear_2558_279" x1="15" y1="17" x2="17" y2="17" gradientUnits="userSpaceOnUse">
<stop stop-color="#F86CA7"/>
<stop offset="1" stop-color="#FF7F18"/>
</linearGradient>
<linearGradient id="paint5_linear_2558_279" x1="7" y1="29.5" x2="39" y2="29.5" gradientUnits="userSpaceOnUse">
<stop stop-color="#F86CA7"/>
<stop offset="1" stop-color="#FF7F18"/>
</linearGradient>
<linearGradient id="paint6_linear_2558_279" x1="2" y1="42.5" x2="41" y2="42.5" gradientUnits="userSpaceOnUse">
<stop stop-color="#F86CA7"/>
<stop offset="1" stop-color="#FF7F18"/>
</linearGradient>
<linearGradient id="paint7_linear_2558_279" x1="34.0537" y1="48.0247" x2="62" y2="48.0247" gradientUnits="userSpaceOnUse">
<stop stop-color="#F86CA7"/>
<stop offset="1" stop-color="#FF7F18"/>
</linearGradient>
<linearGradient id="paint8_linear_2558_279" x1="38.0062" y1="46.0058" x2="53.9835" y2="46.0058" gradientUnits="userSpaceOnUse">
<stop stop-color="#F86CA7"/>
<stop offset="1" stop-color="#FF7F18"/>
</linearGradient>
<linearGradient id="paint9_linear_2558_279" x1="41.975" y1="43.9983" x2="46" y2="43.9983" gradientUnits="userSpaceOnUse">
<stop stop-color="#F86CA7"/>
<stop offset="1" stop-color="#FF7F18"/>
</linearGradient>
</defs>
</svg>
