<svg width="64" height="64" viewBox="0 0 64 64" fill="none" xmlns="http://www.w3.org/2000/svg">
<g clip-path="url(#clip0_2558_291)">
<path d="M45.2625 0.212511C44.625 0.437511 43.9 1.11251 43.5625 1.81251C43.325 2.28751 43.3125 2.58751 43.3125 7.25001C43.3125 12.075 43.3125 12.2 43.5875 12.6875C43.7375 12.9625 44.0375 13.3625 44.275 13.5875C44.9875 14.275 45.5 14.4125 47.4125 14.475L49.1375 14.525L49.075 14.8625C48.85 15.95 48.1125 20.4125 48.15 20.5C48.175 20.5625 50.3875 19.2375 53.0625 17.55L57.9375 14.5H59.4C60.2 14.5 61.15 14.4375 61.5 14.3625C62.3625 14.175 63.1125 13.5875 63.525 12.7625L63.875 12.075V7.20001C63.875 2.72501 63.85 2.27501 63.6375 1.81251C63.35 1.17501 62.4125 0.337511 61.775 0.150011C61.425 0.0375118 59.1375 1.14441e-05 53.55 0.0125122C46.9125 0.0125122 45.7375 0.0500126 45.2625 0.212511ZM61.5625 2.43751L61.875 2.73751V7.12501C61.875 11.6 61.85 11.8625 61.3875 12.2125C61.25 12.3125 60.5875 12.3625 59.325 12.375H57.45L54.225 14.3875C52.45 15.5 50.975 16.3875 50.95 16.3625C50.925 16.3375 51.0625 15.425 51.25 14.3375L51.5875 12.375H48.7875H45.9875L45.6875 12.0625L45.375 11.7625V7.23751C45.375 2.75001 45.375 2.70001 45.65 2.41251L45.9125 2.12501H53.5875H61.2625L61.5625 2.43751Z" fill="url(#paint0_linear_2558_291)"/>
<path d="M47.4 5.15L47.4375 6.1875L53.6 6.225L59.75 6.25V5.1875V4.125H53.5625H47.3625L47.4 5.15Z" fill="url(#paint1_linear_2558_291)"/>
<path d="M47.4 9.275L47.4375 10.3125L51.5375 10.35L55.625 10.375V9.3125V8.25H51.5H47.3625L47.4 9.275Z" fill="url(#paint2_linear_2558_291)"/>
<path d="M57.75 9.3125V10.375H58.75H59.75V9.3125V8.25H58.75H57.75V9.3125Z" fill="url(#paint3_linear_2558_291)"/>
<path d="M29.1875 3.20003C27.9 3.33753 25.4875 3.80003 24.2875 4.13753C19.4 5.51253 15.125 8.00003 11.5625 11.5625C8.0125 15.1 5.5625 19.225 4.2 23.95L3.7875 25.4125L2.875 23.8875C2.375 23.05 1.9125 22.3375 1.85 22.3C1.775 22.25 0.500001 22.925 0.137501 23.2C0.100001 23.2375 2.925 28.0375 3.6125 29.1125C3.7 29.2375 4.375 28.8875 6.7 27.5C8.35 26.5125 9.7 25.7 9.725 25.6875C9.75 25.6625 8.85 24.1 8.7 23.9125C8.7 23.9 8.1 24.25 7.375 24.6875C6.65 25.1375 6.025 25.5 5.975 25.5C5.85 25.5 6.35 23.8125 6.9375 22.3C10.075 14.2 16.875 8.18753 25.325 6.00003C29.5 4.92503 34.3125 4.91253 38.5375 6.00003L39.875 6.33753L40.175 5.38753C40.4 4.68753 40.4375 4.41253 40.325 4.35003C40.0625 4.20003 38.1625 3.75003 36.6625 3.48753C35.525 3.28753 34.5625 3.21253 32.4375 3.18753C30.925 3.16253 29.4625 3.17503 29.1875 3.20003Z" fill="url(#paint4_linear_2558_291)"/>
<path d="M29.9374 10.4625C27.3749 10.8625 24.7249 12.15 22.7874 13.925C21.0624 15.5125 19.5749 18.0125 18.9124 20.4625L18.5749 21.6875L18.5624 26.8125V31.9375L18.8874 32.625C19.3624 33.6375 19.9124 34.2 20.8999 34.675L21.7874 35.1L22.1249 36.175C22.3249 36.775 22.7249 37.6875 23.0249 38.2125C23.6249 39.2875 25.1999 40.975 26.1499 41.5625C26.5749 41.825 26.7499 42.025 26.7499 42.2125C26.7499 42.525 27.0499 42.45 22.3499 43.3125C20.6624 43.6125 18.9624 43.9875 18.5874 44.125C16.5874 44.875 15.0624 46.4625 14.2999 48.6C14.1124 49.1375 13.9249 49.6 13.8749 49.65C13.8374 49.7125 12.9749 48.9125 11.9624 47.9C9.47487 45.3875 9.46237 45.75 12.2749 42.9125L14.4374 40.75L10.6249 36.9375L6.81237 33.1125L4.04987 35.9C1.72487 38.25 1.22487 38.8125 0.899866 39.5C0.287366 40.775 0.0873663 41.725 0.149866 43.175C0.212366 44.575 0.474866 45.475 1.14987 46.575C1.41237 47.0125 4.24987 49.9375 9.36237 55.0375C16.6749 62.3125 17.2499 62.85 18.0499 63.2375C20.2999 64.3 23.0374 64.1875 24.9999 62.95C25.3374 62.7375 26.9124 61.375 28.4874 59.9375L31.3624 57.3125L30.5874 56.5375L29.8249 55.75H40.8499C46.9124 55.75 51.8749 55.7125 51.8749 55.65C51.8749 55.325 49.3249 48 48.9874 47.35C48.4499 46.35 47.1624 45.0625 46.1874 44.5375C45.1499 44 44.5249 43.8375 40.9374 43.1875C36.7874 42.4375 37.1249 42.525 37.1374 42.2125C37.1374 42.025 37.4249 41.725 38.0874 41.25C38.6124 40.875 39.2749 40.275 39.5874 39.925L40.1374 39.275L41.5999 39.225C42.7749 39.1875 43.1624 39.125 43.5624 38.9125C44.1999 38.575 44.6999 38.075 45.0499 37.4375C45.3124 36.9375 45.3124 36.875 45.3124 29.5625C45.3124 22.9375 45.2874 22.0875 45.0874 21.15C43.9749 15.9875 40.3124 12.1125 35.2499 10.7375C34.5374 10.5375 33.8374 10.475 32.3124 10.4375C31.2124 10.4125 30.1499 10.425 29.9374 10.4625ZM33.7874 12.5625C37.8749 13.275 41.3124 16.175 42.6374 20.0375C43.1374 21.5 43.2499 22.3875 43.2499 25.025V27.35L42.7499 27.1625C42.2624 26.9625 42.2499 26.95 42.2499 26.35V25.75H41.0624C38.0249 25.75 35.1624 24.5125 32.8874 22.2L31.9624 21.2625L30.8624 22.3C28.3874 24.6625 25.8499 25.75 22.8124 25.75H21.6249V26.35C21.6249 26.95 21.6124 26.9625 21.1124 27.1625L20.5999 27.3625L20.6624 24.4625C20.7249 21.225 20.7999 20.8125 21.6374 19.025C23.1374 15.8 26.0749 13.4125 29.3874 12.7C31.1749 12.325 32.2374 12.2875 33.7874 12.5625ZM32.8124 24.9125C34.4374 26.25 36.7874 27.3125 38.8124 27.625C39.3624 27.7125 39.8874 27.8 39.9749 27.825C40.0874 27.8625 40.1249 28.6 40.1249 31.025C40.1249 34.425 40.0374 35.0625 39.4499 36.4L39.1249 37.125L35.5374 37.15L31.9374 37.1875V38.1875V39.1875L34.6249 39.25L37.3124 39.3125L36.7249 39.725C35.8374 40.3375 34.6874 40.85 33.6499 41.075C32.4124 41.35 30.4999 41.2625 29.3749 40.8875C26.8374 40.025 24.8999 38.0375 24.0374 35.4375C23.7249 34.4875 23.7124 34.2875 23.6499 31.2C23.5874 27.6625 23.5749 27.75 24.3249 27.75C24.9249 27.75 26.9749 27.2 27.9999 26.75C28.9624 26.35 31.1374 24.975 31.5499 24.5125C31.6874 24.3625 31.8374 24.25 31.8999 24.25C31.9624 24.25 32.3624 24.55 32.8124 24.9125ZM21.6249 31.025V32.7875L21.2999 32.4875C21.1249 32.325 20.8999 32.0375 20.7999 31.85C20.5874 31.45 20.5749 30.4625 20.7624 30.0875C20.9499 29.7375 21.3874 29.25 21.5249 29.25C21.5749 29.25 21.6249 30.05 21.6249 31.025ZM43.0249 30.0125C43.4624 30.825 43.2749 31.8375 42.5749 32.4875L42.2499 32.7875V31.0125V29.225L42.5249 29.4C42.6749 29.5 42.8999 29.775 43.0249 30.0125ZM43.2499 35.5625C43.2499 36.4 43.2124 36.55 42.9374 36.8125C42.6999 37.0625 42.5124 37.125 42.0249 37.125H41.4124L41.6999 36.275C41.8624 35.8125 41.9999 35.35 41.9999 35.25C41.9999 35.0875 42.7249 34.7125 43.1624 34.6375C43.2124 34.6375 43.2499 35.05 43.2499 35.5625ZM10.9999 41.3125L10.4374 41.875L8.06237 39.5L5.69987 37.125L6.24987 36.5625L6.81237 36L9.18737 38.375L11.5624 40.75L10.9999 41.3125ZM8.57487 43.8125C7.92487 44.75 7.84987 45.975 8.36237 46.9625C8.73737 47.6875 16.6999 55.5625 17.3124 55.825C18.2749 56.225 19.7624 56 20.4374 55.375C20.6999 55.1375 20.6999 55.1375 23.0624 57.5125L25.4374 59.8875L24.7874 60.5C24.4249 60.8375 23.7999 61.2625 23.4124 61.4625C22.7374 61.7875 22.5749 61.8125 21.2499 61.8125C18.8999 61.8125 19.5624 62.3375 10.6624 53.45C2.32487 45.125 2.54987 45.3875 2.22487 43.625C1.94987 42.15 2.46237 40.5 3.58737 39.25L4.16237 38.6L6.52487 40.975L8.89987 43.3375L8.57487 43.8125ZM31.9999 43.2875C33.0124 43.2875 33.7999 43.2125 34.2499 43.0875C34.6249 42.9875 34.9499 42.9125 34.9624 42.925C34.9749 42.9375 34.2999 43.6375 33.4624 44.475L31.9374 46L30.3874 44.45L28.8374 42.9L29.6374 43.1C30.1624 43.225 30.9624 43.3 31.9999 43.2875ZM29.6499 46.7125L31.8749 48.9375L34.1124 46.7L36.3499 44.4625L40.2749 45.175C43.4374 45.75 44.3374 45.95 44.9499 46.25C45.7999 46.6625 46.5749 47.35 47.0624 48.125C47.3374 48.55 48.9999 53.2 48.9999 53.525C48.9999 53.575 44.1999 53.625 38.3374 53.625H27.6874L25.7499 51.6875C24.6874 50.625 23.7624 49.75 23.7124 49.75C23.6499 49.75 22.7999 50.475 21.8249 51.35C18.9999 53.925 18.8999 54 18.4749 54C18.1499 54 17.8749 53.7875 16.8124 52.7375L15.5249 51.475L16.0124 50.0375C16.5624 48.4 17.0499 47.5625 17.7999 46.9375C18.7749 46.15 19.4874 45.925 23.3124 45.2C25.3124 44.8375 27.0499 44.525 27.1874 44.5125C27.3499 44.5 28.1874 45.25 29.6499 46.7125ZM27.7249 57.8375L27.0624 58.5L24.6874 56.125L22.3124 53.7375L22.9874 53.1125L23.6624 52.475L26.0124 54.825L28.3749 57.1875L27.7249 57.8375Z" fill="url(#paint5_linear_2558_291)"/>
<path d="M57.2 19.525C57.1 19.6875 56.2875 21.0375 55.3875 22.5375L53.7625 25.25L54.2875 25.575C54.575 25.75 54.9375 25.975 55.0875 26.075C55.2375 26.175 55.4125 26.25 55.4625 26.25C55.525 26.25 55.95 25.6 56.425 24.8C57 23.85 57.325 23.4125 57.3875 23.525C57.4375 23.6125 57.625 24.225 57.8 24.875C59.925 32.7 58.4 41.1125 53.6875 47.6875C53.2875 48.2375 52.95 48.75 52.9125 48.825C52.8625 48.95 54.1875 50.125 54.3875 50.125C54.5375 50.125 55.925 48.1375 56.775 46.7125C59.45 42.2125 60.775 37.325 60.7875 32C60.7875 29.125 60.375 26.225 59.625 23.7625C59.4875 23.3125 59.4 22.9375 59.4125 22.9125C59.45 22.8875 60.5375 23.525 61.9625 24.3875L62.3625 24.6375L62.8875 23.75C63.175 23.2625 63.3875 22.85 63.3625 22.825C63.3 22.7625 57.95 19.55 57.625 19.375C57.425 19.275 57.35 19.3 57.2 19.525Z" fill="url(#paint6_linear_2558_291)"/>
</g>
<defs>
<linearGradient id="paint0_linear_2558_291" x1="43.3125" y1="10.2562" x2="63.875" y2="10.2562" gradientUnits="userSpaceOnUse">
<stop stop-color="#F86CA7"/>
<stop offset="1" stop-color="#FF7F18"/>
</linearGradient>
<linearGradient id="paint1_linear_2558_291" x1="47.3625" y1="5.1875" x2="59.75" y2="5.1875" gradientUnits="userSpaceOnUse">
<stop stop-color="#F86CA7"/>
<stop offset="1" stop-color="#FF7F18"/>
</linearGradient>
<linearGradient id="paint2_linear_2558_291" x1="47.3625" y1="9.3125" x2="55.625" y2="9.3125" gradientUnits="userSpaceOnUse">
<stop stop-color="#F86CA7"/>
<stop offset="1" stop-color="#FF7F18"/>
</linearGradient>
<linearGradient id="paint3_linear_2558_291" x1="57.75" y1="9.3125" x2="59.75" y2="9.3125" gradientUnits="userSpaceOnUse">
<stop stop-color="#F86CA7"/>
<stop offset="1" stop-color="#FF7F18"/>
</linearGradient>
<linearGradient id="paint4_linear_2558_291" x1="0.137131" y1="16.155" x2="40.3864" y2="16.155" gradientUnits="userSpaceOnUse">
<stop stop-color="#F86CA7"/>
<stop offset="1" stop-color="#FF7F18"/>
</linearGradient>
<linearGradient id="paint5_linear_2558_291" x1="0.138947" y1="37.1936" x2="51.8749" y2="37.1936" gradientUnits="userSpaceOnUse">
<stop stop-color="#F86CA7"/>
<stop offset="1" stop-color="#FF7F18"/>
</linearGradient>
<linearGradient id="paint6_linear_2558_291" x1="52.9111" y1="34.722" x2="63.3645" y2="34.722" gradientUnits="userSpaceOnUse">
<stop stop-color="#F86CA7"/>
<stop offset="1" stop-color="#FF7F18"/>
</linearGradient>
<clipPath id="clip0_2558_291">
<rect width="64" height="64" fill="white"/>
</clipPath>
</defs>
</svg>
